M48
;Layer_Color=9474304
;FILE_FORMAT=4:3
METRIC,TZ
;TYPE=PLATED
T1F00S00C0.300
T2F00S00C0.850
T3F00S00C0.900
T4F00S00C3.300
%
T01
X54700Y48275
X55125Y56200
X56355Y56130
X52545Y56250
X47975Y58725
X52525Y63825
X56350Y63725
X53875Y69725
X51328Y69375
X51100Y78225
X53850Y78200
X64525Y78275
X64600Y58375
X42850Y67475
X45600Y80600
X48950Y83000
X49850Y84150
X52475Y83000
X52375Y88650
X53600Y88700
X49790Y88765
X48225Y94175
X51175Y96375
X53600Y96250
X54875Y96300
X61775Y96875
X63175Y86500
X63450Y84050
X66075Y88525
X67103Y110280
X63700Y110275
X63850Y114525
X57105Y116775
X53295Y116895
X50750Y116975
X49450Y116850
X43000Y116425
X42350Y112575
X42450Y109900
X46050Y112075
X50725Y109425
X53250Y109025
X55775Y109200
X51375Y106125
T02
X46450Y50100
X54070
T03
X60150Y43150
Y45690
X57350Y49971
X53875Y53900
X59175Y59850
X45950Y73650
X42250Y73775
X60221Y92150
X43000Y114925
T04
X41600Y42500
X65500
Y124000
X41500
M30
