%TF.GenerationSoftware,Altium Limited,Altium Designer,19.0.15 (446)*%
G04 Layer_Color=2752767*
%FSLAX42Y42*%
%MOMM*%
%TF.FileFunction,Drawing*%
%TF.Part,Single*%
G01*
G75*
%TA.AperFunction,NonConductor*%
%ADD74C,0.13*%
%ADD75C,0.17*%
D74*
X4249Y11442D02*
Y11543D01*
X4351D01*
Y11442D01*
X4249D01*
X5867Y5934D02*
Y6036D01*
X5968D01*
Y5934D01*
X5867D01*
X4544Y7314D02*
Y7416D01*
X4646D01*
Y7314D01*
X4544D01*
X5971Y9164D02*
Y9266D01*
X6073D01*
Y9164D01*
X5971D01*
X4174Y7327D02*
Y7428D01*
X4276D01*
Y7327D01*
X4174D01*
X5684Y4946D02*
Y5048D01*
X5786D01*
Y4946D01*
X5684D01*
X5337Y5339D02*
Y5441D01*
X5438D01*
Y5339D01*
X5337D01*
X5964Y4518D02*
Y4620D01*
X6066D01*
Y4518D01*
X5964D01*
Y4264D02*
Y4366D01*
X6066D01*
Y4264D01*
X5964D01*
X6550Y12349D02*
X6499Y12451D01*
X6601D01*
X6550Y12349D01*
X4150D02*
X4099Y12451D01*
X4201D01*
X4150Y12349D01*
X4160Y4199D02*
X4109Y4301D01*
X4211D01*
X4160Y4199D01*
X6550D02*
X6499Y4301D01*
X6601D01*
X6550Y4199D01*
X4797Y5822D02*
X4823Y5847D01*
X4848D01*
X4823Y5872D01*
X4848Y5898D01*
X4823D01*
X4797Y5923D01*
X4772Y5898D01*
X4747D01*
X4772Y5872D01*
X4747Y5847D01*
X4772D01*
X4797Y5822D01*
X6607Y8802D02*
X6633Y8827D01*
X6658D01*
X6633Y8853D01*
X6658Y8878D01*
X6633D01*
X6607Y8903D01*
X6582Y8878D01*
X6557D01*
X6582Y8853D01*
X6557Y8827D01*
X6582D01*
X6607Y8802D01*
X4560Y8009D02*
X4585Y8035D01*
X4611D01*
X4585Y8060D01*
X4611Y8085D01*
X4585D01*
X4560Y8111D01*
X4535Y8085D01*
X4509D01*
X4535Y8060D01*
X4509Y8035D01*
X4535D01*
X4560Y8009D01*
X4822Y9367D02*
X4848Y9392D01*
X4873D01*
X4848Y9418D01*
X4873Y9443D01*
X4848D01*
X4822Y9468D01*
X4797Y9443D01*
X4772D01*
X4797Y9418D01*
X4772Y9392D01*
X4797D01*
X4822Y9367D01*
X4285Y6697D02*
X4310Y6722D01*
X4336D01*
X4310Y6747D01*
X4336Y6773D01*
X4310D01*
X4285Y6798D01*
X4260Y6773D01*
X4234D01*
X4260Y6747D01*
X4234Y6722D01*
X4260D01*
X4285Y6697D01*
X6460Y5787D02*
X6485Y5812D01*
X6511D01*
X6485Y5838D01*
X6511Y5863D01*
X6485D01*
X6460Y5888D01*
X6435Y5863D01*
X6409D01*
X6435Y5838D01*
X6409Y5812D01*
X6435D01*
X6460Y5787D01*
X5247Y8249D02*
X5273Y8275D01*
X5298D01*
X5273Y8300D01*
X5298Y8325D01*
X5273D01*
X5247Y8351D01*
X5222Y8325D01*
X5197D01*
X5222Y8300D01*
X5197Y8275D01*
X5222D01*
X5247Y8249D01*
X4895D02*
X4920Y8275D01*
X4946D01*
X4920Y8300D01*
X4946Y8325D01*
X4920D01*
X4895Y8351D01*
X4870Y8325D01*
X4844D01*
X4870Y8300D01*
X4844Y8275D01*
X4870D01*
X4895Y8249D01*
X5388Y6922D02*
X5413Y6947D01*
X5438D01*
X5413Y6972D01*
X5438Y6998D01*
X5413D01*
X5388Y7023D01*
X5362Y6998D01*
X5337D01*
X5362Y6972D01*
X5337Y6947D01*
X5362D01*
X5388Y6922D01*
X5133Y6887D02*
X5158Y6912D01*
X5184D01*
X5158Y6938D01*
X5184Y6963D01*
X5158D01*
X5133Y6988D01*
X5107Y6963D01*
X5082D01*
X5107Y6938D01*
X5082Y6912D01*
X5107D01*
X5133Y6887D01*
X5385Y7769D02*
X5410Y7795D01*
X5436D01*
X5410Y7820D01*
X5436Y7845D01*
X5410D01*
X5385Y7871D01*
X5360Y7845D01*
X5334D01*
X5360Y7820D01*
X5334Y7795D01*
X5360D01*
X5385Y7769D01*
X6345Y8354D02*
X6370Y8380D01*
X6396D01*
X6370Y8405D01*
X6396Y8430D01*
X6370D01*
X6345Y8456D01*
X6320Y8430D01*
X6294D01*
X6320Y8405D01*
X6294Y8380D01*
X6320D01*
X6345Y8354D01*
X6710Y10977D02*
X6736Y11003D01*
X6761D01*
X6736Y11028D01*
X6761Y11053D01*
X6736D01*
X6710Y11079D01*
X6685Y11053D01*
X6660D01*
X6685Y11028D01*
X6660Y11003D01*
X6685D01*
X6710Y10977D01*
X4300Y11592D02*
X4325Y11617D01*
X4351D01*
X4325Y11643D01*
X4351Y11668D01*
X4325D01*
X4300Y11693D01*
X4275Y11668D01*
X4249D01*
X4275Y11643D01*
X4249Y11617D01*
X4275D01*
X4300Y11592D01*
X4605Y11157D02*
X4630Y11182D01*
X4656D01*
X4630Y11207D01*
X4656Y11233D01*
X4630D01*
X4605Y11258D01*
X4580Y11233D01*
X4554D01*
X4580Y11207D01*
X4554Y11182D01*
X4580D01*
X4605Y11157D01*
X6370Y10977D02*
X6395Y11002D01*
X6421D01*
X6395Y11028D01*
X6421Y11053D01*
X6395D01*
X6370Y11078D01*
X6345Y11053D01*
X6319D01*
X6345Y11028D01*
X6319Y11002D01*
X6345D01*
X6370Y10977D01*
X6385Y11402D02*
X6410Y11427D01*
X6436D01*
X6410Y11453D01*
X6436Y11478D01*
X6410D01*
X6385Y11503D01*
X6360Y11478D01*
X6334D01*
X6360Y11453D01*
X6334Y11427D01*
X6360D01*
X6385Y11402D01*
X4945Y11634D02*
X4970Y11660D01*
X4996D01*
X4970Y11685D01*
X4996Y11710D01*
X4970D01*
X4945Y11736D01*
X4920Y11710D01*
X4894D01*
X4920Y11685D01*
X4894Y11660D01*
X4920D01*
X4945Y11634D01*
X5710Y11627D02*
X5736Y11652D01*
X5761D01*
X5736Y11678D01*
X5761Y11703D01*
X5736D01*
X5710Y11728D01*
X5685Y11703D01*
X5660D01*
X5685Y11678D01*
X5660Y11652D01*
X5685D01*
X5710Y11627D01*
X5138Y10562D02*
X5163Y10587D01*
X5188D01*
X5163Y10612D01*
X5188Y10638D01*
X5163D01*
X5138Y10663D01*
X5112Y10638D01*
X5087D01*
X5112Y10612D01*
X5087Y10587D01*
X5112D01*
X5138Y10562D01*
X4245Y10939D02*
X4270Y10965D01*
X4296D01*
X4270Y10990D01*
X4296Y11015D01*
X4270D01*
X4245Y11041D01*
X4220Y11015D01*
X4194D01*
X4220Y10990D01*
X4194Y10965D01*
X4220D01*
X4245Y10939D01*
X4235Y11207D02*
X4260Y11232D01*
X4286D01*
X4260Y11257D01*
X4286Y11283D01*
X4260D01*
X4235Y11308D01*
X4210Y11283D01*
X4184D01*
X4210Y11257D01*
X4184Y11232D01*
X4210D01*
X4235Y11207D01*
X5578Y10869D02*
X5603Y10895D01*
X5628D01*
X5603Y10920D01*
X5628Y10945D01*
X5603D01*
X5578Y10971D01*
X5552Y10945D01*
X5527D01*
X5552Y10920D01*
X5527Y10895D01*
X5552D01*
X5578Y10869D01*
X5325Y10852D02*
X5350Y10877D01*
X5376D01*
X5350Y10903D01*
X5376Y10928D01*
X5350D01*
X5325Y10953D01*
X5300Y10928D01*
X5274D01*
X5300Y10903D01*
X5274Y10877D01*
X5300D01*
X5325Y10852D01*
X5072Y10892D02*
X5098Y10917D01*
X5123D01*
X5098Y10943D01*
X5123Y10968D01*
X5098D01*
X5072Y10993D01*
X5047Y10968D01*
X5022D01*
X5047Y10943D01*
X5022Y10917D01*
X5047D01*
X5072Y10892D01*
X5488Y9579D02*
X5513Y9605D01*
X5538D01*
X5513Y9630D01*
X5538Y9655D01*
X5513D01*
X5488Y9681D01*
X5462Y9655D01*
X5437D01*
X5462Y9630D01*
X5437Y9605D01*
X5462D01*
X5488Y9579D01*
X6178Y9637D02*
X6203Y9662D01*
X6228D01*
X6203Y9688D01*
X6228Y9713D01*
X6203D01*
X6178Y9738D01*
X6152Y9713D01*
X6127D01*
X6152Y9688D01*
X6127Y9662D01*
X6152D01*
X6178Y9637D01*
X6317Y8599D02*
X6343Y8625D01*
X6368D01*
X6343Y8650D01*
X6368Y8675D01*
X6343D01*
X6317Y8701D01*
X6292Y8675D01*
X6267D01*
X6292Y8650D01*
X6267Y8625D01*
X6292D01*
X6317Y8599D01*
X5117Y9587D02*
X5143Y9612D01*
X5168D01*
X5143Y9638D01*
X5168Y9663D01*
X5143D01*
X5117Y9688D01*
X5092Y9663D01*
X5067D01*
X5092Y9638D01*
X5067Y9612D01*
X5092D01*
X5117Y9587D01*
X5075Y11647D02*
X5100Y11672D01*
X5126D01*
X5100Y11697D01*
X5126Y11723D01*
X5100D01*
X5075Y11748D01*
X5050Y11723D01*
X5024D01*
X5050Y11697D01*
X5024Y11672D01*
X5050D01*
X5075Y11647D01*
X5329Y11639D02*
X5355Y11664D01*
X5380D01*
X5355Y11689D01*
X5380Y11715D01*
X5355D01*
X5329Y11740D01*
X5304Y11715D01*
X5279D01*
X5304Y11689D01*
X5279Y11664D01*
X5304D01*
X5329Y11639D01*
X4985Y8364D02*
X5010Y8390D01*
X5036D01*
X5010Y8415D01*
X5036Y8440D01*
X5010D01*
X4985Y8466D01*
X4960Y8440D01*
X4934D01*
X4960Y8415D01*
X4934Y8390D01*
X4960D01*
X4985Y8364D01*
X4979Y8826D02*
X5004Y8851D01*
X5030D01*
X5004Y8877D01*
X5030Y8902D01*
X5004D01*
X4979Y8927D01*
X4954Y8902D01*
X4928D01*
X4954Y8877D01*
X4928Y8851D01*
X4954D01*
X4979Y8826D01*
X5238Y8814D02*
X5263Y8840D01*
X5288D01*
X5263Y8865D01*
X5288Y8890D01*
X5263D01*
X5238Y8916D01*
X5212Y8890D01*
X5187D01*
X5212Y8865D01*
X5187Y8840D01*
X5212D01*
X5238Y8814D01*
X5110Y7772D02*
X5135Y7797D01*
X5161D01*
X5135Y7822D01*
X5161Y7848D01*
X5135D01*
X5110Y7873D01*
X5085Y7848D01*
X5059D01*
X5085Y7822D01*
X5059Y7797D01*
X5085D01*
X5110Y7772D01*
X5360Y8819D02*
X5385Y8845D01*
X5411D01*
X5385Y8870D01*
X5411Y8895D01*
X5385D01*
X5360Y8921D01*
X5335Y8895D01*
X5309D01*
X5335Y8870D01*
X5309Y8845D01*
X5335D01*
X5360Y8819D01*
X5360Y9574D02*
X5385Y9600D01*
X5411D01*
X5385Y9625D01*
X5411Y9650D01*
X5385D01*
X5360Y9676D01*
X5335Y9650D01*
X5309D01*
X5335Y9625D01*
X5309Y9600D01*
X5335D01*
X5360Y9574D01*
X6453Y7777D02*
X6478Y7802D01*
X6503D01*
X6478Y7828D01*
X6503Y7853D01*
X6478D01*
X6453Y7878D01*
X6427Y7853D01*
X6402D01*
X6427Y7828D01*
X6402Y7802D01*
X6427D01*
X6453Y7777D01*
X5635Y6322D02*
X5660Y6347D01*
X5686D01*
X5660Y6372D01*
X5686Y6398D01*
X5660D01*
X5635Y6423D01*
X5610Y6398D01*
X5584D01*
X5610Y6372D01*
X5584Y6347D01*
X5610D01*
X5635Y6322D01*
X5635Y5562D02*
X5661Y5588D01*
X5686D01*
X5661Y5613D01*
X5686Y5638D01*
X5661D01*
X5635Y5664D01*
X5610Y5638D01*
X5585D01*
X5610Y5613D01*
X5585Y5588D01*
X5610D01*
X5635Y5562D01*
X5512Y5569D02*
X5538Y5595D01*
X5563D01*
X5538Y5620D01*
X5563Y5645D01*
X5538D01*
X5512Y5671D01*
X5487Y5645D01*
X5462D01*
X5487Y5620D01*
X5462Y5595D01*
X5487D01*
X5512Y5569D01*
X5253Y6332D02*
X5278Y6357D01*
X5303D01*
X5278Y6383D01*
X5303Y6408D01*
X5278D01*
X5253Y6433D01*
X5227Y6408D01*
X5202D01*
X5227Y6383D01*
X5202Y6357D01*
X5227D01*
X5253Y6332D01*
X5254Y5574D02*
X5280Y5600D01*
X5305D01*
X5280Y5625D01*
X5305Y5650D01*
X5280D01*
X5254Y5676D01*
X5229Y5650D01*
X5204D01*
X5229Y5625D01*
X5204Y5600D01*
X5229D01*
X5254Y5574D01*
X5470Y4777D02*
X5495Y4802D01*
X5521D01*
X5495Y4828D01*
X5521Y4853D01*
X5495D01*
X5470Y4878D01*
X5445Y4853D01*
X5419D01*
X5445Y4828D01*
X5419Y4802D01*
X5445D01*
X5470Y4777D01*
D75*
X5458Y5010D02*
G03*
X5458Y5010I-51J0D01*
G01*
X4696D02*
G03*
X4696Y5010I-51J0D01*
G01*
%TF.MD5,a37b32f2d9456af2d50d0294dad78391*%
M02*
