%TF.GenerationSoftware,Altium Limited,Altium Designer,19.0.15 (446)*%
G04 Layer_Color=128*
%FSLAX42Y42*%
%MOMM*%
%TF.FileFunction,Drillmap*%
%TF.Part,Single*%
G01*
G75*
%TA.AperFunction,NonConductor*%
%ADD74C,0.13*%
D74*
X4255Y11492D02*
X4345D01*
X4300Y11447D02*
Y11537D01*
X5872Y5985D02*
X5962D01*
X5917Y5940D02*
Y6030D01*
X4550Y7365D02*
X4640D01*
X4595Y7320D02*
Y7410D01*
X5977Y9215D02*
X6067D01*
X6022Y9170D02*
Y9260D01*
X4180Y7378D02*
X4270D01*
X4225Y7332D02*
Y7422D01*
X5690Y4997D02*
X5780D01*
X5735Y4952D02*
Y5042D01*
X5342Y5390D02*
X5432D01*
X5388Y5345D02*
Y5435D01*
X5365Y5010D02*
X5449D01*
X5407Y4967D02*
Y5053D01*
X4603Y5010D02*
X4688D01*
X4645Y4967D02*
Y5053D01*
X5970Y4569D02*
X6060D01*
X6015Y4524D02*
Y4614D01*
X5970Y4315D02*
X6060D01*
X6015Y4270D02*
Y4360D01*
X6385Y12400D02*
X6715D01*
X6550Y12235D02*
Y12565D01*
X3985Y12400D02*
X4315D01*
X4150Y12235D02*
Y12565D01*
X3995Y4250D02*
X4325D01*
X4160Y4085D02*
Y4415D01*
X6385Y4250D02*
X6715D01*
X6550Y4085D02*
Y4415D01*
X4783Y5872D02*
X4812D01*
X4797Y5858D02*
Y5888D01*
X6593Y8853D02*
X6622D01*
X6607Y8838D02*
Y8868D01*
X4545Y8060D02*
X4575D01*
X4560Y8045D02*
Y8075D01*
X4808Y9418D02*
X4838D01*
X4822Y9403D02*
Y9432D01*
X4270Y6747D02*
X4300D01*
X4285Y6732D02*
Y6762D01*
X6445Y5838D02*
X6475D01*
X6460Y5822D02*
Y5853D01*
X5233Y8300D02*
X5262D01*
X5247Y8285D02*
Y8315D01*
X4880Y8300D02*
X4910D01*
X4895Y8285D02*
Y8315D01*
X5372Y6972D02*
X5403D01*
X5388Y6957D02*
Y6988D01*
X5118Y6938D02*
X5148D01*
X5133Y6922D02*
Y6953D01*
X5370Y7820D02*
X5400D01*
X5385Y7805D02*
Y7835D01*
X6330Y8405D02*
X6360D01*
X6345Y8390D02*
Y8420D01*
X6695Y11028D02*
X6725D01*
X6710Y11013D02*
Y11043D01*
X4285Y11643D02*
X4315D01*
X4300Y11628D02*
Y11657D01*
X4590Y11207D02*
X4620D01*
X4605Y11193D02*
Y11222D01*
X6355Y11028D02*
X6385D01*
X6370Y11012D02*
Y11043D01*
Y11453D02*
X6400D01*
X6385Y11438D02*
Y11468D01*
X4930Y11685D02*
X4960D01*
X4945Y11670D02*
Y11700D01*
X5696Y11678D02*
X5726D01*
X5710Y11662D02*
Y11693D01*
X5122Y10612D02*
X5153D01*
X5138Y10597D02*
Y10628D01*
X4230Y10990D02*
X4260D01*
X4245Y10975D02*
Y11005D01*
X4220Y11257D02*
X4250D01*
X4235Y11243D02*
Y11272D01*
X5562Y10920D02*
X5592D01*
X5578Y10905D02*
Y10935D01*
X5310Y10903D02*
X5340D01*
X5325Y10888D02*
Y10918D01*
X5058Y10943D02*
X5088D01*
X5072Y10928D02*
Y10957D01*
X5472Y9630D02*
X5503D01*
X5488Y9615D02*
Y9645D01*
X6162Y9688D02*
X6192D01*
X6178Y9672D02*
Y9703D01*
X6303Y8650D02*
X6333D01*
X6317Y8635D02*
Y8665D01*
X5103Y9638D02*
X5133D01*
X5117Y9622D02*
Y9653D01*
X5060Y11697D02*
X5090D01*
X5075Y11682D02*
Y11712D01*
X5315Y11689D02*
X5344D01*
X5329Y11675D02*
Y11704D01*
X4970Y8415D02*
X5000D01*
X4985Y8400D02*
Y8430D01*
X4964Y8877D02*
X4994D01*
X4979Y8862D02*
Y8892D01*
X5222Y8865D02*
X5253D01*
X5238Y8850D02*
Y8880D01*
X5095Y7822D02*
X5125D01*
X5110Y7807D02*
Y7838D01*
X5345Y8870D02*
X5375D01*
X5360Y8855D02*
Y8885D01*
X5345Y9625D02*
X5375D01*
X5360Y9610D02*
Y9640D01*
X6438Y7828D02*
X6468D01*
X6453Y7812D02*
Y7843D01*
X5620Y6372D02*
X5650D01*
X5635Y6358D02*
Y6388D01*
X5621Y5613D02*
X5651D01*
X5635Y5598D02*
Y5628D01*
X5497Y5620D02*
X5528D01*
X5512Y5605D02*
Y5635D01*
X5238Y6383D02*
X5267D01*
X5253Y6367D02*
Y6397D01*
X5240Y5625D02*
X5269D01*
X5254Y5610D02*
Y5640D01*
X5455Y4828D02*
X5485D01*
X5470Y4812D02*
Y4842D01*
%TF.MD5,36a9a2f8479d15cdd9d971259dae3e79*%
M02*
