%TF.GenerationSoftware,Altium Limited,Altium Designer,19.0.15 (446)*%
G04 Layer_Color=8388736*
%FSLAX42Y42*%
%MOMM*%
%TF.FileFunction,Soldermask,Top*%
%TF.Part,Single*%
G01*
G75*
%TA.AperFunction,SMDPad,CuDef*%
%ADD41R,1.75X1.10*%
%ADD42R,1.80X1.10*%
%ADD43R,1.90X1.30*%
%ADD44R,1.90X1.15*%
%ADD45R,1.10X1.80*%
G04:AMPARAMS|DCode=46|XSize=0.75mm|YSize=1.45mm|CornerRadius=0.15mm|HoleSize=0mm|Usage=FLASHONLY|Rotation=180.000|XOffset=0mm|YOffset=0mm|HoleType=Round|Shape=RoundedRectangle|*
%AMROUNDEDRECTD46*
21,1,0.75,1.15,0,0,180.0*
21,1,0.45,1.45,0,0,180.0*
1,1,0.30,-0.23,0.58*
1,1,0.30,0.23,0.58*
1,1,0.30,0.23,-0.58*
1,1,0.30,-0.23,-0.58*
%
%ADD46ROUNDEDRECTD46*%
%ADD47R,0.79X0.65*%
%ADD48R,1.50X1.20*%
%ADD49R,1.10X1.75*%
%ADD50R,0.65X0.79*%
%ADD51R,1.60X1.30*%
%ADD52R,1.80X2.70*%
%ADD53R,1.30X1.85*%
%TA.AperFunction,ComponentPad*%
%ADD54R,1.70X1.70*%
%ADD55C,1.60*%
%ADD56R,1.70X1.70*%
%ADD57C,1.70*%
%TA.AperFunction,ViaPad*%
%ADD58C,3.50*%
%ADD59C,0.90*%
D41*
X4275Y10738D02*
D03*
Y10473D02*
D03*
X6370Y10543D02*
D03*
Y10807D02*
D03*
X6155Y10230D02*
D03*
Y9965D02*
D03*
D42*
X4383Y10987D02*
D03*
Y11258D02*
D03*
X4538Y9495D02*
D03*
Y9765D02*
D03*
X6062Y10545D02*
D03*
Y10815D02*
D03*
X6465Y6597D02*
D03*
Y6328D02*
D03*
X4979Y9980D02*
D03*
Y9710D02*
D03*
X5738Y9967D02*
D03*
Y9697D02*
D03*
X6462Y6913D02*
D03*
Y7182D02*
D03*
X6072Y7455D02*
D03*
Y7185D02*
D03*
X6460Y8215D02*
D03*
Y7945D02*
D03*
X4733Y8205D02*
D03*
Y7935D02*
D03*
X4645Y4695D02*
D03*
Y4425D02*
D03*
D43*
X6318Y9042D02*
D03*
Y8782D02*
D03*
X4567Y10460D02*
D03*
Y10750D02*
D03*
X4217Y7980D02*
D03*
Y7710D02*
D03*
X6462Y7720D02*
D03*
Y7450D02*
D03*
X5490Y8755D02*
D03*
Y8485D02*
D03*
X5013Y5890D02*
D03*
Y6160D02*
D03*
X5465Y4315D02*
D03*
Y4585D02*
D03*
D44*
X6318Y9690D02*
D03*
Y9420D02*
D03*
D45*
X4945Y11830D02*
D03*
X4675D02*
D03*
X4127Y11832D02*
D03*
X4397D02*
D03*
X5730Y7973D02*
D03*
X6000D02*
D03*
X4320Y8550D02*
D03*
X4050D02*
D03*
X5508Y6590D02*
D03*
X5777D02*
D03*
X4683Y6736D02*
D03*
X4413D02*
D03*
X4555Y8550D02*
D03*
X4825D02*
D03*
X4848Y6735D02*
D03*
X5118D02*
D03*
X6478Y5307D02*
D03*
X6208D02*
D03*
D46*
X5710Y11555D02*
D03*
X5583D02*
D03*
X5456D02*
D03*
X5329D02*
D03*
X5202D02*
D03*
X5075D02*
D03*
X4948D02*
D03*
X5710Y11030D02*
D03*
X5583D02*
D03*
X5456D02*
D03*
X5329D02*
D03*
X5202D02*
D03*
X5075D02*
D03*
X4948D02*
D03*
X5635Y6265D02*
D03*
X5508D02*
D03*
X5381D02*
D03*
X5254D02*
D03*
X5635Y5740D02*
D03*
X5508D02*
D03*
X5381D02*
D03*
X5254D02*
D03*
X5741Y9510D02*
D03*
X5614D02*
D03*
X5487D02*
D03*
X5360D02*
D03*
X5233D02*
D03*
X5106D02*
D03*
X4979D02*
D03*
X5741Y8985D02*
D03*
X5614D02*
D03*
X5487D02*
D03*
X5360D02*
D03*
X5233D02*
D03*
X5106D02*
D03*
X4979D02*
D03*
X5766Y7710D02*
D03*
X5639D02*
D03*
X5512D02*
D03*
X5385D02*
D03*
X5258D02*
D03*
X5131D02*
D03*
X5004D02*
D03*
X5766Y7185D02*
D03*
X5639D02*
D03*
X5512D02*
D03*
X5385D02*
D03*
X5258D02*
D03*
X5131D02*
D03*
X5004D02*
D03*
D47*
X5748Y10745D02*
D03*
X5537D02*
D03*
X4807Y10750D02*
D03*
X5018D02*
D03*
D48*
X5972Y6440D02*
D03*
Y6590D02*
D03*
X5258Y7950D02*
D03*
Y8100D02*
D03*
X5508Y7955D02*
D03*
Y8105D02*
D03*
D49*
X4502Y10212D02*
D03*
X4768D02*
D03*
X5988Y5367D02*
D03*
X5722D02*
D03*
X6267Y4995D02*
D03*
X6002D02*
D03*
D50*
X5180Y10410D02*
D03*
Y10199D02*
D03*
X5455Y10418D02*
D03*
Y10207D02*
D03*
D51*
X4756Y6010D02*
D03*
Y6160D02*
D03*
X5715Y4315D02*
D03*
Y4465D02*
D03*
D52*
X5035Y4665D02*
D03*
Y4315D02*
D03*
D53*
X4930Y5365D02*
D03*
X4645D02*
D03*
D54*
X4300Y11492D02*
D03*
X5917Y5985D02*
D03*
X4595Y7365D02*
D03*
X6022Y9215D02*
D03*
X4225Y7378D02*
D03*
X5735Y4997D02*
D03*
X5388Y5390D02*
D03*
D55*
X5407Y5010D02*
D03*
X4645D02*
D03*
D56*
X6015Y4569D02*
D03*
D57*
Y4315D02*
D03*
D58*
X6550Y12400D02*
D03*
X4150D02*
D03*
X4160Y4250D02*
D03*
X6550D02*
D03*
D59*
X4797Y5872D02*
D03*
X6607Y8853D02*
D03*
X4560Y8060D02*
D03*
X4822Y9418D02*
D03*
X4285Y6747D02*
D03*
X6460Y5838D02*
D03*
X5247Y8300D02*
D03*
X4895D02*
D03*
X5388Y6972D02*
D03*
X5133Y6938D02*
D03*
X5385Y7820D02*
D03*
X6345Y8405D02*
D03*
X6710Y11028D02*
D03*
X4300Y11643D02*
D03*
X4605Y11207D02*
D03*
X6370Y11028D02*
D03*
X6385Y11453D02*
D03*
X4945Y11685D02*
D03*
X5710Y11678D02*
D03*
X5138Y10612D02*
D03*
X4245Y10990D02*
D03*
X4235Y11257D02*
D03*
X5578Y10920D02*
D03*
X5325Y10903D02*
D03*
X5072Y10943D02*
D03*
X5488Y9630D02*
D03*
X6178Y9688D02*
D03*
X6317Y8650D02*
D03*
X5117Y9638D02*
D03*
X5075Y11697D02*
D03*
X5329Y11689D02*
D03*
X4985Y8415D02*
D03*
X4979Y8877D02*
D03*
X5238Y8865D02*
D03*
X5110Y7822D02*
D03*
X5360Y8870D02*
D03*
X5360Y9625D02*
D03*
X6453Y7828D02*
D03*
X5635Y6372D02*
D03*
X5635Y5613D02*
D03*
X5512Y5620D02*
D03*
X5253Y6383D02*
D03*
X5254Y5625D02*
D03*
X5470Y4828D02*
D03*
%TF.MD5,ba6fdb73ee08823aced20a8f51534b96*%
M02*
