%TF.GenerationSoftware,Altium Limited,Altium Designer,19.0.15 (446)*%
G04 Layer_Color=12040119*
%FSLAX42Y42*%
%MOMM*%
%TF.FileFunction,Legend,Top*%
%TF.Part,Single*%
G01*
G75*
%TA.AperFunction,NonConductor*%
%ADD37C,0.60*%
%ADD38C,0.25*%
%ADD39C,0.30*%
%ADD40C,0.20*%
D37*
X5019Y11233D02*
G03*
X5019Y11233I-30J0D01*
G01*
X5325Y5942D02*
G03*
X5325Y5942I-30J0D01*
G01*
X5050Y9188D02*
G03*
X5050Y9188I-30J0D01*
G01*
X5075Y7388D02*
G03*
X5075Y7388I-30J0D01*
G01*
D38*
X4878Y11030D02*
G03*
X4878Y11030I-12J0D01*
G01*
X5185Y5740D02*
G03*
X5185Y5740I-12J0D01*
G01*
X4909Y8985D02*
G03*
X4909Y8985I-12J0D01*
G01*
X4934Y7185D02*
G03*
X4934Y7185I-12J0D01*
G01*
D39*
X4343Y10555D02*
Y10655D01*
X4208Y10555D02*
Y10655D01*
X4312Y11072D02*
Y11172D01*
X4453Y11072D02*
Y11172D01*
X6392Y8878D02*
Y8947D01*
X6243Y8878D02*
Y8947D01*
X6392Y9505D02*
Y9605D01*
X6243Y9505D02*
Y9605D01*
X4467Y9580D02*
Y9680D01*
X4608Y9580D02*
Y9680D01*
X4760Y11760D02*
X4860D01*
X4760Y11900D02*
X4860D01*
X4212Y11902D02*
X4312D01*
X4212Y11762D02*
X4312D01*
X6303Y10625D02*
Y10725D01*
X6437Y10625D02*
Y10725D01*
X5993Y10630D02*
Y10730D01*
X6133Y10630D02*
Y10730D01*
X4492Y10555D02*
Y10655D01*
X4642Y10555D02*
Y10655D01*
X5767Y11133D02*
Y11453D01*
X4892Y11133D02*
Y11453D01*
X5767D01*
X4892Y11133D02*
X5767D01*
X5458Y10680D02*
Y10810D01*
X5558D02*
X5728D01*
X5558Y10680D02*
X5728D01*
X5098Y10685D02*
Y10815D01*
X4828Y10685D02*
X4998D01*
X4828Y10815D02*
X4998D01*
X5815Y8042D02*
X5915D01*
X5815Y7902D02*
X5915D01*
X4293Y7805D02*
Y7885D01*
X4142Y7805D02*
Y7885D01*
X6538Y7545D02*
Y7625D01*
X6387Y7545D02*
Y7625D01*
X5695Y5842D02*
Y6162D01*
X5195Y5842D02*
Y6162D01*
X5695D01*
X5195Y5842D02*
X5695D01*
X5778Y6125D02*
X6057D01*
Y5845D02*
Y6125D01*
X5778Y5845D02*
X6057D01*
X5778D02*
Y6125D01*
X5882Y9355D02*
X6162D01*
Y9075D02*
Y9355D01*
X5882Y9075D02*
X6162D01*
X5882D02*
Y9355D01*
X4135Y8480D02*
X4235D01*
X4135Y8620D02*
X4235D01*
X6535Y6412D02*
Y6512D01*
X6395Y6412D02*
Y6512D01*
X5592Y6660D02*
X5692D01*
X5592Y6520D02*
X5692D01*
X4498Y6666D02*
X4598D01*
X4498Y6806D02*
X4598D01*
X6223Y10047D02*
Y10147D01*
X6088Y10047D02*
Y10147D01*
X4585Y10280D02*
X4685D01*
X4585Y10145D02*
X4685D01*
X5049Y9795D02*
Y9895D01*
X4909Y9795D02*
Y9895D01*
X5115Y10120D02*
X5245D01*
X5115Y10220D02*
Y10390D01*
X5245Y10220D02*
Y10390D01*
X5390Y10127D02*
X5520D01*
X5390Y10227D02*
Y10398D01*
X5520Y10227D02*
Y10398D01*
X5807Y9782D02*
Y9882D01*
X5667Y9782D02*
Y9882D01*
X5565Y8580D02*
Y8660D01*
X5415Y8580D02*
Y8660D01*
X4640Y8620D02*
X4740D01*
X4640Y8480D02*
X4740D01*
X5805Y5300D02*
X5905D01*
X5805Y5435D02*
X5905D01*
X6393Y6997D02*
Y7097D01*
X6533Y6997D02*
Y7097D01*
X6143Y7270D02*
Y7370D01*
X6003Y7270D02*
Y7370D01*
X6085Y4927D02*
X6185D01*
X6085Y5062D02*
X6185D01*
X5797Y9088D02*
Y9407D01*
X4922Y9088D02*
Y9407D01*
X5797D01*
X4922Y9088D02*
X5797D01*
X4085Y7238D02*
Y7518D01*
Y7238D02*
X4365D01*
Y7518D01*
X4085D02*
X4365D01*
X6530Y8030D02*
Y8130D01*
X6390Y8030D02*
Y8130D01*
X4802Y8020D02*
Y8120D01*
X4662Y8020D02*
Y8120D01*
X5823Y7287D02*
Y7607D01*
X4948Y7287D02*
Y7607D01*
X5823D01*
X4948Y7287D02*
X5823D01*
X4938Y5985D02*
Y6065D01*
X5088Y5985D02*
Y6065D01*
X4933Y6805D02*
X5033D01*
X4933Y6665D02*
X5033D01*
X5595Y4857D02*
Y5137D01*
Y4857D02*
X5875D01*
Y5137D01*
X5595D02*
X5875D01*
X5247Y5250D02*
Y5530D01*
Y5250D02*
X5527D01*
Y5530D01*
X5247D02*
X5527D01*
X6292Y5237D02*
X6392D01*
X6292Y5377D02*
X6392D01*
X5390Y4410D02*
Y4490D01*
X5540Y4410D02*
Y4490D01*
X5260Y4338D02*
Y4715D01*
X5145D02*
X5260D01*
X4810D02*
X4925D01*
X4810Y4338D02*
Y4715D01*
X5145Y4265D02*
X5187D01*
X5260Y4338D01*
X4810D02*
X4883Y4265D01*
X4925D01*
X4737Y5292D02*
X4837D01*
X4737Y5437D02*
X4837D01*
X4715Y4510D02*
Y4610D01*
X4575Y4510D02*
Y4610D01*
X5280Y5010D02*
Y5086D01*
X4772D02*
X5280D01*
X4772Y4934D02*
Y5086D01*
Y4934D02*
X5280D01*
Y5010D01*
X4749D02*
X4772D01*
X5280D02*
X5303D01*
X5888Y4188D02*
X6142D01*
X5888D02*
Y4696D01*
X6142D01*
Y4188D02*
Y4696D01*
D40*
X4760Y12340D02*
Y12270D01*
X4795D01*
X4807Y12282D01*
Y12293D01*
X4795Y12305D01*
X4760D01*
X4795D01*
X4807Y12317D01*
Y12328D01*
X4795Y12340D01*
X4760D01*
X4830Y12317D02*
Y12282D01*
X4842Y12270D01*
X4877D01*
Y12317D01*
X4900D02*
Y12270D01*
Y12293D01*
X4912Y12305D01*
X4923Y12317D01*
X4935D01*
X4993Y12247D02*
X5005D01*
X5017Y12258D01*
Y12317D01*
X4982D01*
X4970Y12305D01*
Y12282D01*
X4982Y12270D01*
X5017D01*
X5052D02*
X5075D01*
X5087Y12282D01*
Y12305D01*
X5075Y12317D01*
X5052D01*
X5040Y12305D01*
Y12282D01*
X5052Y12270D01*
X5110D02*
X5145D01*
X5157Y12282D01*
X5145Y12293D01*
X5122D01*
X5110Y12305D01*
X5122Y12317D01*
X5157D01*
X5420Y12280D02*
Y12350D01*
X5443Y12327D01*
X5467Y12350D01*
Y12280D01*
X5502D02*
X5525D01*
X5537Y12292D01*
Y12315D01*
X5525Y12327D01*
X5502D01*
X5490Y12315D01*
Y12292D01*
X5502Y12280D01*
X5560Y12327D02*
Y12292D01*
X5572Y12280D01*
X5607D01*
Y12268D01*
X5595Y12257D01*
X5583D01*
X5607Y12280D02*
Y12327D01*
X5642D02*
X5665D01*
X5677Y12315D01*
Y12280D01*
X5642D01*
X5630Y12292D01*
X5642Y12303D01*
X5677D01*
X5420Y12400D02*
Y12470D01*
X5443Y12447D01*
X5467Y12470D01*
Y12400D01*
X5502D02*
X5525D01*
X5537Y12412D01*
Y12435D01*
X5525Y12447D01*
X5502D01*
X5490Y12435D01*
Y12412D01*
X5502Y12400D01*
X5560Y12447D02*
Y12400D01*
Y12423D01*
X5572Y12435D01*
X5583Y12447D01*
X5595D01*
X5642D02*
X5665D01*
X5677Y12435D01*
Y12400D01*
X5642D01*
X5630Y12412D01*
X5642Y12423D01*
X5677D01*
X5700Y12400D02*
X5723D01*
X5712D01*
Y12470D01*
X5700D01*
X5793Y12400D02*
X5770D01*
X5758Y12412D01*
Y12435D01*
X5770Y12447D01*
X5793D01*
X5805Y12435D01*
Y12423D01*
X5758D01*
X5828Y12400D02*
X5863D01*
X5875Y12412D01*
X5863Y12423D01*
X5840D01*
X5828Y12435D01*
X5840Y12447D01*
X5875D01*
X4787Y12458D02*
X4775Y12470D01*
X4752D01*
X4740Y12458D01*
Y12412D01*
X4752Y12400D01*
X4775D01*
X4787Y12412D01*
Y12435D01*
X4763D01*
X4810Y12447D02*
Y12400D01*
Y12423D01*
X4822Y12435D01*
X4833Y12447D01*
X4845D01*
X4880D02*
Y12412D01*
X4892Y12400D01*
X4927D01*
Y12447D01*
X4950Y12377D02*
Y12447D01*
X4985D01*
X4997Y12435D01*
Y12412D01*
X4985Y12400D01*
X4950D01*
X5032D02*
X5055D01*
X5067Y12412D01*
Y12435D01*
X5055Y12447D01*
X5032D01*
X5020Y12435D01*
Y12412D01*
X5032Y12400D01*
X5160D02*
X5183D01*
X5172D01*
Y12470D01*
X5160Y12458D01*
X5218Y12435D02*
X5265D01*
X5288Y12400D02*
X5311D01*
X5300D01*
Y12470D01*
X5288Y12458D01*
X4155Y10480D02*
X4085D01*
Y10515D01*
X4097Y10527D01*
X4120D01*
X4132Y10515D01*
Y10480D01*
Y10503D02*
X4155Y10527D01*
X4108Y10597D02*
Y10562D01*
X4120Y10550D01*
X4143D01*
X4155Y10562D01*
Y10597D01*
X4143Y10620D02*
X4155Y10632D01*
Y10655D01*
X4143Y10667D01*
X4097D01*
X4085Y10655D01*
Y10632D01*
X4097Y10620D01*
X4108D01*
X4120Y10632D01*
Y10667D01*
X4143Y10690D02*
X4155Y10702D01*
Y10725D01*
X4143Y10737D01*
X4097D01*
X4085Y10725D01*
Y10702D01*
X4097Y10690D01*
X4108D01*
X4120Y10702D01*
Y10737D01*
X4183Y11030D02*
X4113D01*
Y11065D01*
X4124Y11077D01*
X4148D01*
X4159Y11065D01*
Y11030D01*
Y11053D02*
X4183Y11077D01*
X4136Y11147D02*
Y11112D01*
X4148Y11100D01*
X4171D01*
X4183Y11112D01*
Y11147D01*
Y11205D02*
X4113D01*
X4148Y11170D01*
Y11217D01*
X6505Y8838D02*
X6435D01*
Y8872D01*
X6447Y8884D01*
X6470D01*
X6482Y8872D01*
Y8838D01*
Y8861D02*
X6505Y8884D01*
X6458Y8954D02*
Y8919D01*
X6470Y8907D01*
X6493D01*
X6505Y8919D01*
Y8954D01*
Y8977D02*
Y9001D01*
Y8989D01*
X6435D01*
X6447Y8977D01*
X6505Y9478D02*
X6435D01*
Y9512D01*
X6447Y9524D01*
X6470D01*
X6482Y9512D01*
Y9478D01*
Y9501D02*
X6505Y9524D01*
X6458Y9594D02*
Y9559D01*
X6470Y9547D01*
X6493D01*
X6505Y9559D01*
Y9594D01*
Y9664D02*
Y9617D01*
X6458Y9664D01*
X6447D01*
X6435Y9652D01*
Y9629D01*
X6447Y9617D01*
X4395Y9528D02*
X4325D01*
Y9562D01*
X4337Y9574D01*
X4360D01*
X4372Y9562D01*
Y9528D01*
Y9551D02*
X4395Y9574D01*
X4348Y9644D02*
Y9609D01*
X4360Y9597D01*
X4383D01*
X4395Y9609D01*
Y9644D01*
X4337Y9667D02*
X4325Y9679D01*
Y9702D01*
X4337Y9714D01*
X4348D01*
X4360Y9702D01*
Y9691D01*
Y9702D01*
X4372Y9714D01*
X4383D01*
X4395Y9702D01*
Y9679D01*
X4383Y9667D01*
X4705Y11947D02*
Y12017D01*
X4740D01*
X4752Y12006D01*
Y11982D01*
X4740Y11971D01*
X4705D01*
X4728D02*
X4752Y11947D01*
X4822Y11994D02*
X4787D01*
X4775Y11982D01*
Y11959D01*
X4787Y11947D01*
X4822D01*
X4845D02*
X4868D01*
X4857D01*
Y12017D01*
X4845Y12006D01*
X4903D02*
X4915Y12017D01*
X4938D01*
X4950Y12006D01*
Y11994D01*
X4938Y11982D01*
X4950Y11971D01*
Y11959D01*
X4938Y11947D01*
X4915D01*
X4903Y11959D01*
Y11971D01*
X4915Y11982D01*
X4903Y11994D01*
Y12006D01*
X4915Y11982D02*
X4938D01*
X4165Y11957D02*
Y12027D01*
X4200D01*
X4212Y12016D01*
Y11992D01*
X4200Y11981D01*
X4165D01*
X4188D02*
X4212Y11957D01*
X4282Y12004D02*
X4247D01*
X4235Y11992D01*
Y11969D01*
X4247Y11957D01*
X4282D01*
X4305D02*
X4328D01*
X4317D01*
Y12027D01*
X4305Y12016D01*
X4363Y12027D02*
X4410D01*
Y12016D01*
X4363Y11969D01*
Y11957D01*
X6545Y10557D02*
X6475D01*
Y10592D01*
X6487Y10604D01*
X6510D01*
X6522Y10592D01*
Y10557D01*
Y10581D02*
X6545Y10604D01*
X6498Y10674D02*
Y10639D01*
X6510Y10627D01*
X6533D01*
X6545Y10639D01*
Y10674D01*
Y10697D02*
Y10721D01*
Y10709D01*
X6475D01*
X6487Y10697D01*
Y10756D02*
X6475Y10767D01*
Y10791D01*
X6487Y10802D01*
X6533D01*
X6545Y10791D01*
Y10767D01*
X6533Y10756D01*
X6487D01*
X6545Y10826D02*
Y10849D01*
Y10837D01*
X6475D01*
X6487Y10826D01*
X5935Y10515D02*
X5865D01*
Y10550D01*
X5877Y10562D01*
X5900D01*
X5912Y10550D01*
Y10515D01*
Y10538D02*
X5935Y10562D01*
X5888Y10632D02*
Y10597D01*
X5900Y10585D01*
X5923D01*
X5935Y10597D01*
Y10632D01*
Y10655D02*
Y10678D01*
Y10667D01*
X5865D01*
X5877Y10655D01*
Y10713D02*
X5865Y10725D01*
Y10748D01*
X5877Y10760D01*
X5923D01*
X5935Y10748D01*
Y10725D01*
X5923Y10713D01*
X5877D01*
X4755Y10515D02*
X4685D01*
Y10550D01*
X4697Y10562D01*
X4720D01*
X4732Y10550D01*
Y10515D01*
Y10538D02*
X4755Y10562D01*
X4708Y10632D02*
Y10597D01*
X4720Y10585D01*
X4743D01*
X4755Y10597D01*
Y10632D01*
X4743Y10655D02*
X4755Y10667D01*
Y10690D01*
X4743Y10702D01*
X4697D01*
X4685Y10690D01*
Y10667D01*
X4697Y10655D01*
X4708D01*
X4720Y10667D01*
Y10702D01*
X4754Y11273D02*
X4812D01*
X4824Y11284D01*
Y11307D01*
X4812Y11319D01*
X4754D01*
X4766Y11342D02*
X4754Y11354D01*
Y11377D01*
X4766Y11389D01*
X4777D01*
X4789Y11377D01*
Y11366D01*
Y11377D01*
X4801Y11389D01*
X4812D01*
X4824Y11377D01*
Y11354D01*
X4812Y11342D01*
X5555Y10637D02*
Y10568D01*
X5590D01*
X5602Y10579D01*
Y10626D01*
X5590Y10637D01*
X5555D01*
X5672Y10614D02*
X5637D01*
X5625Y10602D01*
Y10579D01*
X5637Y10568D01*
X5672D01*
X5730D02*
Y10637D01*
X5695Y10602D01*
X5742D01*
X4855Y10647D02*
Y10578D01*
X4890D01*
X4902Y10589D01*
Y10636D01*
X4890Y10647D01*
X4855D01*
X4972Y10624D02*
X4937D01*
X4925Y10612D01*
Y10589D01*
X4937Y10578D01*
X4972D01*
X4995Y10636D02*
X5007Y10647D01*
X5030D01*
X5042Y10636D01*
Y10624D01*
X5030Y10612D01*
X5018D01*
X5030D01*
X5042Y10601D01*
Y10589D01*
X5030Y10578D01*
X5007D01*
X4995Y10589D01*
X5817Y8082D02*
Y8152D01*
X5852D01*
X5864Y8141D01*
Y8117D01*
X5852Y8106D01*
X5817D01*
X5841D02*
X5864Y8082D01*
X5887Y8094D02*
X5899Y8082D01*
X5922D01*
X5934Y8094D01*
Y8141D01*
X5922Y8152D01*
X5899D01*
X5887Y8141D01*
Y8129D01*
X5899Y8117D01*
X5934D01*
X4177Y8118D02*
X4165Y8130D01*
X4142D01*
X4130Y8118D01*
Y8072D01*
X4142Y8060D01*
X4165D01*
X4177Y8072D01*
X4212Y8060D02*
Y8118D01*
Y8095D01*
X4200D01*
X4223D01*
X4212D01*
Y8118D01*
X4223Y8130D01*
X4305D02*
X4258D01*
Y8095D01*
X4282Y8107D01*
X4293D01*
X4305Y8095D01*
Y8072D01*
X4293Y8060D01*
X4270D01*
X4258Y8072D01*
X6284Y7594D02*
X6273Y7582D01*
Y7559D01*
X6284Y7547D01*
X6331D01*
X6342Y7559D01*
Y7582D01*
X6331Y7594D01*
X6342Y7629D02*
X6284D01*
X6308D01*
Y7617D01*
Y7641D01*
Y7629D01*
X6284D01*
X6273Y7641D01*
X6284Y7676D02*
X6273Y7687D01*
Y7711D01*
X6284Y7722D01*
X6296D01*
X6308Y7711D01*
Y7699D01*
Y7711D01*
X6319Y7722D01*
X6331D01*
X6342Y7711D01*
Y7687D01*
X6331Y7676D01*
X5045Y5625D02*
X5103D01*
X5115Y5637D01*
Y5660D01*
X5103Y5672D01*
X5045D01*
X5057Y5695D02*
X5045Y5707D01*
Y5730D01*
X5057Y5742D01*
X5103D01*
X5115Y5730D01*
Y5707D01*
X5103Y5695D01*
X5057D01*
X5897Y5805D02*
X5873D01*
X5885D01*
Y5747D01*
X5873Y5735D01*
X5862D01*
X5850Y5747D01*
X5920Y5793D02*
X5932Y5805D01*
X5955D01*
X5967Y5793D01*
Y5782D01*
X5955Y5770D01*
X5943D01*
X5955D01*
X5967Y5758D01*
Y5747D01*
X5955Y5735D01*
X5932D01*
X5920Y5747D01*
X6647Y6955D02*
X6578D01*
Y6990D01*
X6589Y7002D01*
X6613D01*
X6624Y6990D01*
Y6955D01*
Y6978D02*
X6647Y7002D01*
Y7025D02*
Y7048D01*
Y7037D01*
X6578D01*
X6589Y7025D01*
Y7083D02*
X6578Y7095D01*
Y7118D01*
X6589Y7130D01*
X6601D01*
X6613Y7118D01*
Y7107D01*
Y7118D01*
X6624Y7130D01*
X6636D01*
X6647Y7118D01*
Y7095D01*
X6636Y7083D01*
X6372Y6686D02*
Y6756D01*
X6407D01*
X6418Y6744D01*
Y6721D01*
X6407Y6709D01*
X6372D01*
X6395D02*
X6418Y6686D01*
X6442D02*
X6465D01*
X6453D01*
Y6756D01*
X6442Y6744D01*
X6547Y6686D02*
X6500D01*
X6547Y6732D01*
Y6744D01*
X6535Y6756D01*
X6512D01*
X6500Y6744D01*
X6205Y4329D02*
X6252D01*
X6275Y4352D01*
X6252Y4376D01*
X6205D01*
X6228Y4446D02*
Y4411D01*
X6240Y4399D01*
X6263D01*
X6275Y4411D01*
Y4446D01*
X6228Y4516D02*
Y4481D01*
X6240Y4469D01*
X6263D01*
X6275Y4481D01*
Y4516D01*
X4820Y9247D02*
X4878D01*
X4890Y9259D01*
Y9282D01*
X4878Y9294D01*
X4820D01*
X4890Y9364D02*
Y9317D01*
X4843Y9364D01*
X4831D01*
X4820Y9352D01*
Y9329D01*
X4831Y9317D01*
X4825Y7378D02*
X4883D01*
X4895Y7389D01*
Y7412D01*
X4883Y7424D01*
X4825D01*
X4895Y7447D02*
Y7471D01*
Y7459D01*
X4825D01*
X4837Y7447D01*
X4077Y8677D02*
Y8747D01*
X4112D01*
X4124Y8736D01*
Y8712D01*
X4112Y8701D01*
X4077D01*
X4100D02*
X4124Y8677D01*
X4194Y8747D02*
Y8677D01*
X4159D01*
X4147Y8689D01*
Y8712D01*
X4159Y8724D01*
X4194D01*
X4217Y8654D02*
Y8724D01*
X4252D01*
X4264Y8712D01*
Y8689D01*
X4252Y8677D01*
X4217D01*
X4334D02*
X4287D01*
X4334Y8724D01*
Y8736D01*
X4322Y8747D01*
X4299D01*
X4287Y8736D01*
X4570Y8662D02*
Y8732D01*
X4605D01*
X4617Y8721D01*
Y8697D01*
X4605Y8686D01*
X4570D01*
X4593D02*
X4617Y8662D01*
X4687Y8732D02*
Y8662D01*
X4652D01*
X4640Y8674D01*
Y8697D01*
X4652Y8709D01*
X4687D01*
X4710Y8639D02*
Y8709D01*
X4745D01*
X4757Y8697D01*
Y8674D01*
X4745Y8662D01*
X4710D01*
X4780D02*
X4803D01*
X4792D01*
Y8732D01*
X4780Y8721D01*
X4515Y10028D02*
Y10097D01*
X4550D01*
X4562Y10086D01*
Y10062D01*
X4550Y10051D01*
X4515D01*
X4538D02*
X4562Y10028D01*
X4632Y10074D02*
X4597D01*
X4585Y10062D01*
Y10039D01*
X4597Y10028D01*
X4632D01*
X4655Y10086D02*
X4667Y10097D01*
X4690D01*
X4702Y10086D01*
Y10074D01*
X4690Y10062D01*
X4702Y10051D01*
Y10039D01*
X4690Y10028D01*
X4667D01*
X4655Y10039D01*
Y10051D01*
X4667Y10062D01*
X4655Y10074D01*
Y10086D01*
X4667Y10062D02*
X4690D01*
X4725Y10086D02*
X4737Y10097D01*
X4760D01*
X4772Y10086D01*
Y10074D01*
X4760Y10062D01*
X4772Y10051D01*
Y10039D01*
X4760Y10028D01*
X4737D01*
X4725Y10039D01*
Y10051D01*
X4737Y10062D01*
X4725Y10074D01*
Y10086D01*
X4737Y10062D02*
X4760D01*
X6355Y9968D02*
X6285D01*
Y10002D01*
X6297Y10014D01*
X6320D01*
X6332Y10002D01*
Y9968D01*
Y9991D02*
X6355Y10014D01*
X6308Y10084D02*
Y10049D01*
X6320Y10037D01*
X6343D01*
X6355Y10049D01*
Y10084D01*
X6285Y10107D02*
Y10154D01*
X6297D01*
X6343Y10107D01*
X6355D01*
X6285Y10177D02*
Y10224D01*
X6297D01*
X6343Y10177D01*
X6355D01*
X4845Y9747D02*
X4775D01*
Y9782D01*
X4787Y9794D01*
X4810D01*
X4822Y9782D01*
Y9747D01*
Y9771D02*
X4845Y9794D01*
X4798Y9864D02*
Y9829D01*
X4810Y9817D01*
X4833D01*
X4845Y9829D01*
Y9864D01*
X4787Y9887D02*
X4775Y9899D01*
Y9922D01*
X4787Y9934D01*
X4798D01*
X4810Y9922D01*
X4822Y9934D01*
X4833D01*
X4845Y9922D01*
Y9899D01*
X4833Y9887D01*
X4822D01*
X4810Y9899D01*
X4798Y9887D01*
X4787D01*
X4810Y9899D02*
Y9922D01*
X5935Y9738D02*
X5865D01*
Y9772D01*
X5877Y9784D01*
X5900D01*
X5912Y9772D01*
Y9738D01*
Y9761D02*
X5935Y9784D01*
X5888Y9854D02*
Y9819D01*
X5900Y9807D01*
X5923D01*
X5935Y9819D01*
Y9854D01*
X5865Y9877D02*
Y9924D01*
X5877D01*
X5923Y9877D01*
X5935D01*
X4667Y8285D02*
Y8355D01*
X4702D01*
X4714Y8343D01*
Y8320D01*
X4702Y8308D01*
X4667D01*
X4691D02*
X4714Y8285D01*
X4737D02*
X4761D01*
X4749D01*
Y8355D01*
X4737Y8343D01*
X4796Y8285D02*
X4819D01*
X4807D01*
Y8355D01*
X4796Y8343D01*
X6334Y7988D02*
X6264D01*
Y8022D01*
X6276Y8034D01*
X6299D01*
X6311Y8022D01*
Y7988D01*
Y8011D02*
X6334Y8034D01*
Y8057D02*
Y8081D01*
Y8069D01*
X6264D01*
X6276Y8057D01*
Y8116D02*
X6264Y8127D01*
Y8151D01*
X6276Y8162D01*
X6323D01*
X6334Y8151D01*
Y8127D01*
X6323Y8116D01*
X6276D01*
X6020Y7530D02*
Y7600D01*
X6055D01*
X6067Y7588D01*
Y7565D01*
X6055Y7553D01*
X6020D01*
X6043D02*
X6067Y7530D01*
X6090Y7588D02*
X6102Y7600D01*
X6125D01*
X6137Y7588D01*
Y7577D01*
X6125Y7565D01*
X6137Y7553D01*
Y7542D01*
X6125Y7530D01*
X6102D01*
X6090Y7542D01*
Y7553D01*
X6102Y7565D01*
X6090Y7577D01*
Y7588D01*
X6102Y7565D02*
X6125D01*
X5608Y6703D02*
Y6772D01*
X5642D01*
X5654Y6761D01*
Y6737D01*
X5642Y6726D01*
X5608D01*
X5631D02*
X5654Y6703D01*
X5677Y6772D02*
X5724D01*
Y6761D01*
X5677Y6714D01*
Y6703D01*
X4492Y6860D02*
Y6930D01*
X4527D01*
X4539Y6918D01*
Y6895D01*
X4527Y6883D01*
X4492D01*
X4515D02*
X4539Y6860D01*
X4609Y6930D02*
X4585Y6918D01*
X4562Y6895D01*
Y6872D01*
X4574Y6860D01*
X4597D01*
X4609Y6872D01*
Y6883D01*
X4597Y6895D01*
X4562D01*
X4936Y6857D02*
Y6927D01*
X4971D01*
X4983Y6916D01*
Y6892D01*
X4971Y6881D01*
X4936D01*
X4959D02*
X4983Y6857D01*
X5052Y6927D02*
X5006D01*
Y6892D01*
X5029Y6904D01*
X5041D01*
X5052Y6892D01*
Y6869D01*
X5041Y6857D01*
X5017D01*
X5006Y6869D01*
X6055Y5145D02*
Y5215D01*
X6090D01*
X6102Y5203D01*
Y5180D01*
X6090Y5168D01*
X6055D01*
X6078D02*
X6102Y5145D01*
X6125Y5203D02*
X6137Y5215D01*
X6160D01*
X6172Y5203D01*
Y5192D01*
X6160Y5180D01*
X6148D01*
X6160D01*
X6172Y5168D01*
Y5157D01*
X6160Y5145D01*
X6137D01*
X6125Y5157D01*
X5775Y5488D02*
Y5557D01*
X5810D01*
X5822Y5546D01*
Y5522D01*
X5810Y5511D01*
X5775D01*
X5798D02*
X5822Y5488D01*
X5892D02*
X5845D01*
X5892Y5534D01*
Y5546D01*
X5880Y5557D01*
X5857D01*
X5845Y5546D01*
X6625Y5225D02*
X6555D01*
Y5260D01*
X6567Y5271D01*
X6590D01*
X6602Y5260D01*
Y5225D01*
Y5248D02*
X6625Y5271D01*
X6567Y5295D02*
X6555Y5306D01*
Y5330D01*
X6567Y5341D01*
X6613D01*
X6625Y5330D01*
Y5306D01*
X6613Y5295D01*
X6567D01*
X6625Y5411D02*
Y5365D01*
X6578Y5411D01*
X6567D01*
X6555Y5400D01*
Y5376D01*
X6567Y5365D01*
X4547Y5322D02*
X4478D01*
Y5357D01*
X4489Y5369D01*
X4513D01*
X4524Y5357D01*
Y5322D01*
Y5346D02*
X4547Y5369D01*
Y5392D02*
Y5416D01*
Y5404D01*
X4478D01*
X4489Y5392D01*
X4512Y4458D02*
X4443D01*
Y4492D01*
X4454Y4504D01*
X4478D01*
X4489Y4492D01*
Y4458D01*
Y4481D02*
X4512Y4504D01*
X4454Y4527D02*
X4443Y4539D01*
Y4562D01*
X4454Y4574D01*
X4501D01*
X4512Y4562D01*
Y4539D01*
X4501Y4527D01*
X4454D01*
X4512Y4597D02*
Y4621D01*
Y4609D01*
X4443D01*
X4454Y4597D01*
X6002Y9027D02*
X5978D01*
X5990D01*
Y8969D01*
X5978Y8957D01*
X5967D01*
X5955Y8969D01*
X6072Y9027D02*
X6025D01*
Y8992D01*
X6048Y9004D01*
X6060D01*
X6072Y8992D01*
Y8969D01*
X6060Y8957D01*
X6037D01*
X6025Y8969D01*
X4202Y7177D02*
X4178D01*
X4190D01*
Y7119D01*
X4178Y7107D01*
X4167D01*
X4155Y7119D01*
X4260Y7107D02*
Y7177D01*
X4225Y7142D01*
X4272D01*
X5139Y5490D02*
X5116D01*
X5127D01*
Y5432D01*
X5116Y5420D01*
X5104D01*
X5092Y5432D01*
X5209Y5420D02*
X5162D01*
X5209Y5467D01*
Y5478D01*
X5197Y5490D01*
X5174D01*
X5162Y5478D01*
X5514Y5167D02*
X5491D01*
X5502D01*
Y5109D01*
X5491Y5097D01*
X5479D01*
X5467Y5109D01*
X5537Y5097D02*
X5561D01*
X5549D01*
Y5167D01*
X5537Y5156D01*
X4453Y4904D02*
Y4858D01*
X4488D01*
Y4881D01*
Y4858D01*
X4522D01*
X4464Y4974D02*
X4453Y4962D01*
Y4939D01*
X4464Y4927D01*
X4476D01*
X4488Y4939D01*
Y4962D01*
X4499Y4974D01*
X4511D01*
X4522Y4962D01*
Y4939D01*
X4511Y4927D01*
X4522Y4997D02*
X4453D01*
Y5032D01*
X4464Y5044D01*
X4488D01*
X4499Y5032D01*
Y4997D01*
Y5021D02*
X4522Y5044D01*
X4995Y10199D02*
X5065D01*
Y10234D01*
X5053Y10246D01*
X5007D01*
X4995Y10234D01*
Y10199D01*
X5018Y10316D02*
Y10281D01*
X5030Y10269D01*
X5053D01*
X5065Y10281D01*
Y10316D01*
Y10386D02*
Y10339D01*
X5018Y10386D01*
X5007D01*
X4995Y10374D01*
Y10351D01*
X5007Y10339D01*
X5566Y10230D02*
X5635D01*
Y10265D01*
X5624Y10277D01*
X5577D01*
X5566Y10265D01*
Y10230D01*
X5589Y10347D02*
Y10312D01*
X5601Y10300D01*
X5624D01*
X5635Y10312D01*
Y10347D01*
Y10370D02*
Y10393D01*
Y10382D01*
X5566D01*
X5577Y10370D01*
X5087Y7982D02*
X5075Y7970D01*
Y7947D01*
X5087Y7935D01*
X5133D01*
X5145Y7947D01*
Y7970D01*
X5133Y7982D01*
X5145Y8017D02*
X5087D01*
X5110D01*
Y8005D01*
Y8028D01*
Y8017D01*
X5087D01*
X5075Y8028D01*
X5145Y8098D02*
X5075D01*
X5110Y8063D01*
Y8110D01*
X5472Y8248D02*
X5460Y8260D01*
X5437D01*
X5425Y8248D01*
Y8202D01*
X5437Y8190D01*
X5460D01*
X5472Y8202D01*
X5507Y8190D02*
Y8248D01*
Y8225D01*
X5495D01*
X5518D01*
X5507D01*
Y8248D01*
X5518Y8260D01*
X5600Y8190D02*
X5553D01*
X5600Y8237D01*
Y8248D01*
X5588Y8260D01*
X5565D01*
X5553Y8248D01*
X5931Y6741D02*
X5919Y6753D01*
X5896D01*
X5885Y6741D01*
Y6695D01*
X5896Y6683D01*
X5919D01*
X5931Y6695D01*
X5966Y6683D02*
Y6741D01*
Y6718D01*
X5954D01*
X5978D01*
X5966D01*
Y6741D01*
X5978Y6753D01*
X6013Y6683D02*
X6036D01*
X6024D01*
Y6753D01*
X6013Y6741D01*
X5637Y8564D02*
X5625Y8552D01*
Y8529D01*
X5637Y8518D01*
X5683D01*
X5695Y8529D01*
Y8552D01*
X5683Y8564D01*
X5625Y8634D02*
X5695D01*
Y8599D01*
X5683Y8587D01*
X5660D01*
X5648Y8599D01*
Y8634D01*
X5718Y8657D02*
X5648D01*
Y8692D01*
X5660Y8704D01*
X5683D01*
X5695Y8692D01*
Y8657D01*
X4944Y6308D02*
X4932Y6320D01*
X4909D01*
X4897Y6308D01*
Y6262D01*
X4909Y6250D01*
X4932D01*
X4944Y6262D01*
X5014Y6320D02*
Y6250D01*
X4979D01*
X4967Y6262D01*
Y6285D01*
X4979Y6297D01*
X5014D01*
X5049D02*
X5072D01*
X5084Y6285D01*
Y6250D01*
X5049D01*
X5037Y6262D01*
X5049Y6273D01*
X5084D01*
X5154Y6250D02*
X5107D01*
X5154Y6297D01*
Y6308D01*
X5142Y6320D01*
X5119D01*
X5107Y6308D01*
X4674D02*
X4662Y6320D01*
X4639D01*
X4628Y6308D01*
Y6262D01*
X4639Y6250D01*
X4662D01*
X4674Y6262D01*
X4744Y6320D02*
Y6250D01*
X4709D01*
X4697Y6262D01*
Y6285D01*
X4709Y6297D01*
X4744D01*
X4779D02*
X4802D01*
X4814Y6285D01*
Y6250D01*
X4779D01*
X4767Y6262D01*
X4779Y6273D01*
X4814D01*
X4837Y6250D02*
X4861D01*
X4849D01*
Y6320D01*
X4837Y6308D01*
X5204Y4831D02*
X5192Y4842D01*
X5169D01*
X5158Y4831D01*
Y4784D01*
X5169Y4772D01*
X5192D01*
X5204Y4784D01*
X5274Y4842D02*
Y4772D01*
X5239D01*
X5227Y4784D01*
Y4807D01*
X5239Y4819D01*
X5274D01*
X5297Y4831D02*
X5309Y4842D01*
X5332D01*
X5344Y4831D01*
Y4819D01*
X5332Y4807D01*
X5321D01*
X5332D01*
X5344Y4796D01*
Y4784D01*
X5332Y4772D01*
X5309D01*
X5297Y4784D01*
X5419Y4733D02*
X5407Y4745D01*
X5384D01*
X5372Y4733D01*
Y4687D01*
X5384Y4675D01*
X5407D01*
X5419Y4687D01*
X5489Y4745D02*
Y4675D01*
X5454D01*
X5442Y4687D01*
Y4710D01*
X5454Y4722D01*
X5489D01*
X5559Y4675D02*
X5512D01*
X5559Y4722D01*
Y4733D01*
X5547Y4745D01*
X5524D01*
X5512Y4733D01*
X5689Y4627D02*
X5677Y4639D01*
X5654D01*
X5642Y4627D01*
Y4581D01*
X5654Y4569D01*
X5677D01*
X5689Y4581D01*
X5759Y4639D02*
Y4569D01*
X5724D01*
X5712Y4581D01*
Y4604D01*
X5724Y4616D01*
X5759D01*
X5782Y4569D02*
X5806D01*
X5794D01*
Y4639D01*
X5782Y4627D01*
%TF.MD5,0dfe559e55a518df7d9329b9846aad04*%
M02*
