%TF.GenerationSoftware,Altium Limited,Altium Designer,19.0.15 (446)*%
G04 Layer_Color=255*
%FSLAX42Y42*%
%MOMM*%
%TF.FileFunction,Pads,Bot*%
%TF.Part,Single*%
G01*
G75*
%TA.AperFunction,SMDPad,CuDef*%
%ADD10R,1.55X0.90*%
%ADD11R,1.60X0.90*%
%ADD12R,1.70X1.10*%
%ADD14R,0.90X1.60*%
%ADD19R,0.45X0.59*%
%TA.AperFunction,ComponentPad*%
%ADD24R,1.50X1.50*%
%ADD25C,1.40*%
%ADD26R,1.50X1.50*%
%ADD27C,1.50*%
%TA.AperFunction,ConnectorPad*%
%ADD30R,2.50X1.20*%
%TA.AperFunction,SMDPad,CuDef*%
%ADD31R,1.65X1.10*%
%ADD32R,1.50X1.40*%
%ADD33R,1.15X1.45*%
%ADD34R,0.60X0.60*%
G04:AMPARAMS|DCode=35|XSize=0.6mm|YSize=1.45mm|CornerRadius=0.05mm|HoleSize=0mm|Usage=FLASHONLY|Rotation=270.000|XOffset=0mm|YOffset=0mm|HoleType=Round|Shape=RoundedRectangle|*
%AMROUNDEDRECTD35*
21,1,0.60,1.35,0,0,270.0*
21,1,0.50,1.45,0,0,270.0*
1,1,0.10,-0.67,-0.25*
1,1,0.10,-0.67,0.25*
1,1,0.10,0.67,0.25*
1,1,0.10,0.67,-0.25*
%
%ADD35ROUNDEDRECTD35*%
%ADD36R,1.55X1.90*%
D10*
X6000Y11425D02*
D03*
Y11160D02*
D03*
D11*
X6600Y10860D02*
D03*
Y11130D02*
D03*
D12*
X4617Y11343D02*
D03*
Y11612D02*
D03*
D14*
X5980Y11822D02*
D03*
X5710D02*
D03*
D19*
X6250Y11612D02*
D03*
Y11823D02*
D03*
D24*
X4300Y11492D02*
D03*
X5917Y5985D02*
D03*
X4595Y7365D02*
D03*
X6022Y9215D02*
D03*
X4225Y7378D02*
D03*
X5735Y4997D02*
D03*
X5388Y5390D02*
D03*
D25*
X5407Y5010D02*
D03*
X4645D02*
D03*
D26*
X6015Y4569D02*
D03*
D27*
Y4315D02*
D03*
D30*
X6610Y8640D02*
D03*
Y8390D02*
D03*
Y8140D02*
D03*
D31*
X5953Y8055D02*
D03*
Y7770D02*
D03*
X6593Y11445D02*
D03*
Y11730D02*
D03*
X5255Y6162D02*
D03*
Y5878D02*
D03*
D32*
X5470Y11445D02*
D03*
Y11255D02*
D03*
X5485Y9340D02*
D03*
Y9150D02*
D03*
X6443Y7512D02*
D03*
Y7322D02*
D03*
D33*
X5185Y11245D02*
D03*
Y11475D02*
D03*
X5200Y9125D02*
D03*
Y9355D02*
D03*
X6115Y7297D02*
D03*
Y7528D02*
D03*
D34*
X4983Y8550D02*
D03*
Y8770D02*
D03*
D35*
X5615Y7865D02*
D03*
Y7739D02*
D03*
Y7611D02*
D03*
Y7485D02*
D03*
Y7357D02*
D03*
Y7231D02*
D03*
Y7104D02*
D03*
Y6976D02*
D03*
X4910Y7865D02*
D03*
Y7739D02*
D03*
Y7611D02*
D03*
Y7485D02*
D03*
Y7357D02*
D03*
Y7231D02*
D03*
Y7104D02*
D03*
Y6976D02*
D03*
D36*
X4565Y7740D02*
D03*
X4270D02*
D03*
%TF.MD5,d1bd54d1b1ff4816861cb1fabc439c34*%
M02*
