%TF.GenerationSoftware,Altium Limited,Altium Designer,19.0.15 (446)*%
G04 Layer_Physical_Order=2*
G04 Layer_Color=16711680*
%FSLAX42Y42*%
%MOMM*%
%TF.FileFunction,Copper,L2,Bot,Signal*%
%TF.Part,Single*%
G01*
G75*
%TA.AperFunction,SMDPad,CuDef*%
%ADD10R,1.55X0.90*%
%ADD11R,1.60X0.90*%
%ADD12R,1.70X1.10*%
%ADD14R,0.90X1.60*%
%ADD19R,0.45X0.59*%
%TA.AperFunction,Conductor*%
%ADD23C,0.30*%
%TA.AperFunction,ComponentPad*%
%ADD24R,1.50X1.50*%
%ADD25C,1.40*%
%ADD26R,1.50X1.50*%
%ADD27C,1.50*%
%TA.AperFunction,ViaPad*%
%ADD28C,3.30*%
%ADD29C,0.70*%
%TA.AperFunction,ConnectorPad*%
%ADD30R,2.50X1.20*%
%TA.AperFunction,SMDPad,CuDef*%
%ADD31R,1.65X1.10*%
%ADD32R,1.50X1.40*%
%ADD33R,1.15X1.45*%
%ADD34R,0.60X0.60*%
G04:AMPARAMS|DCode=35|XSize=0.6mm|YSize=1.45mm|CornerRadius=0.05mm|HoleSize=0mm|Usage=FLASHONLY|Rotation=270.000|XOffset=0mm|YOffset=0mm|HoleType=Round|Shape=RoundedRectangle|*
%AMROUNDEDRECTD35*
21,1,0.60,1.35,0,0,270.0*
21,1,0.50,1.45,0,0,270.0*
1,1,0.10,-0.67,-0.25*
1,1,0.10,-0.67,0.25*
1,1,0.10,0.67,0.25*
1,1,0.10,0.67,-0.25*
%
%ADD35ROUNDEDRECTD35*%
%ADD36R,1.55X1.90*%
G36*
X6650Y12650D02*
X6800Y12500D01*
Y4160D01*
X6640Y4000D01*
X4060D01*
X3900Y4160D01*
X3900Y12490D01*
X4060Y12650D01*
X6650Y12650D01*
D02*
G37*
%LPC*%
G36*
X6550Y12591D02*
X6513Y12587D01*
X6477Y12576D01*
X6444Y12559D01*
X6415Y12535D01*
X6391Y12506D01*
X6374Y12473D01*
X6363Y12437D01*
X6359Y12400D01*
X6363Y12363D01*
X6374Y12327D01*
X6391Y12294D01*
X6415Y12265D01*
X6444Y12241D01*
X6477Y12224D01*
X6513Y12213D01*
X6550Y12209D01*
X6587Y12213D01*
X6623Y12224D01*
X6656Y12241D01*
X6685Y12265D01*
X6709Y12294D01*
X6726Y12327D01*
X6737Y12363D01*
X6741Y12400D01*
X6737Y12437D01*
X6726Y12473D01*
X6709Y12506D01*
X6685Y12535D01*
X6656Y12559D01*
X6623Y12576D01*
X6587Y12587D01*
X6550Y12591D01*
D02*
G37*
G36*
X4150D02*
X4113Y12587D01*
X4077Y12576D01*
X4044Y12559D01*
X4015Y12535D01*
X3991Y12506D01*
X3974Y12473D01*
X3963Y12437D01*
X3959Y12400D01*
X3963Y12363D01*
X3974Y12327D01*
X3991Y12294D01*
X4015Y12265D01*
X4044Y12241D01*
X4077Y12224D01*
X4113Y12213D01*
X4150Y12209D01*
X4187Y12213D01*
X4223Y12224D01*
X4256Y12241D01*
X4285Y12265D01*
X4309Y12294D01*
X4326Y12327D01*
X4337Y12363D01*
X4341Y12400D01*
X4337Y12437D01*
X4326Y12473D01*
X4309Y12506D01*
X4285Y12535D01*
X4256Y12559D01*
X4223Y12576D01*
X4187Y12587D01*
X4150Y12591D01*
D02*
G37*
G36*
X6050Y11927D02*
X5910D01*
Y11717D01*
X5939D01*
Y11495D01*
X5897D01*
Y11355D01*
X6103D01*
Y11495D01*
X6021D01*
Y11717D01*
X6050D01*
Y11782D01*
X6202D01*
Y11769D01*
X6297D01*
Y11878D01*
X6202D01*
Y11864D01*
X6050D01*
Y11927D01*
D02*
G37*
G36*
X5075Y11759D02*
X5052Y11754D01*
X5032Y11741D01*
X5018Y11721D01*
X5015Y11705D01*
X5002D01*
X5002Y11708D01*
X4988Y11728D01*
X4968Y11742D01*
X4945Y11746D01*
X4922Y11742D01*
X4902Y11728D01*
X4888Y11708D01*
X4884Y11685D01*
X4884Y11682D01*
X4736Y11533D01*
X4400D01*
Y11592D01*
X4200D01*
Y11450D01*
X4044Y11294D01*
X4035Y11281D01*
X4032Y11265D01*
X4032Y11265D01*
Y8855D01*
X4032Y8855D01*
X4035Y8839D01*
X4044Y8826D01*
X4599Y8271D01*
X4599Y8271D01*
X4612Y8262D01*
X4628Y8259D01*
X4628Y8259D01*
X4850D01*
X4852Y8257D01*
X4872Y8243D01*
X4895Y8239D01*
X4918Y8243D01*
X4938Y8257D01*
X4952Y8277D01*
X4956Y8300D01*
X4952Y8323D01*
X4938Y8343D01*
X4918Y8357D01*
X4895Y8361D01*
X4872Y8357D01*
X4852Y8343D01*
X4850Y8341D01*
X4644D01*
X4113Y8872D01*
Y10859D01*
X4126Y10864D01*
X4409Y10581D01*
X4422Y10572D01*
X4438Y10569D01*
X4438Y10569D01*
X5094D01*
X5114Y10556D01*
X5138Y10551D01*
X5161Y10556D01*
X5181Y10569D01*
X5194Y10589D01*
X5199Y10612D01*
X5194Y10636D01*
X5181Y10656D01*
X5161Y10669D01*
X5138Y10674D01*
X5114Y10669D01*
X5094Y10656D01*
X5091Y10651D01*
X4454D01*
X4186Y10919D01*
Y10948D01*
X4198Y10952D01*
X4202Y10947D01*
X4222Y10933D01*
X4245Y10929D01*
X4268Y10933D01*
X4288Y10947D01*
X4290Y10949D01*
X4997D01*
X5013Y10933D01*
X5016Y10919D01*
X5029Y10899D01*
X5049Y10886D01*
X5072Y10881D01*
X5096Y10886D01*
X5116Y10899D01*
X5129Y10919D01*
X5134Y10943D01*
X5129Y10966D01*
X5116Y10986D01*
X5096Y10999D01*
X5072Y11004D01*
X5061Y11001D01*
X5043Y11019D01*
X5030Y11028D01*
X5014Y11031D01*
X5014Y11031D01*
X4290D01*
X4288Y11033D01*
X4268Y11047D01*
X4245Y11051D01*
X4222Y11047D01*
X4202Y11033D01*
X4198Y11028D01*
X4186Y11032D01*
Y11151D01*
X4232Y11197D01*
X4235Y11196D01*
X4258Y11201D01*
X4278Y11214D01*
X4292Y11234D01*
X4296Y11257D01*
X4292Y11281D01*
X4278Y11301D01*
X4258Y11314D01*
X4235Y11319D01*
X4212Y11314D01*
X4192Y11301D01*
X4178Y11281D01*
X4174Y11257D01*
X4174Y11255D01*
X4126Y11206D01*
X4113Y11211D01*
Y11248D01*
X4258Y11392D01*
X4400D01*
Y11452D01*
X4752D01*
X4752Y11452D01*
X4768Y11455D01*
X4781Y11464D01*
X4942Y11624D01*
X4945Y11624D01*
X4968Y11628D01*
X4988Y11642D01*
X5002Y11662D01*
X5005Y11678D01*
X5018D01*
X5018Y11674D01*
X5032Y11654D01*
X5052Y11641D01*
X5075Y11636D01*
X5098Y11641D01*
X5118Y11654D01*
X5132Y11674D01*
X5136Y11697D01*
X5132Y11721D01*
X5118Y11741D01*
X5098Y11754D01*
X5075Y11759D01*
D02*
G37*
G36*
X5780Y11927D02*
X5640D01*
Y11717D01*
X5652D01*
X5658Y11706D01*
X5654Y11701D01*
X5649Y11678D01*
X5654Y11654D01*
X5667Y11634D01*
X5687Y11621D01*
X5710Y11616D01*
X5734Y11621D01*
X5754Y11634D01*
X5767Y11654D01*
X5772Y11678D01*
X5767Y11701D01*
X5763Y11706D01*
X5769Y11717D01*
X5780D01*
Y11927D01*
D02*
G37*
G36*
X6700Y11525D02*
X6485D01*
Y11493D01*
X6430D01*
X6428Y11496D01*
X6408Y11509D01*
X6385Y11514D01*
X6362Y11509D01*
X6342Y11496D01*
X6328Y11476D01*
X6324Y11453D01*
X6328Y11429D01*
X6342Y11409D01*
X6362Y11396D01*
X6385Y11391D01*
X6408Y11396D01*
X6428Y11409D01*
X6430Y11412D01*
X6485D01*
Y11365D01*
X6552D01*
Y11200D01*
X6495D01*
Y11069D01*
X6415D01*
X6413Y11071D01*
X6393Y11084D01*
X6370Y11089D01*
X6367Y11088D01*
X6266Y11189D01*
X6253Y11198D01*
X6238Y11201D01*
X6238Y11201D01*
X6103D01*
Y11230D01*
X5897D01*
Y11090D01*
X6103D01*
Y11119D01*
X6221D01*
X6309Y11030D01*
X6309Y11028D01*
X6313Y11004D01*
X6327Y10984D01*
X6347Y10971D01*
X6370Y10966D01*
X6393Y10971D01*
X6413Y10984D01*
X6415Y10987D01*
X6666D01*
X6667Y10985D01*
X6687Y10972D01*
X6710Y10967D01*
X6734Y10972D01*
X6754Y10985D01*
X6767Y11005D01*
X6772Y11028D01*
X6767Y11051D01*
X6754Y11071D01*
X6734Y11085D01*
X6710Y11089D01*
X6705Y11094D01*
Y11200D01*
X6634D01*
Y11365D01*
X6700D01*
Y11525D01*
D02*
G37*
G36*
X5570Y11350D02*
X5370D01*
Y11160D01*
X5360Y11153D01*
X5358D01*
X5358Y11153D01*
X5342Y11150D01*
X5333Y11144D01*
X5331Y11146D01*
X5318Y11155D01*
X5303Y11158D01*
X5302Y11158D01*
X5267D01*
Y11343D01*
X5103D01*
Y11147D01*
X5152D01*
X5156Y11141D01*
X5209Y11089D01*
X5222Y11080D01*
X5238Y11077D01*
X5238Y11077D01*
X5286D01*
X5292Y11071D01*
Y10952D01*
X5282Y10946D01*
X5268Y10926D01*
X5264Y10903D01*
X5264Y10900D01*
X5254Y10889D01*
X5245Y10876D01*
X5242Y10860D01*
X5242Y10860D01*
Y10124D01*
X4691Y9574D01*
X4682Y9561D01*
X4679Y9545D01*
X4679Y9545D01*
Y9153D01*
X4679Y9153D01*
X4682Y9137D01*
X4691Y9124D01*
X4892Y8923D01*
X4892Y8923D01*
X4905Y8914D01*
X4915Y8912D01*
X4922Y8901D01*
X4922Y8898D01*
X4918Y8877D01*
X4922Y8853D01*
X4933Y8838D01*
X4928Y8825D01*
X4928D01*
Y8715D01*
X5038D01*
Y8825D01*
X5031D01*
X5025Y8838D01*
X5036Y8853D01*
X5040Y8877D01*
X5036Y8898D01*
X5041Y8911D01*
X5181D01*
X5187Y8898D01*
X5181Y8888D01*
X5176Y8865D01*
X5177Y8862D01*
X5081Y8766D01*
X5072Y8753D01*
X5069Y8738D01*
X5069Y8737D01*
Y7867D01*
X5067Y7866D01*
X5053Y7846D01*
X5049Y7822D01*
X5053Y7799D01*
X5067Y7779D01*
X5087Y7766D01*
X5110Y7761D01*
X5133Y7766D01*
X5153Y7779D01*
X5167Y7799D01*
X5171Y7822D01*
X5167Y7846D01*
X5153Y7866D01*
X5151Y7867D01*
Y8721D01*
X5235Y8804D01*
X5238Y8804D01*
X5261Y8808D01*
X5281Y8822D01*
X5293Y8840D01*
X5301Y8841D01*
X5307Y8841D01*
X5317Y8827D01*
X5337Y8813D01*
X5360Y8809D01*
X5383Y8813D01*
X5403Y8827D01*
X5405Y8829D01*
X5843D01*
X6049Y8624D01*
X6049Y8624D01*
X6062Y8615D01*
X6078Y8612D01*
X6078Y8612D01*
X6271D01*
X6274Y8607D01*
X6277Y8605D01*
Y8500D01*
X6184Y8407D01*
X6175Y8394D01*
X6172Y8379D01*
X6172Y8379D01*
Y7690D01*
X6172Y7690D01*
X6175Y7674D01*
X6184Y7661D01*
X6231Y7614D01*
X6231Y7614D01*
X6244Y7605D01*
X6260Y7602D01*
X6508D01*
X6532Y7578D01*
Y7418D01*
X6343D01*
Y7363D01*
X6197D01*
Y7395D01*
X6033D01*
Y7337D01*
X6022Y7335D01*
X6009Y7326D01*
X6009Y7326D01*
X5705Y7023D01*
X5704Y7023D01*
X5694Y7030D01*
X5682Y7032D01*
X5548D01*
X5536Y7030D01*
X5526Y7023D01*
X5521Y7015D01*
X5431D01*
X5431Y7016D01*
X5411Y7029D01*
X5388Y7034D01*
X5364Y7029D01*
X5344Y7016D01*
X5331Y6996D01*
X5326Y6972D01*
X5331Y6949D01*
X5344Y6929D01*
X5364Y6916D01*
X5388Y6911D01*
X5411Y6916D01*
X5431Y6929D01*
X5434Y6934D01*
X5523D01*
X5526Y6930D01*
X5536Y6923D01*
X5548Y6921D01*
X5682D01*
X5694Y6923D01*
X5704Y6930D01*
X5708Y6936D01*
X5716D01*
X5717Y6936D01*
X5732Y6939D01*
X5745Y6948D01*
X6021Y7223D01*
X6033Y7218D01*
Y7200D01*
X6197D01*
Y7282D01*
X6343D01*
Y7228D01*
X6543D01*
Y7302D01*
X6549Y7306D01*
X6601Y7359D01*
X6601Y7359D01*
X6610Y7372D01*
X6613Y7388D01*
Y7595D01*
X6610Y7611D01*
X6601Y7624D01*
X6601Y7624D01*
X6554Y7671D01*
X6541Y7680D01*
X6525Y7683D01*
X6525Y7683D01*
X6277D01*
X6253Y7707D01*
Y8362D01*
X6277Y8385D01*
X6290Y8380D01*
X6302Y8362D01*
X6322Y8348D01*
X6345Y8344D01*
X6368Y8348D01*
X6388Y8362D01*
X6390Y8364D01*
X6460D01*
Y8305D01*
X6760D01*
Y8475D01*
X6460D01*
Y8446D01*
X6390D01*
X6388Y8448D01*
X6368Y8462D01*
X6365Y8462D01*
X6357Y8477D01*
X6358Y8484D01*
X6358Y8484D01*
Y8605D01*
X6361Y8607D01*
X6374Y8627D01*
X6379Y8650D01*
X6374Y8673D01*
X6361Y8693D01*
X6341Y8707D01*
X6317Y8711D01*
X6294Y8707D01*
X6274Y8693D01*
X6094D01*
X5889Y8899D01*
X5876Y8908D01*
X5860Y8911D01*
X5860Y8911D01*
X5405D01*
X5403Y8913D01*
X5401Y8915D01*
Y8951D01*
X5404Y8954D01*
X5417D01*
X5417Y8954D01*
X5433Y8957D01*
X5446Y8966D01*
X5514Y9034D01*
X5514Y9034D01*
X5523Y9047D01*
X5524Y9055D01*
X5585D01*
Y9245D01*
X5385D01*
Y9055D01*
X5399D01*
X5404Y9043D01*
X5399Y9036D01*
X5388D01*
X5388Y9036D01*
X5372Y9033D01*
X5360Y9025D01*
X5348Y9033D01*
X5333Y9036D01*
X5332Y9036D01*
X5282D01*
Y9222D01*
X5117D01*
Y9028D01*
X5161D01*
X5162Y9022D01*
X5171Y9009D01*
X5176Y9004D01*
X5171Y8992D01*
X4938D01*
X4761Y9169D01*
Y9528D01*
X5311Y10079D01*
X5311Y10079D01*
X5320Y10092D01*
X5323Y10107D01*
X5323Y10108D01*
Y10840D01*
X5325Y10841D01*
X5348Y10846D01*
X5368Y10859D01*
X5382Y10879D01*
X5386Y10903D01*
X5382Y10926D01*
X5373Y10938D01*
Y11071D01*
X5374Y11072D01*
X5402D01*
X5403Y11072D01*
X5418Y11075D01*
X5431Y11084D01*
X5499Y11151D01*
X5499Y11151D01*
X5505Y11160D01*
X5570D01*
Y11350D01*
D02*
G37*
G36*
X4728Y11422D02*
X4508D01*
Y11262D01*
X4556D01*
X4560Y11255D01*
X4561Y11250D01*
X4548Y11231D01*
X4544Y11207D01*
X4548Y11184D01*
X4562Y11164D01*
X4582Y11151D01*
X4605Y11146D01*
X4628Y11151D01*
X4648Y11164D01*
X4662Y11184D01*
X4666Y11207D01*
X4662Y11231D01*
X4649Y11250D01*
X4650Y11255D01*
X4654Y11262D01*
X4728D01*
Y11422D01*
D02*
G37*
G36*
X5578Y10981D02*
X5554Y10977D01*
X5534Y10963D01*
X5521Y10943D01*
X5516Y10920D01*
X5521Y10897D01*
X5534Y10877D01*
X5554Y10863D01*
X5578Y10859D01*
X5580Y10859D01*
X5609Y10831D01*
X5609Y10831D01*
X5622Y10822D01*
X5638Y10819D01*
X5638Y10819D01*
X6495D01*
Y10790D01*
X6705D01*
Y10930D01*
X6495D01*
Y10901D01*
X5654D01*
X5638Y10917D01*
X5639Y10920D01*
X5634Y10943D01*
X5621Y10963D01*
X5601Y10977D01*
X5578Y10981D01*
D02*
G37*
G36*
X6090Y9816D02*
X6090Y9816D01*
X5255D01*
X5255Y9816D01*
X5239Y9813D01*
X5226Y9804D01*
X5226Y9804D01*
X5120Y9698D01*
X5117Y9699D01*
X5094Y9694D01*
X5074Y9681D01*
X5061Y9661D01*
X5056Y9638D01*
X5061Y9614D01*
X5074Y9594D01*
X5094Y9581D01*
X5117Y9576D01*
X5141Y9581D01*
X5161Y9594D01*
X5174Y9614D01*
X5179Y9638D01*
X5178Y9640D01*
X5272Y9734D01*
X6073D01*
X6117Y9690D01*
X6116Y9688D01*
X6121Y9664D01*
X6134Y9644D01*
X6154Y9631D01*
X6178Y9626D01*
X6201Y9631D01*
X6221Y9644D01*
X6234Y9664D01*
X6239Y9688D01*
X6234Y9711D01*
X6221Y9731D01*
X6201Y9744D01*
X6178Y9749D01*
X6175Y9748D01*
X6119Y9804D01*
X6106Y9813D01*
X6103Y9813D01*
X6090Y9816D01*
D02*
G37*
G36*
X5488Y9691D02*
X5464Y9687D01*
X5444Y9673D01*
X5431Y9653D01*
X5426Y9630D01*
X5431Y9607D01*
X5444Y9587D01*
X5464Y9573D01*
X5488Y9569D01*
X5490Y9569D01*
X5814Y9246D01*
X5827Y9237D01*
X5843Y9234D01*
X5843Y9234D01*
X5922D01*
Y9115D01*
X6122D01*
Y9315D01*
X5974D01*
X5970Y9316D01*
X5970Y9316D01*
X5859D01*
X5548Y9627D01*
X5549Y9630D01*
X5544Y9653D01*
X5531Y9673D01*
X5511Y9687D01*
X5488Y9691D01*
D02*
G37*
G36*
X5038Y8605D02*
X4928D01*
Y8495D01*
X4943D01*
Y8459D01*
X4942Y8458D01*
X4928Y8438D01*
X4924Y8415D01*
X4928Y8392D01*
X4942Y8372D01*
X4962Y8358D01*
X4985Y8354D01*
X5008Y8358D01*
X5028Y8372D01*
X5042Y8392D01*
X5046Y8415D01*
X5042Y8438D01*
X5028Y8458D01*
X5025Y8461D01*
Y8495D01*
X5038D01*
Y8605D01*
D02*
G37*
G36*
X6060Y8135D02*
X5845D01*
Y8096D01*
X5823D01*
X5823Y8096D01*
X5807Y8093D01*
X5794Y8084D01*
X5794Y8084D01*
X5741Y8031D01*
X5732Y8018D01*
X5729Y8003D01*
X5729Y8002D01*
Y7657D01*
X5725Y7652D01*
X5708D01*
X5704Y7658D01*
X5694Y7665D01*
X5682Y7667D01*
X5548D01*
X5536Y7665D01*
X5526Y7658D01*
X5519Y7648D01*
X5517Y7636D01*
Y7587D01*
X5519Y7575D01*
X5526Y7565D01*
X5536Y7558D01*
X5548Y7556D01*
X5682D01*
X5694Y7558D01*
X5704Y7565D01*
X5708Y7571D01*
X5741D01*
X5742Y7571D01*
X5757Y7574D01*
X5770Y7583D01*
X5799Y7611D01*
X5799Y7611D01*
X5808Y7624D01*
X5811Y7640D01*
X5811Y7640D01*
Y7986D01*
X5832Y8007D01*
X5845Y8002D01*
Y7975D01*
X6060D01*
Y8135D01*
D02*
G37*
G36*
X6760Y8225D02*
X6460D01*
Y8055D01*
X6760D01*
Y8225D01*
D02*
G37*
G36*
X4610Y7966D02*
X4610Y7966D01*
X4288D01*
X4288Y7966D01*
X4272Y7963D01*
X4259Y7954D01*
X4259Y7954D01*
X4241Y7936D01*
X4232Y7923D01*
X4229Y7907D01*
X4229Y7907D01*
Y7860D01*
X4167D01*
Y7620D01*
X4372D01*
Y7860D01*
X4311D01*
Y7884D01*
X4593D01*
X4606Y7872D01*
X4601Y7860D01*
X4462D01*
Y7620D01*
X4548D01*
X4550Y7609D01*
X4559Y7596D01*
X4576Y7579D01*
X4576Y7579D01*
X4589Y7570D01*
X4605Y7567D01*
X4605Y7567D01*
X4820D01*
X4821Y7565D01*
X4831Y7558D01*
X4843Y7556D01*
X4977D01*
X4989Y7558D01*
X4999Y7565D01*
X5006Y7575D01*
X5008Y7587D01*
Y7636D01*
X5006Y7648D01*
X4999Y7658D01*
X4989Y7665D01*
X4977Y7667D01*
X4843D01*
X4831Y7665D01*
X4821Y7658D01*
X4814Y7648D01*
X4667D01*
Y7793D01*
X4679Y7798D01*
X4764Y7714D01*
X4764Y7714D01*
X4777Y7705D01*
X4792Y7702D01*
X4814D01*
X4821Y7692D01*
X4831Y7685D01*
X4843Y7683D01*
X4977D01*
X4989Y7685D01*
X4999Y7692D01*
X5006Y7702D01*
X5008Y7714D01*
Y7763D01*
X5006Y7775D01*
X4999Y7785D01*
X4989Y7792D01*
X4977Y7794D01*
X4843D01*
X4831Y7792D01*
X4821Y7785D01*
X4808Y7785D01*
X4639Y7954D01*
X4626Y7963D01*
X4623Y7963D01*
X4610Y7966D01*
D02*
G37*
G36*
X5247Y8361D02*
X5224Y8357D01*
X5204Y8343D01*
X5191Y8323D01*
X5186Y8300D01*
X5191Y8277D01*
X5204Y8257D01*
X5207Y8255D01*
Y7851D01*
X5207Y7851D01*
X5210Y7836D01*
X5219Y7823D01*
X5325Y7716D01*
X5338Y7707D01*
X5354Y7704D01*
X5354Y7704D01*
X5416D01*
X5416Y7704D01*
X5432Y7707D01*
X5445Y7716D01*
X5508Y7779D01*
X5519Y7772D01*
X5517Y7763D01*
Y7714D01*
X5519Y7702D01*
X5526Y7692D01*
X5536Y7685D01*
X5548Y7683D01*
X5682D01*
X5694Y7685D01*
X5704Y7692D01*
X5711Y7702D01*
X5713Y7714D01*
Y7763D01*
X5711Y7775D01*
X5704Y7785D01*
X5694Y7792D01*
X5682Y7794D01*
X5548D01*
X5540Y7793D01*
X5533Y7803D01*
X5541Y7811D01*
X5548Y7810D01*
X5682D01*
X5694Y7812D01*
X5704Y7819D01*
X5711Y7829D01*
X5713Y7841D01*
Y7890D01*
X5711Y7902D01*
X5704Y7912D01*
X5694Y7919D01*
X5682Y7921D01*
X5548D01*
X5536Y7919D01*
X5526Y7912D01*
X5519Y7902D01*
X5519Y7902D01*
X5507Y7894D01*
X5507Y7894D01*
X5399Y7786D01*
X5371D01*
X5288Y7868D01*
Y8255D01*
X5291Y8257D01*
X5304Y8277D01*
X5309Y8300D01*
X5304Y8323D01*
X5291Y8343D01*
X5271Y8357D01*
X5247Y8361D01*
D02*
G37*
G36*
X6453Y7889D02*
X6429Y7884D01*
X6409Y7871D01*
X6396Y7851D01*
X6391Y7828D01*
X6396Y7804D01*
X6409Y7784D01*
X6429Y7771D01*
X6453Y7766D01*
X6476Y7771D01*
X6496Y7784D01*
X6509Y7804D01*
X6514Y7828D01*
X6509Y7851D01*
X6496Y7871D01*
X6476Y7884D01*
X6453Y7889D01*
D02*
G37*
G36*
X5682Y7540D02*
X5548D01*
X5536Y7538D01*
X5526Y7531D01*
X5519Y7521D01*
X5517Y7509D01*
Y7460D01*
X5519Y7448D01*
X5526Y7438D01*
X5536Y7431D01*
X5548Y7429D01*
X5682D01*
X5694Y7431D01*
X5704Y7438D01*
X5711Y7448D01*
X5713Y7460D01*
Y7509D01*
X5711Y7521D01*
X5704Y7531D01*
X5694Y7538D01*
X5682Y7540D01*
D02*
G37*
G36*
Y7413D02*
X5548D01*
X5536Y7411D01*
X5526Y7404D01*
X5519Y7394D01*
X5517Y7382D01*
Y7333D01*
X5519Y7321D01*
X5526Y7311D01*
X5536Y7304D01*
X5548Y7302D01*
X5682D01*
X5694Y7304D01*
X5704Y7311D01*
X5711Y7321D01*
X5713Y7333D01*
Y7382D01*
X5711Y7394D01*
X5704Y7404D01*
X5694Y7411D01*
X5682Y7413D01*
D02*
G37*
G36*
X4695Y7465D02*
X4495D01*
Y7265D01*
X4695D01*
Y7317D01*
X4817D01*
X4821Y7311D01*
X4831Y7304D01*
X4843Y7302D01*
X4977D01*
X4989Y7304D01*
X4999Y7311D01*
X5006Y7321D01*
X5008Y7333D01*
Y7382D01*
X5006Y7394D01*
X4999Y7404D01*
X4989Y7411D01*
X4977Y7413D01*
X4843D01*
X4831Y7411D01*
X4821Y7404D01*
X4817Y7398D01*
X4695D01*
Y7465D01*
D02*
G37*
G36*
X4325Y7478D02*
X4125D01*
Y7278D01*
X4325D01*
Y7478D01*
D02*
G37*
G36*
X5682Y7286D02*
X5548D01*
X5536Y7284D01*
X5526Y7277D01*
X5519Y7267D01*
X5517Y7255D01*
Y7206D01*
X5519Y7194D01*
X5526Y7184D01*
X5536Y7177D01*
X5548Y7175D01*
X5682D01*
X5694Y7177D01*
X5704Y7184D01*
X5711Y7194D01*
X5713Y7206D01*
Y7255D01*
X5711Y7267D01*
X5704Y7277D01*
X5694Y7284D01*
X5682Y7286D01*
D02*
G37*
G36*
X4977D02*
X4843D01*
X4831Y7284D01*
X4821Y7277D01*
X4814Y7267D01*
X4812Y7255D01*
Y7206D01*
X4814Y7194D01*
X4821Y7184D01*
X4831Y7177D01*
X4843Y7175D01*
X4977D01*
X4989Y7177D01*
X4999Y7184D01*
X5006Y7194D01*
X5008Y7206D01*
Y7255D01*
X5006Y7267D01*
X4999Y7277D01*
X4989Y7284D01*
X4977Y7286D01*
D02*
G37*
G36*
X5682Y7159D02*
X5548D01*
X5536Y7157D01*
X5526Y7150D01*
X5519Y7140D01*
X5517Y7128D01*
Y7079D01*
X5519Y7067D01*
X5526Y7057D01*
X5536Y7050D01*
X5548Y7048D01*
X5682D01*
X5694Y7050D01*
X5704Y7057D01*
X5711Y7067D01*
X5713Y7079D01*
Y7128D01*
X5711Y7140D01*
X5704Y7150D01*
X5694Y7157D01*
X5682Y7159D01*
D02*
G37*
G36*
X4977D02*
X4843D01*
X4831Y7157D01*
X4821Y7150D01*
X4814Y7140D01*
X4812Y7128D01*
Y7079D01*
X4814Y7067D01*
X4821Y7057D01*
X4831Y7050D01*
X4843Y7048D01*
X4977D01*
X4989Y7050D01*
X4999Y7057D01*
X5006Y7067D01*
X5008Y7079D01*
Y7128D01*
X5006Y7140D01*
X4999Y7150D01*
X4989Y7157D01*
X4977Y7159D01*
D02*
G37*
G36*
Y7032D02*
X4843D01*
X4831Y7030D01*
X4821Y7023D01*
X4814Y7013D01*
X4812Y7001D01*
Y6952D01*
X4814Y6940D01*
X4821Y6930D01*
X4831Y6923D01*
X4843Y6921D01*
X4977D01*
X4989Y6923D01*
X4999Y6930D01*
X5006Y6940D01*
X5008Y6952D01*
Y7001D01*
X5006Y7013D01*
X4999Y7023D01*
X4989Y7030D01*
X4977Y7032D01*
D02*
G37*
G36*
X5133Y6999D02*
X5109Y6994D01*
X5089Y6981D01*
X5076Y6961D01*
X5072Y6938D01*
X5076Y6914D01*
X5089Y6894D01*
X5092Y6893D01*
Y6617D01*
X5092Y6617D01*
X5095Y6602D01*
X5104Y6588D01*
X5240Y6453D01*
X5236Y6440D01*
X5229Y6439D01*
X5209Y6426D01*
X5196Y6406D01*
X5191Y6383D01*
X5196Y6359D01*
X5209Y6339D01*
X5212Y6338D01*
Y6242D01*
X5148D01*
Y6083D01*
X5363D01*
Y6242D01*
X5293D01*
Y6338D01*
X5296Y6339D01*
X5309Y6359D01*
X5310Y6366D01*
X5323Y6370D01*
X5349Y6344D01*
X5349Y6344D01*
X5362Y6335D01*
X5378Y6332D01*
X5378Y6332D01*
X5590D01*
X5592Y6329D01*
X5612Y6316D01*
X5635Y6311D01*
X5658Y6316D01*
X5678Y6329D01*
X5692Y6349D01*
X5696Y6372D01*
X5692Y6396D01*
X5678Y6416D01*
X5658Y6429D01*
X5635Y6434D01*
X5612Y6429D01*
X5592Y6416D01*
X5590Y6413D01*
X5394D01*
X5174Y6634D01*
Y6893D01*
X5176Y6894D01*
X5189Y6914D01*
X5194Y6938D01*
X5189Y6961D01*
X5176Y6981D01*
X5156Y6994D01*
X5133Y6999D01*
D02*
G37*
G36*
X6017Y6085D02*
X5817D01*
Y5885D01*
X6017D01*
Y6085D01*
D02*
G37*
G36*
X5363Y5958D02*
X5148D01*
Y5798D01*
X5214D01*
Y5670D01*
X5211Y5668D01*
X5198Y5648D01*
X5193Y5625D01*
X5198Y5602D01*
X5211Y5582D01*
X5231Y5568D01*
X5254Y5564D01*
X5278Y5568D01*
X5298Y5582D01*
X5311Y5602D01*
X5316Y5625D01*
X5311Y5648D01*
X5298Y5668D01*
X5295Y5670D01*
Y5798D01*
X5363D01*
Y5958D01*
D02*
G37*
G36*
X5407Y5106D02*
X5382Y5103D01*
X5359Y5093D01*
X5339Y5078D01*
X5324Y5058D01*
X5314Y5035D01*
X5311Y5010D01*
X5314Y4985D01*
X5324Y4962D01*
X5339Y4942D01*
X5359Y4927D01*
X5382Y4917D01*
X5407Y4914D01*
X5432Y4917D01*
X5455Y4927D01*
X5475Y4942D01*
X5490Y4962D01*
X5500Y4985D01*
X5503Y5010D01*
X5500Y5035D01*
X5490Y5058D01*
X5475Y5078D01*
X5455Y5093D01*
X5432Y5103D01*
X5407Y5106D01*
D02*
G37*
G36*
X4645D02*
X4620Y5103D01*
X4597Y5093D01*
X4577Y5078D01*
X4562Y5058D01*
X4552Y5035D01*
X4549Y5010D01*
X4552Y4985D01*
X4562Y4962D01*
X4577Y4942D01*
X4597Y4927D01*
X4620Y4917D01*
X4645Y4914D01*
X4670Y4917D01*
X4693Y4927D01*
X4713Y4942D01*
X4728Y4962D01*
X4738Y4985D01*
X4741Y5010D01*
X4738Y5035D01*
X4728Y5058D01*
X4713Y5078D01*
X4693Y5093D01*
X4670Y5103D01*
X4645Y5106D01*
D02*
G37*
G36*
X5512Y5681D02*
X5489Y5677D01*
X5469Y5663D01*
X5456Y5643D01*
X5451Y5620D01*
X5456Y5597D01*
X5469Y5577D01*
X5472Y5575D01*
Y5490D01*
X5288D01*
Y5290D01*
X5487D01*
Y5326D01*
X5499Y5331D01*
X5694Y5136D01*
Y5097D01*
X5635D01*
Y4897D01*
X5835D01*
Y5097D01*
X5776D01*
Y5153D01*
X5773Y5168D01*
X5764Y5181D01*
X5764Y5181D01*
X5553Y5392D01*
Y5575D01*
X5556Y5577D01*
X5569Y5597D01*
X5574Y5620D01*
X5569Y5643D01*
X5556Y5663D01*
X5536Y5677D01*
X5512Y5681D01*
D02*
G37*
G36*
X6015Y4416D02*
X5989Y4412D01*
X5965Y4402D01*
X5944Y4386D01*
X5928Y4365D01*
X5918Y4341D01*
X5914Y4315D01*
X5918Y4289D01*
X5928Y4265D01*
X5944Y4244D01*
X5965Y4228D01*
X5989Y4218D01*
X6015Y4214D01*
X6041Y4218D01*
X6065Y4228D01*
X6086Y4244D01*
X6102Y4265D01*
X6112Y4289D01*
X6116Y4315D01*
X6112Y4341D01*
X6102Y4365D01*
X6086Y4386D01*
X6065Y4402D01*
X6041Y4412D01*
X6015Y4416D01*
D02*
G37*
G36*
X6550Y4441D02*
X6513Y4437D01*
X6477Y4426D01*
X6444Y4409D01*
X6415Y4385D01*
X6391Y4356D01*
X6374Y4323D01*
X6363Y4287D01*
X6359Y4250D01*
X6363Y4213D01*
X6374Y4177D01*
X6391Y4144D01*
X6415Y4115D01*
X6444Y4091D01*
X6477Y4074D01*
X6513Y4063D01*
X6550Y4059D01*
X6587Y4063D01*
X6623Y4074D01*
X6656Y4091D01*
X6685Y4115D01*
X6709Y4144D01*
X6726Y4177D01*
X6737Y4213D01*
X6741Y4250D01*
X6737Y4287D01*
X6726Y4323D01*
X6709Y4356D01*
X6685Y4385D01*
X6656Y4409D01*
X6623Y4426D01*
X6587Y4437D01*
X6550Y4441D01*
D02*
G37*
G36*
X4160D02*
X4123Y4437D01*
X4087Y4426D01*
X4054Y4409D01*
X4025Y4385D01*
X4001Y4356D01*
X3984Y4323D01*
X3973Y4287D01*
X3969Y4250D01*
X3973Y4213D01*
X3984Y4177D01*
X4001Y4144D01*
X4025Y4115D01*
X4054Y4091D01*
X4087Y4074D01*
X4123Y4063D01*
X4160Y4059D01*
X4197Y4063D01*
X4233Y4074D01*
X4266Y4091D01*
X4295Y4115D01*
X4319Y4144D01*
X4336Y4177D01*
X4347Y4213D01*
X4351Y4250D01*
X4347Y4287D01*
X4336Y4323D01*
X4319Y4356D01*
X4295Y4385D01*
X4266Y4409D01*
X4233Y4426D01*
X4197Y4437D01*
X4160Y4441D01*
D02*
G37*
%LPD*%
D10*
X6000Y11425D02*
D03*
Y11160D02*
D03*
D11*
X6600Y10860D02*
D03*
Y11130D02*
D03*
D12*
X4617Y11343D02*
D03*
Y11612D02*
D03*
D14*
X5980Y11822D02*
D03*
X5710D02*
D03*
D19*
X6250Y11612D02*
D03*
Y11823D02*
D03*
D23*
X6595Y8405D02*
X6610Y8390D01*
X6345Y8405D02*
X6595D01*
X5753Y9705D02*
X6606Y8851D01*
X6570Y8640D02*
X6607Y8677D01*
X4565Y8065D02*
X4765Y7865D01*
X4305Y8065D02*
X4565D01*
X4797Y5770D02*
Y5872D01*
X4726Y5698D02*
X4797Y5770D01*
X4563Y5698D02*
X4726D01*
X4563D02*
X5426Y4835D01*
X4285Y5976D02*
X4563Y5698D01*
X4610Y7925D02*
X4792Y7743D01*
X4288Y7925D02*
X4610D01*
X4765Y7865D02*
X4910D01*
X4906Y7743D02*
X4910Y7739D01*
X4270Y7907D02*
X4288Y7925D01*
X4792Y7743D02*
X4906D01*
X4050Y7810D02*
X4305Y8065D01*
X4050Y7270D02*
Y7810D01*
Y7270D02*
X4285Y7035D01*
Y6747D02*
Y7035D01*
X4462Y7472D02*
X4480Y7490D01*
X4904D01*
X4910Y7485D01*
X4462Y7213D02*
Y7472D01*
X4285Y7035D02*
X4462Y7213D01*
X4822Y9418D02*
X4938Y9532D01*
X5095D01*
X4720Y9545D02*
X5283Y10107D01*
X4720Y9153D02*
Y9545D01*
Y9153D02*
X4921Y8952D01*
X5278D01*
X5217Y9532D02*
X5310Y9625D01*
X5095Y9532D02*
X5217D01*
X5030Y9597D02*
X5095Y9532D01*
X5412Y10861D02*
X5638Y11086D01*
X5412Y10112D02*
Y10861D01*
X5030Y9730D02*
X5412Y10112D01*
X6090Y9775D02*
X6178Y9688D01*
X5255Y9775D02*
X6090D01*
X5117Y9638D02*
X5255Y9775D01*
X5405Y9705D02*
X5753D01*
X5360Y9660D02*
X5405Y9705D01*
X5360Y9625D02*
Y9660D01*
X6607Y8677D02*
Y8850D01*
X6570Y8640D02*
X6610D01*
X5858Y5197D02*
Y5235D01*
X6460Y5838D01*
X5462Y4835D02*
X5470Y4828D01*
X5426Y4835D02*
X5462D01*
X4285Y5976D02*
Y6747D01*
X5247Y7851D02*
X5354Y7745D01*
X5247Y7851D02*
Y8300D01*
X5354Y7745D02*
X5416D01*
X5536Y7865D01*
X5615D01*
X5110Y8738D02*
X5238Y8865D01*
X5110Y7822D02*
Y8738D01*
X5615Y7865D02*
X5615Y7865D01*
X4628Y8300D02*
X4895D01*
X4072Y8855D02*
X4628Y8300D01*
X4072Y8855D02*
Y11265D01*
X4300Y11492D01*
X4438Y10610D02*
X5135D01*
X4145Y10903D02*
Y11168D01*
X5135Y10610D02*
X5138Y10612D01*
X4145Y11168D02*
X4235Y11257D01*
X4145Y10903D02*
X4438Y10610D01*
X4270Y7740D02*
Y7907D01*
X4588Y7625D02*
X4605Y7607D01*
X4906D01*
X4910Y7611D01*
X4588Y7625D02*
Y7718D01*
X4565Y7740D02*
X4588Y7718D01*
X4603Y7357D02*
X4910D01*
X4595Y7365D02*
X4603Y7357D01*
X5953Y7548D02*
X5970Y7530D01*
X6112D01*
X6115Y7528D01*
X5953Y7548D02*
Y7770D01*
X5770Y8003D02*
X5823Y8055D01*
X5953D01*
X5770Y7640D02*
Y8003D01*
X5742Y7611D02*
X5770Y7640D01*
X5615Y7611D02*
X5742D01*
X5615Y6976D02*
X5717D01*
X6038Y7297D02*
X6115D01*
X5717Y6976D02*
X6038Y7297D01*
X5388Y6972D02*
X5390Y6975D01*
X5613D01*
X5615Y6976D01*
X5133Y6617D02*
Y6938D01*
Y6617D02*
X5378Y6372D01*
X6115Y7528D02*
Y8145D01*
X5960Y8300D02*
X6115Y8145D01*
X5408Y8300D02*
X5960D01*
X6525Y7643D02*
X6572Y7595D01*
Y7388D02*
Y7595D01*
X6520Y7335D02*
X6572Y7388D01*
X6455Y7335D02*
X6520D01*
X6260Y7643D02*
X6525D01*
X6212Y7690D02*
X6260Y7643D01*
X6212Y7690D02*
Y8379D01*
X6317Y8484D01*
X6443Y7322D02*
X6455Y7335D01*
X6317Y8484D02*
Y8650D01*
X5385Y8278D02*
X5408Y8300D01*
X5385Y7820D02*
Y8278D01*
X6115Y7528D02*
X6130Y7512D01*
X6443D01*
X6115Y7297D02*
X6140Y7322D01*
X6443D01*
X6710Y11028D02*
X6710Y11028D01*
X6370Y11028D02*
X6710D01*
X6370Y11028D02*
X6370Y11028D01*
X5970Y9275D02*
X6030Y9215D01*
X4808Y11772D02*
X5247D01*
X4647Y11612D02*
X4808Y11772D01*
X5247D02*
X5329Y11689D01*
X4617Y11612D02*
X4647D01*
X4587Y11643D02*
X4617Y11612D01*
X4300Y11643D02*
X4587D01*
X4605Y11207D02*
Y11330D01*
X4617Y11343D01*
X6238Y11160D02*
X6370Y11028D01*
X6000Y11160D02*
X6238D01*
X6385Y11453D02*
X6585D01*
X6593Y11445D01*
Y11137D02*
X6600Y11130D01*
X6593Y11137D02*
Y11445D01*
X6250Y11612D02*
X6362D01*
X6380Y11630D01*
Y11695D01*
X6415Y11730D01*
X6593D01*
X5329Y11725D02*
Y11850D01*
Y11689D02*
Y11725D01*
X6593Y11730D02*
Y11907D01*
X6563Y11937D02*
X6593Y11907D01*
X5417Y11937D02*
X6563D01*
X5329Y11850D02*
X5417Y11937D01*
X5638Y11086D02*
Y11628D01*
X5523Y11743D02*
X5638Y11628D01*
X5347Y11743D02*
X5523D01*
X5980Y11445D02*
X6000Y11425D01*
X5980Y11445D02*
Y11822D01*
X4752Y11492D02*
X4945Y11685D01*
X4300Y11492D02*
X4752D01*
X5981Y11823D02*
X6250D01*
X5980Y11822D02*
X5981Y11823D01*
X5710Y11678D02*
Y11822D01*
X5710Y11822D02*
X5710Y11822D01*
X4245Y10990D02*
X5014D01*
X5062Y10943D01*
X5072D01*
X5283Y10860D02*
X5325Y10903D01*
X5283Y10107D02*
Y10860D01*
X5578Y10920D02*
X5638Y10860D01*
X6600D01*
X5333Y10910D02*
Y11088D01*
X5325Y10903D02*
X5333Y10910D01*
X5310Y9625D02*
X5360D01*
X5030Y9597D02*
Y9730D01*
X5329Y11725D02*
X5347Y11743D01*
X5488Y9630D02*
X5843Y9275D01*
X5300Y9485D02*
X5360Y9545D01*
X5255Y9485D02*
X5300D01*
X5360Y9545D02*
X5488Y9418D01*
X5278Y8952D02*
X5360Y8870D01*
X6078Y8653D02*
X6315D01*
X6317Y8650D01*
X5860Y8870D02*
X6078Y8653D01*
X5360Y8870D02*
X5860D01*
X5238Y11118D02*
X5303D01*
X5185Y11170D02*
X5238Y11118D01*
X5185Y11170D02*
Y11245D01*
X5303Y11118D02*
X5333Y11088D01*
X5470Y11180D02*
Y11255D01*
X5403Y11112D02*
X5470Y11180D01*
X5358Y11112D02*
X5403D01*
X5333Y11088D02*
X5358Y11112D01*
X5329Y11610D02*
X5366Y11573D01*
X5419D01*
X5470Y11522D01*
Y11445D02*
Y11522D01*
X5295Y11575D02*
X5329Y11610D01*
X5212Y11575D02*
X5295D01*
X5192Y11555D02*
X5212Y11575D01*
X5192Y11482D02*
Y11555D01*
X5329Y11610D02*
Y11689D01*
X5185Y11475D02*
X5192Y11482D01*
X5843Y9275D02*
X5970D01*
X5488Y9343D02*
Y9418D01*
X5485Y9340D02*
X5488Y9343D01*
X4979Y8877D02*
X4981Y8875D01*
Y8772D02*
Y8875D01*
Y8772D02*
X4983Y8770D01*
X4984Y8416D02*
X4985Y8415D01*
X4984Y8416D02*
Y8549D01*
X4983Y8550D02*
X4984Y8549D01*
X5200Y9430D02*
X5255Y9485D01*
X5200Y9355D02*
Y9430D01*
X5360Y9545D02*
Y9625D01*
X5242Y8995D02*
X5333D01*
X5200Y9038D02*
X5242Y8995D01*
X5200Y9038D02*
Y9125D01*
X5485Y9063D02*
Y9150D01*
X5417Y8995D02*
X5485Y9063D01*
X5388Y8995D02*
X5417D01*
X5360Y8967D02*
X5388Y8995D01*
X5333D02*
X5360Y8967D01*
Y8870D02*
Y8967D01*
X5378Y6372D02*
X5635D01*
X5858Y4880D02*
Y5197D01*
X5635Y5419D02*
X5858Y5197D01*
X5635Y5419D02*
Y5613D01*
X5470Y4828D02*
X5805D01*
X5858Y4880D01*
X5735Y4997D02*
Y5153D01*
X5735Y4997D02*
X5735Y4997D01*
X5512Y5375D02*
X5735Y5153D01*
X5512Y5375D02*
Y5620D01*
X5254Y5625D02*
Y5877D01*
X5255Y5878D01*
X5253Y6165D02*
X5255Y6162D01*
X5253Y6165D02*
Y6383D01*
D24*
X4300Y11492D02*
D03*
X5917Y5985D02*
D03*
X4595Y7365D02*
D03*
X6022Y9215D02*
D03*
X4225Y7378D02*
D03*
X5735Y4997D02*
D03*
X5388Y5390D02*
D03*
D25*
X5407Y5010D02*
D03*
X4645D02*
D03*
D26*
X6015Y4569D02*
D03*
D27*
Y4315D02*
D03*
D28*
X6550Y12400D02*
D03*
X4150D02*
D03*
X4160Y4250D02*
D03*
X6550D02*
D03*
D29*
X4797Y5872D02*
D03*
X6607Y8853D02*
D03*
X4560Y8060D02*
D03*
X4822Y9418D02*
D03*
X4285Y6747D02*
D03*
X6460Y5838D02*
D03*
X5247Y8300D02*
D03*
X4895D02*
D03*
X5388Y6972D02*
D03*
X5133Y6938D02*
D03*
X5385Y7820D02*
D03*
X6345Y8405D02*
D03*
X6710Y11028D02*
D03*
X4300Y11643D02*
D03*
X4605Y11207D02*
D03*
X6370Y11028D02*
D03*
X6385Y11453D02*
D03*
X4945Y11685D02*
D03*
X5710Y11678D02*
D03*
X5138Y10612D02*
D03*
X4245Y10990D02*
D03*
X4235Y11257D02*
D03*
X5578Y10920D02*
D03*
X5325Y10903D02*
D03*
X5072Y10943D02*
D03*
X5488Y9630D02*
D03*
X6178Y9688D02*
D03*
X6317Y8650D02*
D03*
X5117Y9638D02*
D03*
X5075Y11697D02*
D03*
X5329Y11689D02*
D03*
X4985Y8415D02*
D03*
X4979Y8877D02*
D03*
X5238Y8865D02*
D03*
X5110Y7822D02*
D03*
X5360Y8870D02*
D03*
X5360Y9625D02*
D03*
X6453Y7828D02*
D03*
X5635Y6372D02*
D03*
X5635Y5613D02*
D03*
X5512Y5620D02*
D03*
X5253Y6383D02*
D03*
X5254Y5625D02*
D03*
X5470Y4828D02*
D03*
D30*
X6610Y8640D02*
D03*
Y8390D02*
D03*
Y8140D02*
D03*
D31*
X5953Y8055D02*
D03*
Y7770D02*
D03*
X6593Y11445D02*
D03*
Y11730D02*
D03*
X5255Y6162D02*
D03*
Y5878D02*
D03*
D32*
X5470Y11445D02*
D03*
Y11255D02*
D03*
X5485Y9340D02*
D03*
Y9150D02*
D03*
X6443Y7512D02*
D03*
Y7322D02*
D03*
D33*
X5185Y11245D02*
D03*
Y11475D02*
D03*
X5200Y9125D02*
D03*
Y9355D02*
D03*
X6115Y7297D02*
D03*
Y7528D02*
D03*
D34*
X4983Y8550D02*
D03*
Y8770D02*
D03*
D35*
X5615Y7865D02*
D03*
Y7739D02*
D03*
Y7611D02*
D03*
Y7485D02*
D03*
Y7357D02*
D03*
Y7231D02*
D03*
Y7104D02*
D03*
Y6976D02*
D03*
X4910Y7865D02*
D03*
Y7739D02*
D03*
Y7611D02*
D03*
Y7485D02*
D03*
Y7357D02*
D03*
Y7231D02*
D03*
Y7104D02*
D03*
Y6976D02*
D03*
D36*
X4565Y7740D02*
D03*
X4270D02*
D03*
%TF.MD5,00c5bd03e599cab3656e07c67fa2705a*%
M02*
