%TF.GenerationSoftware,Altium Limited,Altium Designer,19.0.15 (446)*%
G04 Layer_Physical_Order=1*
G04 Layer_Color=255*
%FSLAX42Y42*%
%MOMM*%
%TF.FileFunction,Copper,L1,Top,Signal*%
%TF.Part,Single*%
G01*
G75*
%TA.AperFunction,SMDPad,CuDef*%
%ADD10R,1.55X0.90*%
%ADD11R,1.60X0.90*%
%ADD12R,1.70X1.10*%
%ADD13R,1.70X0.95*%
%ADD14R,0.90X1.60*%
G04:AMPARAMS|DCode=15|XSize=0.55mm|YSize=1.25mm|CornerRadius=0.05mm|HoleSize=0mm|Usage=FLASHONLY|Rotation=180.000|XOffset=0mm|YOffset=0mm|HoleType=Round|Shape=RoundedRectangle|*
%AMROUNDEDRECTD15*
21,1,0.55,1.15,0,0,180.0*
21,1,0.45,1.25,0,0,180.0*
1,1,0.10,-0.23,0.58*
1,1,0.10,0.23,0.58*
1,1,0.10,0.23,-0.58*
1,1,0.10,-0.23,-0.58*
%
%ADD15ROUNDEDRECTD15*%
%ADD16R,0.59X0.45*%
%ADD17R,1.30X1.00*%
%ADD18R,0.90X1.55*%
%ADD19R,0.45X0.59*%
%ADD20R,1.40X1.10*%
%ADD21R,1.60X2.50*%
%ADD22R,1.10X1.65*%
%TA.AperFunction,Conductor*%
%ADD23C,0.30*%
%TA.AperFunction,ComponentPad*%
%ADD24R,1.50X1.50*%
%ADD25C,1.40*%
%ADD26R,1.50X1.50*%
%ADD27C,1.50*%
%TA.AperFunction,ViaPad*%
%ADD28C,3.30*%
%ADD29C,0.70*%
G36*
X6650Y12650D02*
X6800Y12500D01*
Y4160D01*
X6640Y4000D01*
X4060D01*
X3900Y4160D01*
Y12490D01*
X4060Y12650D01*
X6650Y12650D01*
D02*
G37*
%LPC*%
G36*
X6550Y12591D02*
X6513Y12587D01*
X6477Y12576D01*
X6444Y12559D01*
X6415Y12535D01*
X6391Y12506D01*
X6374Y12473D01*
X6363Y12437D01*
X6359Y12400D01*
X6363Y12363D01*
X6374Y12327D01*
X6391Y12294D01*
X6415Y12265D01*
X6444Y12241D01*
X6477Y12224D01*
X6513Y12213D01*
X6550Y12209D01*
X6587Y12213D01*
X6623Y12224D01*
X6656Y12241D01*
X6685Y12265D01*
X6709Y12294D01*
X6726Y12327D01*
X6737Y12363D01*
X6741Y12400D01*
X6737Y12437D01*
X6726Y12473D01*
X6709Y12506D01*
X6685Y12535D01*
X6656Y12559D01*
X6623Y12576D01*
X6587Y12587D01*
X6550Y12591D01*
D02*
G37*
G36*
X4150D02*
X4113Y12587D01*
X4077Y12576D01*
X4044Y12559D01*
X4015Y12535D01*
X3991Y12506D01*
X3974Y12473D01*
X3963Y12437D01*
X3959Y12400D01*
X3963Y12363D01*
X3974Y12327D01*
X3991Y12294D01*
X4015Y12265D01*
X4044Y12241D01*
X4077Y12224D01*
X4113Y12213D01*
X4150Y12209D01*
X4187Y12213D01*
X4223Y12224D01*
X4256Y12241D01*
X4285Y12265D01*
X4309Y12294D01*
X4326Y12327D01*
X4337Y12363D01*
X4341Y12400D01*
X4337Y12437D01*
X4326Y12473D01*
X4309Y12506D01*
X4285Y12535D01*
X4256Y12559D01*
X4223Y12576D01*
X4187Y12587D01*
X4150Y12591D01*
D02*
G37*
G36*
X6055Y12143D02*
X6055Y12143D01*
X4150D01*
X4150Y12143D01*
X4134Y12140D01*
X4121Y12131D01*
X4016Y12026D01*
X4007Y12013D01*
X4004Y11997D01*
X4004Y11997D01*
Y11515D01*
X4004Y11515D01*
X4007Y11499D01*
X4016Y11486D01*
X4154Y11349D01*
X4154Y11349D01*
X4167Y11340D01*
X4183Y11337D01*
X4269D01*
X4278Y11328D01*
Y11315D01*
X4266Y11309D01*
X4258Y11314D01*
X4235Y11319D01*
X4212Y11314D01*
X4192Y11301D01*
X4178Y11281D01*
X4174Y11257D01*
X4178Y11234D01*
X4192Y11214D01*
X4212Y11201D01*
X4235Y11196D01*
X4258Y11201D01*
X4266Y11206D01*
X4278Y11200D01*
Y11188D01*
X4488D01*
Y11253D01*
X4499Y11258D01*
X4545Y11212D01*
X4544Y11207D01*
X4548Y11184D01*
X4562Y11164D01*
X4582Y11151D01*
X4605Y11146D01*
X4608Y11147D01*
X4652Y11102D01*
X4652Y11102D01*
X4655Y11101D01*
X4657Y11084D01*
X4500Y10928D01*
X4488Y10933D01*
Y11057D01*
X4278D01*
Y11055D01*
X4265Y11047D01*
X4245Y11051D01*
X4222Y11047D01*
X4202Y11033D01*
X4188Y11013D01*
X4184Y10990D01*
X4184Y10987D01*
X4056Y10859D01*
X4047Y10846D01*
X4044Y10830D01*
X4044Y10830D01*
Y10123D01*
X4044Y10122D01*
X4047Y10107D01*
X4056Y10094D01*
X4414Y9736D01*
X4414Y9736D01*
X4427Y9727D01*
X4433Y9726D01*
Y9695D01*
X4643D01*
Y9835D01*
X4433D01*
X4433Y9835D01*
Y9835D01*
X4423Y9842D01*
X4126Y10139D01*
Y10214D01*
X4138Y10219D01*
X4174Y10184D01*
X4187Y10175D01*
X4203Y10172D01*
X4203Y10172D01*
X4432D01*
Y10110D01*
X4572D01*
Y10315D01*
X4432D01*
Y10253D01*
X4219D01*
X4196Y10277D01*
Y10403D01*
X4378D01*
Y10432D01*
X4458D01*
Y10380D01*
X4678D01*
Y10420D01*
X4688Y10422D01*
X4701Y10431D01*
X4741Y10471D01*
X4741Y10471D01*
X4750Y10484D01*
X4753Y10500D01*
Y10701D01*
X4755Y10703D01*
X4862D01*
Y10798D01*
X4753D01*
Y10798D01*
X4743Y10790D01*
X4729Y10788D01*
X4716Y10779D01*
X4716Y10779D01*
X4690Y10753D01*
X4678Y10758D01*
Y10830D01*
X4639D01*
X4634Y10842D01*
X4667Y10874D01*
X4905D01*
X4905Y10874D01*
X4921Y10877D01*
X4934Y10886D01*
X4977Y10930D01*
X4977Y10930D01*
X4986Y10943D01*
X4987Y10947D01*
X4992Y10951D01*
X4999Y10961D01*
X5001Y10972D01*
Y11088D01*
X4999Y11099D01*
X4992Y11109D01*
X4982Y11116D01*
X4971Y11118D01*
X4925D01*
X4914Y11116D01*
X4904Y11109D01*
X4897Y11099D01*
X4895Y11088D01*
Y10972D01*
X4896Y10965D01*
X4888Y10956D01*
X4661D01*
X4656Y10968D01*
X4790Y11102D01*
X4790Y11102D01*
X4829Y11141D01*
X4838Y11154D01*
X4841Y11170D01*
X4841Y11170D01*
Y11876D01*
X4863Y11898D01*
X4875Y11893D01*
Y11725D01*
X4886D01*
X4892Y11714D01*
X4888Y11708D01*
X4884Y11685D01*
X4888Y11662D01*
X4902Y11642D01*
X4900Y11628D01*
X4897Y11624D01*
X4895Y11613D01*
Y11497D01*
X4897Y11486D01*
X4904Y11476D01*
X4914Y11469D01*
X4925Y11467D01*
X4971D01*
X4982Y11469D01*
X4992Y11476D01*
X4999Y11486D01*
X5001Y11497D01*
Y11613D01*
X4999Y11624D01*
X4992Y11634D01*
X4989Y11636D01*
Y11643D01*
X5002Y11662D01*
X5005Y11678D01*
X5018D01*
X5018Y11674D01*
X5032Y11654D01*
X5034Y11653D01*
Y11636D01*
X5031Y11634D01*
X5024Y11624D01*
X5022Y11613D01*
Y11497D01*
X5024Y11486D01*
X5031Y11476D01*
X5041Y11469D01*
X5052Y11467D01*
X5098D01*
X5109Y11469D01*
X5119Y11476D01*
X5126Y11486D01*
X5128Y11497D01*
Y11613D01*
X5126Y11624D01*
X5119Y11634D01*
X5116Y11636D01*
Y11653D01*
X5118Y11654D01*
X5132Y11674D01*
X5136Y11697D01*
X5132Y11721D01*
X5123Y11733D01*
Y11897D01*
X5120Y11913D01*
X5111Y11926D01*
X5045Y11992D01*
X5050Y12005D01*
X5059Y12006D01*
X5162Y11903D01*
Y11637D01*
X5158Y11634D01*
X5151Y11624D01*
X5149Y11613D01*
Y11497D01*
X5151Y11486D01*
X5158Y11476D01*
X5168Y11469D01*
X5179Y11467D01*
X5225D01*
X5236Y11469D01*
X5246Y11476D01*
X5253Y11486D01*
X5255Y11497D01*
Y11613D01*
X5253Y11624D01*
X5246Y11634D01*
X5243Y11636D01*
Y11920D01*
X5240Y11936D01*
X5231Y11949D01*
X5231Y11949D01*
X5130Y12050D01*
X5135Y12062D01*
X6038D01*
X6107Y11993D01*
X6099Y11983D01*
X6096Y11985D01*
X6080Y11988D01*
X6080Y11988D01*
X5563D01*
X5562Y11988D01*
X5547Y11985D01*
X5534Y11976D01*
X5534Y11976D01*
X5428Y11870D01*
X5419Y11857D01*
X5416Y11842D01*
X5416Y11841D01*
Y11637D01*
X5412Y11634D01*
X5405Y11624D01*
X5403Y11613D01*
Y11497D01*
X5405Y11486D01*
X5412Y11476D01*
X5416Y11473D01*
Y11200D01*
X5413Y11198D01*
X5403Y11191D01*
X5394Y11193D01*
X5394Y11193D01*
X5265D01*
X5265Y11193D01*
X5249Y11190D01*
X5236Y11181D01*
X5236Y11181D01*
X5174Y11119D01*
X5172Y11117D01*
X5168Y11116D01*
X5158Y11109D01*
X5151Y11099D01*
X5149Y11088D01*
Y10972D01*
X5151Y10961D01*
X5158Y10951D01*
X5168Y10944D01*
X5179Y10942D01*
X5225D01*
X5236Y10944D01*
X5246Y10951D01*
X5253Y10961D01*
X5255Y10972D01*
Y11085D01*
X5264Y11094D01*
X5276Y11088D01*
X5276Y11088D01*
Y10972D01*
X5278Y10961D01*
X5279Y10959D01*
X5282Y10946D01*
X5268Y10926D01*
X5264Y10903D01*
X5268Y10879D01*
X5282Y10859D01*
X5302Y10846D01*
X5325Y10841D01*
X5348Y10846D01*
X5368Y10859D01*
X5382Y10879D01*
X5386Y10903D01*
X5382Y10926D01*
X5368Y10946D01*
X5373Y10951D01*
X5373Y10951D01*
X5376Y10955D01*
X5380Y10961D01*
X5382Y10972D01*
Y11088D01*
X5382Y11089D01*
X5393Y11095D01*
X5403Y11086D01*
Y10972D01*
X5405Y10961D01*
X5412Y10951D01*
X5422Y10944D01*
X5433Y10942D01*
X5479D01*
X5490Y10944D01*
X5500Y10951D01*
X5507Y10961D01*
X5509Y10972D01*
Y11088D01*
X5507Y11099D01*
X5500Y11109D01*
X5497Y11111D01*
Y11474D01*
X5500Y11476D01*
X5507Y11486D01*
X5509Y11497D01*
Y11613D01*
X5507Y11624D01*
X5500Y11634D01*
X5497Y11636D01*
Y11825D01*
X5579Y11907D01*
X6063D01*
X6554Y11416D01*
Y10836D01*
X6542Y10831D01*
X6534Y10839D01*
X6521Y10848D01*
X6505Y10851D01*
X6505Y10851D01*
X6472D01*
Y10878D01*
X6411D01*
Y10983D01*
X6413Y10984D01*
X6427Y11004D01*
X6431Y11028D01*
X6427Y11051D01*
X6413Y11071D01*
X6393Y11084D01*
X6370Y11089D01*
X6347Y11084D01*
X6327Y11071D01*
X6313Y11051D01*
X6309Y11028D01*
X6313Y11004D01*
X6327Y10984D01*
X6329Y10983D01*
Y10878D01*
X6268D01*
Y10738D01*
X6472D01*
X6482Y10729D01*
Y10621D01*
X6472Y10613D01*
X6469Y10613D01*
X6268D01*
Y10586D01*
X6167D01*
Y10615D01*
X5958D01*
Y10593D01*
X5854D01*
X5789Y10659D01*
Y10698D01*
X5803D01*
Y10774D01*
X5958D01*
Y10745D01*
X6167D01*
Y10885D01*
X5958D01*
Y10856D01*
X5807D01*
X5751Y10912D01*
Y10949D01*
X5754Y10951D01*
X5761Y10961D01*
X5763Y10972D01*
Y11088D01*
X5761Y11099D01*
X5754Y11109D01*
X5744Y11116D01*
X5733Y11118D01*
X5687D01*
X5676Y11116D01*
X5666Y11109D01*
X5659Y11099D01*
X5657Y11088D01*
Y10972D01*
X5659Y10961D01*
X5666Y10951D01*
X5669Y10949D01*
Y10895D01*
X5669Y10895D01*
X5672Y10879D01*
X5681Y10866D01*
X5743Y10804D01*
X5738Y10793D01*
X5694D01*
Y10698D01*
X5707D01*
Y10642D01*
X5707Y10642D01*
X5710Y10626D01*
X5719Y10613D01*
X5809Y10524D01*
X5809Y10524D01*
X5822Y10515D01*
X5838Y10512D01*
X5958D01*
Y10475D01*
X6167D01*
Y10504D01*
X6268D01*
Y10473D01*
X6469D01*
X6472Y10473D01*
X6482Y10464D01*
Y10357D01*
X6396Y10271D01*
X6258D01*
Y10300D01*
X6053D01*
Y10160D01*
X6258D01*
Y10189D01*
X6412D01*
X6412Y10189D01*
X6428Y10192D01*
X6441Y10201D01*
X6542Y10301D01*
X6554Y10296D01*
Y9987D01*
X6471Y9903D01*
X6258D01*
Y10035D01*
X6053D01*
Y10008D01*
X5842D01*
Y10037D01*
X5778D01*
Y10332D01*
X5778Y10332D01*
X5775Y10348D01*
X5766Y10361D01*
X5766Y10361D01*
X5584Y10544D01*
X5571Y10553D01*
X5555Y10556D01*
X5555Y10556D01*
X5517D01*
X5502Y10553D01*
X5489Y10544D01*
X5489Y10544D01*
X5426Y10481D01*
X5420Y10472D01*
X5408D01*
Y10363D01*
X5503D01*
Y10442D01*
X5528Y10468D01*
X5544Y10468D01*
X5697Y10316D01*
Y10037D01*
X5633D01*
Y9903D01*
X5590D01*
X5590Y9903D01*
X5574Y9900D01*
X5561Y9891D01*
X5561Y9891D01*
X5458Y9788D01*
X5449Y9775D01*
X5446Y9759D01*
X5446Y9759D01*
Y9674D01*
X5444Y9673D01*
X5431Y9653D01*
X5426Y9630D01*
X5431Y9607D01*
X5443Y9589D01*
X5442Y9589D01*
X5436Y9579D01*
X5433Y9568D01*
Y9480D01*
X5407Y9453D01*
X5312D01*
X5286Y9480D01*
Y9568D01*
X5283Y9579D01*
X5277Y9589D01*
X5267Y9596D01*
X5255Y9598D01*
X5210D01*
X5198Y9596D01*
X5188Y9589D01*
X5182Y9579D01*
X5179Y9568D01*
Y9452D01*
X5182Y9441D01*
X5188Y9431D01*
X5198Y9424D01*
X5210Y9422D01*
X5228D01*
X5266Y9384D01*
X5266Y9384D01*
X5279Y9375D01*
X5295Y9372D01*
X5295Y9372D01*
X5424D01*
X5424Y9372D01*
X5440Y9375D01*
X5453Y9384D01*
X5491Y9422D01*
X5509D01*
X5521Y9424D01*
X5531Y9431D01*
X5537Y9441D01*
X5540Y9452D01*
Y9568D01*
X5537Y9579D01*
X5532Y9588D01*
X5544Y9607D01*
X5549Y9630D01*
X5544Y9653D01*
X5531Y9673D01*
X5527Y9676D01*
Y9742D01*
X5560Y9775D01*
X5563Y9774D01*
X5573Y9760D01*
X5573Y9759D01*
X5573Y9759D01*
Y9591D01*
X5569Y9589D01*
X5563Y9579D01*
X5560Y9568D01*
Y9452D01*
X5563Y9441D01*
X5569Y9431D01*
X5579Y9424D01*
X5591Y9422D01*
X5636D01*
X5648Y9424D01*
X5658Y9431D01*
X5664Y9441D01*
X5667Y9452D01*
Y9568D01*
X5664Y9579D01*
X5658Y9589D01*
X5654Y9591D01*
Y9628D01*
X5700D01*
Y9592D01*
X5696Y9589D01*
X5690Y9579D01*
X5687Y9568D01*
Y9452D01*
X5690Y9441D01*
X5696Y9431D01*
X5706Y9424D01*
X5718Y9422D01*
X5763D01*
X5775Y9424D01*
X5785Y9431D01*
X5791Y9441D01*
X5794Y9452D01*
Y9568D01*
X5791Y9579D01*
X5785Y9589D01*
X5782Y9591D01*
Y9628D01*
X5842D01*
Y9762D01*
X5862D01*
Y9663D01*
X5862Y9662D01*
X5865Y9647D01*
X5874Y9634D01*
X6116Y9391D01*
X6116Y9391D01*
X6129Y9382D01*
X6145Y9379D01*
X6145Y9379D01*
X6208D01*
Y9347D01*
X6277D01*
Y9122D01*
X6208D01*
Y8962D01*
X6428D01*
Y9122D01*
X6358D01*
Y9347D01*
X6428D01*
Y9492D01*
X6208D01*
Y9461D01*
X6162D01*
X5943Y9679D01*
Y9785D01*
X5943Y9785D01*
X5940Y9801D01*
X5935Y9809D01*
X5941Y9822D01*
X6487D01*
X6488Y9822D01*
X6503Y9825D01*
X6516Y9834D01*
X6624Y9941D01*
X6624Y9941D01*
X6633Y9954D01*
X6636Y9970D01*
X6636Y9970D01*
Y11432D01*
X6633Y11448D01*
X6631Y11451D01*
X6640Y11459D01*
X6670Y11430D01*
Y11073D01*
X6667Y11071D01*
X6654Y11051D01*
X6649Y11028D01*
X6654Y11005D01*
X6667Y10985D01*
X6687Y10972D01*
X6710Y10967D01*
X6734Y10972D01*
X6754Y10985D01*
X6767Y11005D01*
X6772Y11028D01*
X6767Y11051D01*
X6754Y11071D01*
X6751Y11073D01*
Y11447D01*
X6751Y11447D01*
X6748Y11463D01*
X6739Y11476D01*
X6084Y12131D01*
X6071Y12140D01*
X6068Y12141D01*
X6055Y12143D01*
D02*
G37*
G36*
X6085Y11796D02*
X6085Y11796D01*
X5660D01*
X5660Y11796D01*
X5644Y11793D01*
X5631Y11784D01*
X5631Y11784D01*
X5554Y11707D01*
X5545Y11694D01*
X5542Y11678D01*
X5542Y11678D01*
Y11636D01*
X5539Y11634D01*
X5532Y11624D01*
X5530Y11613D01*
Y11497D01*
X5532Y11486D01*
X5539Y11476D01*
X5549Y11469D01*
X5560Y11467D01*
X5606D01*
X5617Y11469D01*
X5627Y11476D01*
X5634Y11486D01*
X5636Y11497D01*
Y11613D01*
X5634Y11624D01*
X5627Y11634D01*
X5624Y11636D01*
Y11661D01*
X5637Y11674D01*
X5651Y11670D01*
X5654Y11654D01*
X5667Y11635D01*
X5666Y11634D01*
X5659Y11624D01*
X5657Y11613D01*
Y11497D01*
X5659Y11486D01*
X5666Y11476D01*
X5676Y11469D01*
X5687Y11467D01*
X5733D01*
X5744Y11469D01*
X5754Y11476D01*
X5761Y11486D01*
X5763Y11497D01*
Y11613D01*
X5761Y11624D01*
X5754Y11634D01*
X5754Y11634D01*
X5767Y11654D01*
X5772Y11678D01*
X5767Y11701D01*
X5766Y11703D01*
X5772Y11714D01*
X6068D01*
X6325Y11458D01*
X6324Y11453D01*
X6328Y11429D01*
X6342Y11409D01*
X6362Y11396D01*
X6385Y11391D01*
X6408Y11396D01*
X6428Y11409D01*
X6442Y11429D01*
X6446Y11453D01*
X6442Y11476D01*
X6428Y11496D01*
X6408Y11509D01*
X6385Y11514D01*
X6384Y11514D01*
X6114Y11784D01*
X6101Y11793D01*
X6098Y11793D01*
X6085Y11796D01*
D02*
G37*
G36*
X5098Y11118D02*
X5052D01*
X5041Y11116D01*
X5031Y11109D01*
X5024Y11099D01*
X5022Y11088D01*
Y10975D01*
X5016Y10966D01*
X5011Y10943D01*
X5016Y10919D01*
X5029Y10899D01*
X5049Y10886D01*
X5072Y10881D01*
X5096Y10886D01*
X5116Y10899D01*
X5129Y10919D01*
X5134Y10943D01*
X5129Y10966D01*
X5127Y10968D01*
X5128Y10972D01*
Y11088D01*
X5126Y11099D01*
X5119Y11109D01*
X5109Y11116D01*
X5098Y11118D01*
D02*
G37*
G36*
X5606D02*
X5560D01*
X5549Y11116D01*
X5539Y11109D01*
X5532Y11099D01*
X5530Y11088D01*
Y10972D01*
X5532Y10961D01*
X5532Y10961D01*
X5521Y10943D01*
X5516Y10920D01*
X5517Y10917D01*
X5253Y10653D01*
X5182D01*
X5181Y10656D01*
X5161Y10669D01*
X5138Y10674D01*
X5114Y10669D01*
X5094Y10656D01*
X5081Y10636D01*
X5076Y10612D01*
X5081Y10589D01*
X5094Y10569D01*
X5114Y10556D01*
X5138Y10551D01*
X5161Y10556D01*
X5181Y10569D01*
X5182Y10572D01*
X5270D01*
X5270Y10572D01*
X5286Y10575D01*
X5299Y10584D01*
X5575Y10859D01*
X5578Y10859D01*
X5601Y10863D01*
X5621Y10877D01*
X5634Y10897D01*
X5639Y10920D01*
X5634Y10943D01*
X5628Y10952D01*
X5634Y10961D01*
X5636Y10972D01*
Y11088D01*
X5634Y11099D01*
X5627Y11109D01*
X5617Y11116D01*
X5606Y11118D01*
D02*
G37*
G36*
X5165Y10501D02*
X5165Y10501D01*
X5108D01*
X5108Y10501D01*
X5092Y10498D01*
X5079Y10489D01*
X5079Y10489D01*
X4950Y10360D01*
X4941Y10347D01*
X4938Y10332D01*
X4938Y10332D01*
Y10256D01*
X4931Y10252D01*
X4926Y10250D01*
X4912Y10253D01*
X4912Y10253D01*
X4838D01*
Y10315D01*
X4698D01*
Y10110D01*
X4838D01*
Y10172D01*
X4895D01*
X4938Y10128D01*
Y10050D01*
X4874D01*
Y9910D01*
X5084D01*
Y10050D01*
X5020D01*
Y10145D01*
X5020Y10145D01*
X5020Y10145D01*
Y10315D01*
X5120Y10415D01*
X5132Y10409D01*
Y10356D01*
X5227D01*
Y10465D01*
X5215D01*
X5209Y10474D01*
X5209Y10474D01*
X5194Y10489D01*
X5181Y10498D01*
X5178Y10498D01*
X5165Y10501D01*
D02*
G37*
G36*
X5040Y9878D02*
X5040Y9878D01*
X4903D01*
X4903Y9878D01*
X4887Y9875D01*
X4874Y9866D01*
X4746Y9739D01*
X4737Y9726D01*
X4734Y9710D01*
X4734Y9710D01*
Y9657D01*
X4642Y9565D01*
X4433D01*
Y9425D01*
X4643D01*
Y9457D01*
X4646Y9457D01*
X4659Y9466D01*
X4804Y9611D01*
X4804Y9611D01*
X4813Y9624D01*
X4816Y9640D01*
X4816Y9640D01*
Y9693D01*
X4862Y9740D01*
X4874Y9735D01*
Y9640D01*
X4938D01*
Y9592D01*
X4934Y9589D01*
X4928Y9579D01*
X4925Y9568D01*
Y9452D01*
X4928Y9441D01*
X4934Y9431D01*
X4944Y9424D01*
X4956Y9422D01*
X5001D01*
X5013Y9424D01*
X5023Y9431D01*
X5029Y9441D01*
X5032Y9452D01*
Y9568D01*
X5029Y9579D01*
X5023Y9589D01*
X5020Y9591D01*
Y9640D01*
X5054D01*
X5056Y9638D01*
X5061Y9614D01*
X5071Y9599D01*
Y9595D01*
X5061Y9589D01*
X5055Y9579D01*
X5052Y9568D01*
Y9452D01*
X5055Y9441D01*
X5061Y9431D01*
X5071Y9424D01*
X5083Y9422D01*
X5128D01*
X5140Y9424D01*
X5150Y9431D01*
X5156Y9441D01*
X5159Y9452D01*
Y9568D01*
X5156Y9579D01*
X5160Y9594D01*
X5161Y9594D01*
X5174Y9614D01*
X5179Y9638D01*
X5174Y9661D01*
X5161Y9681D01*
X5158Y9682D01*
Y9760D01*
X5158Y9760D01*
X5155Y9776D01*
X5146Y9789D01*
X5069Y9866D01*
X5056Y9875D01*
X5053Y9876D01*
X5040Y9878D01*
D02*
G37*
G36*
X6428Y9763D02*
X6208D01*
Y9754D01*
X6195Y9745D01*
X6178Y9749D01*
X6154Y9744D01*
X6134Y9731D01*
X6121Y9711D01*
X6116Y9688D01*
X6121Y9664D01*
X6134Y9644D01*
X6154Y9631D01*
X6178Y9626D01*
X6195Y9630D01*
X6208Y9621D01*
Y9618D01*
X6428D01*
Y9763D01*
D02*
G37*
G36*
X6122Y9315D02*
X5922D01*
Y9115D01*
X5963D01*
X5968Y9103D01*
X5806Y8942D01*
X5794Y8946D01*
Y9043D01*
X5791Y9054D01*
X5785Y9064D01*
X5775Y9071D01*
X5763Y9073D01*
X5718D01*
X5706Y9071D01*
X5696Y9064D01*
X5690Y9054D01*
X5687Y9043D01*
Y9026D01*
X5667D01*
Y9043D01*
X5664Y9054D01*
X5658Y9064D01*
X5648Y9071D01*
X5636Y9073D01*
X5591D01*
X5579Y9071D01*
X5569Y9064D01*
X5563Y9054D01*
X5560Y9043D01*
Y8927D01*
X5563Y8916D01*
X5569Y8906D01*
X5579Y8899D01*
X5591Y8897D01*
X5636D01*
X5648Y8899D01*
X5658Y8906D01*
X5664Y8916D01*
X5667Y8927D01*
Y8944D01*
X5687D01*
Y8927D01*
X5690Y8916D01*
X5696Y8906D01*
X5706Y8900D01*
X5712Y8891D01*
X5734Y8869D01*
X5734Y8869D01*
X5747Y8860D01*
X5762Y8857D01*
X5763Y8857D01*
X5820D01*
X5820Y8857D01*
X5836Y8860D01*
X5849Y8869D01*
X6059Y9079D01*
X6059Y9079D01*
X6068Y9092D01*
X6071Y9108D01*
Y9115D01*
X6122D01*
Y9315D01*
D02*
G37*
G36*
X5509Y9073D02*
X5464D01*
X5452Y9071D01*
X5442Y9064D01*
X5436Y9054D01*
X5433Y9043D01*
Y8927D01*
X5436Y8916D01*
X5442Y8906D01*
X5446Y8903D01*
Y8835D01*
X5422D01*
X5417Y8845D01*
X5417Y8848D01*
X5421Y8870D01*
X5417Y8893D01*
X5406Y8909D01*
X5410Y8916D01*
X5413Y8927D01*
Y9043D01*
X5410Y9054D01*
X5404Y9064D01*
X5394Y9071D01*
X5382Y9073D01*
X5337D01*
X5325Y9071D01*
X5315Y9064D01*
X5309Y9054D01*
X5306Y9043D01*
Y8927D01*
X5309Y8916D01*
X5314Y8909D01*
X5305Y8895D01*
X5297Y8893D01*
X5291Y8894D01*
X5281Y8908D01*
X5280Y8911D01*
X5283Y8916D01*
X5286Y8927D01*
Y9043D01*
X5283Y9054D01*
X5277Y9064D01*
X5267Y9071D01*
X5255Y9073D01*
X5210D01*
X5198Y9071D01*
X5188Y9064D01*
X5182Y9054D01*
X5179Y9043D01*
Y8927D01*
X5182Y8916D01*
X5188Y8906D01*
X5191Y8904D01*
X5181Y8888D01*
X5176Y8865D01*
X5181Y8842D01*
X5194Y8822D01*
X5214Y8808D01*
X5238Y8804D01*
X5261Y8808D01*
X5281Y8822D01*
X5293Y8840D01*
X5301Y8841D01*
X5307Y8841D01*
X5317Y8827D01*
X5337Y8813D01*
X5349Y8811D01*
X5348Y8798D01*
X5328D01*
X5328Y8798D01*
X5312Y8795D01*
X5299Y8786D01*
X5299Y8786D01*
X5159Y8646D01*
X5147Y8651D01*
Y8904D01*
X5150Y8906D01*
X5156Y8916D01*
X5159Y8927D01*
Y9043D01*
X5156Y9054D01*
X5150Y9064D01*
X5140Y9071D01*
X5128Y9073D01*
X5083D01*
X5071Y9071D01*
X5061Y9064D01*
X5055Y9054D01*
X5052Y9043D01*
Y8927D01*
X5055Y8916D01*
X5061Y8906D01*
X5065Y8903D01*
Y8553D01*
X4988Y8476D01*
X4985Y8476D01*
X4962Y8472D01*
X4942Y8458D01*
X4940Y8456D01*
X4895D01*
Y8655D01*
X4755D01*
Y8445D01*
X4784D01*
Y8433D01*
X4784Y8433D01*
X4787Y8417D01*
X4796Y8404D01*
X4814Y8386D01*
X4814Y8386D01*
X4827Y8377D01*
X4843Y8374D01*
X4843Y8374D01*
X4940D01*
X4942Y8372D01*
X4962Y8358D01*
X4985Y8354D01*
X5008Y8358D01*
X5013Y8362D01*
X5020Y8357D01*
X5035Y8354D01*
X5035Y8354D01*
X5184D01*
X5191Y8342D01*
X5190Y8341D01*
X4940D01*
X4938Y8343D01*
X4918Y8357D01*
X4895Y8361D01*
X4872Y8357D01*
X4852Y8343D01*
X4838Y8323D01*
X4834Y8300D01*
X4836Y8288D01*
X4826Y8275D01*
X4628D01*
Y8258D01*
X4308D01*
X4308Y8258D01*
X4292Y8255D01*
X4279Y8246D01*
X4279Y8246D01*
X4189Y8156D01*
X4180Y8143D01*
X4177Y8128D01*
X4177Y8127D01*
Y8060D01*
X4108D01*
Y7900D01*
X4328D01*
Y8060D01*
X4258D01*
Y8111D01*
X4324Y8177D01*
X4628D01*
Y8135D01*
X4838D01*
Y8149D01*
X5881D01*
X5886Y8137D01*
X5841Y8091D01*
X5832Y8078D01*
X5829Y8062D01*
X5829Y8062D01*
Y7899D01*
X5812Y7882D01*
X5800Y7887D01*
Y8078D01*
X5660D01*
Y7996D01*
X5599D01*
Y8030D01*
X5419D01*
Y7880D01*
X5471D01*
Y7791D01*
X5468Y7789D01*
X5461Y7779D01*
X5459Y7768D01*
Y7652D01*
X5461Y7641D01*
X5468Y7631D01*
X5478Y7624D01*
X5489Y7622D01*
X5535D01*
X5546Y7624D01*
X5556Y7631D01*
X5563Y7641D01*
X5565Y7652D01*
Y7768D01*
X5563Y7779D01*
X5556Y7789D01*
X5553Y7791D01*
Y7880D01*
X5599D01*
Y7914D01*
X5660D01*
Y7868D01*
X5781D01*
X5786Y7856D01*
X5737Y7807D01*
X5728Y7794D01*
X5728Y7793D01*
X5722Y7789D01*
X5715Y7779D01*
X5713Y7768D01*
Y7751D01*
X5692D01*
Y7768D01*
X5690Y7779D01*
X5683Y7789D01*
X5673Y7796D01*
X5662Y7798D01*
X5616D01*
X5605Y7796D01*
X5595Y7789D01*
X5588Y7779D01*
X5586Y7768D01*
Y7652D01*
X5588Y7641D01*
X5595Y7631D01*
X5605Y7624D01*
X5616Y7622D01*
X5662D01*
X5673Y7624D01*
X5683Y7631D01*
X5690Y7641D01*
X5692Y7652D01*
Y7669D01*
X5713D01*
Y7652D01*
X5715Y7641D01*
X5722Y7631D01*
X5732Y7624D01*
X5743Y7622D01*
X5789D01*
X5800Y7624D01*
X5810Y7631D01*
X5817Y7641D01*
X5819Y7652D01*
Y7768D01*
X5818Y7773D01*
X5899Y7854D01*
X5899Y7854D01*
X5908Y7867D01*
X5911Y7882D01*
X5911Y7883D01*
Y8044D01*
X5918Y8050D01*
X5930Y8044D01*
Y7868D01*
X6032D01*
Y7525D01*
X5967D01*
Y7385D01*
X6177D01*
Y7414D01*
X6353D01*
Y7370D01*
X6572D01*
Y7530D01*
X6353D01*
Y7496D01*
X6177D01*
Y7525D01*
X6113D01*
Y7938D01*
X6113Y7938D01*
X6110Y7953D01*
X6101Y7966D01*
X6101Y7966D01*
X6070Y7998D01*
Y8062D01*
X6083Y8067D01*
X6351Y7799D01*
X6353Y7798D01*
Y7640D01*
X6572D01*
Y7800D01*
X6520D01*
X6511Y7813D01*
X6514Y7828D01*
X6509Y7851D01*
X6501Y7862D01*
X6508Y7875D01*
X6565D01*
Y8015D01*
X6355D01*
Y7927D01*
X6343Y7922D01*
X6129Y8137D01*
X6134Y8149D01*
X6355D01*
Y8145D01*
X6565D01*
Y8285D01*
X6355D01*
Y8231D01*
X5272D01*
X5271Y8243D01*
X5291Y8257D01*
X5304Y8277D01*
X5309Y8300D01*
X5304Y8323D01*
X5292Y8342D01*
X5295Y8354D01*
X6313D01*
X6322Y8348D01*
X6345Y8344D01*
X6368Y8348D01*
X6388Y8362D01*
X6402Y8382D01*
X6406Y8405D01*
X6402Y8428D01*
X6388Y8448D01*
X6368Y8462D01*
X6345Y8466D01*
X6322Y8462D01*
X6302Y8448D01*
X6293Y8436D01*
X5080D01*
X5075Y8448D01*
X5135Y8507D01*
X5344Y8717D01*
X5380D01*
Y8675D01*
X5600D01*
Y8835D01*
X5528D01*
Y8904D01*
X5531Y8906D01*
X5537Y8916D01*
X5540Y8927D01*
Y9043D01*
X5537Y9054D01*
X5531Y9064D01*
X5521Y9071D01*
X5509Y9073D01*
D02*
G37*
G36*
X5001D02*
X4956D01*
X4944Y9071D01*
X4934Y9064D01*
X4928Y9054D01*
X4925Y9043D01*
Y8927D01*
X4928Y8916D01*
X4930Y8912D01*
X4922Y8900D01*
X4918Y8877D01*
X4922Y8853D01*
X4936Y8833D01*
X4956Y8820D01*
X4979Y8815D01*
X5002Y8820D01*
X5022Y8833D01*
X5036Y8853D01*
X5040Y8877D01*
X5036Y8900D01*
X5027Y8912D01*
X5029Y8916D01*
X5032Y8927D01*
Y9043D01*
X5029Y9054D01*
X5023Y9064D01*
X5013Y9071D01*
X5001Y9073D01*
D02*
G37*
G36*
X6428Y8862D02*
X6208D01*
Y8702D01*
X6266D01*
X6267Y8701D01*
X6272Y8690D01*
X6261Y8673D01*
X6256Y8650D01*
X6261Y8627D01*
X6274Y8607D01*
X6294Y8593D01*
X6317Y8589D01*
X6341Y8593D01*
X6361Y8607D01*
X6374Y8627D01*
X6379Y8650D01*
X6374Y8673D01*
X6363Y8690D01*
X6368Y8701D01*
X6369Y8702D01*
X6428D01*
Y8862D01*
D02*
G37*
G36*
X4390Y8655D02*
X4250D01*
Y8445D01*
X4390D01*
Y8509D01*
X4485D01*
Y8445D01*
X4625D01*
Y8655D01*
X4485D01*
Y8591D01*
X4390D01*
Y8655D01*
D02*
G37*
G36*
X5348Y8025D02*
X5168D01*
Y7976D01*
X4838D01*
Y8005D01*
X4628D01*
Y7865D01*
X4838D01*
Y7894D01*
X5098D01*
X5099Y7882D01*
X5087Y7879D01*
X5067Y7866D01*
X5053Y7846D01*
X5049Y7822D01*
X5053Y7803D01*
X5042Y7798D01*
X5033Y7811D01*
X5033Y7811D01*
X5008Y7836D01*
X4995Y7845D01*
X4979Y7848D01*
X4979Y7848D01*
X4685D01*
X4669Y7845D01*
X4656Y7836D01*
X4656Y7836D01*
X4571Y7751D01*
X4328D01*
Y7790D01*
X4108D01*
Y7630D01*
X4177D01*
Y7478D01*
X4125D01*
Y7278D01*
X4325D01*
Y7478D01*
X4258D01*
Y7630D01*
X4328D01*
Y7669D01*
X4587D01*
X4588Y7669D01*
X4603Y7672D01*
X4616Y7681D01*
X4702Y7767D01*
X4951D01*
Y7652D01*
X4953Y7641D01*
X4960Y7631D01*
X4970Y7624D01*
X4981Y7622D01*
X5027D01*
X5038Y7624D01*
X5048Y7631D01*
X5055Y7641D01*
X5057Y7652D01*
Y7669D01*
X5078D01*
Y7652D01*
X5080Y7641D01*
X5087Y7631D01*
X5097Y7624D01*
X5108Y7622D01*
X5154D01*
X5165Y7624D01*
X5175Y7631D01*
X5182Y7641D01*
X5184Y7652D01*
Y7768D01*
X5182Y7779D01*
X5175Y7789D01*
X5172Y7791D01*
Y7801D01*
X5169Y7814D01*
X5171Y7822D01*
X5167Y7846D01*
X5153Y7866D01*
X5133Y7879D01*
X5121Y7882D01*
X5122Y7894D01*
X5168D01*
Y7875D01*
X5217D01*
Y7791D01*
X5214Y7789D01*
X5207Y7779D01*
X5205Y7768D01*
Y7652D01*
X5207Y7641D01*
X5214Y7631D01*
X5224Y7624D01*
X5235Y7622D01*
X5281D01*
X5292Y7624D01*
X5302Y7631D01*
X5309Y7641D01*
X5311Y7652D01*
Y7768D01*
X5309Y7779D01*
X5302Y7789D01*
X5299Y7791D01*
Y7875D01*
X5348D01*
Y8025D01*
D02*
G37*
G36*
X4695Y7465D02*
X4495D01*
Y7265D01*
X4695D01*
Y7465D01*
D02*
G37*
G36*
X5789Y7273D02*
X5743D01*
X5732Y7271D01*
X5722Y7264D01*
X5715Y7254D01*
X5713Y7243D01*
Y7127D01*
X5715Y7116D01*
X5722Y7106D01*
X5725Y7104D01*
Y7019D01*
X5725Y7019D01*
X5728Y7007D01*
X5727Y7006D01*
X5714Y7002D01*
X5680Y7037D01*
Y7104D01*
X5683Y7106D01*
X5690Y7116D01*
X5692Y7127D01*
Y7243D01*
X5690Y7254D01*
X5683Y7264D01*
X5673Y7271D01*
X5662Y7273D01*
X5616D01*
X5605Y7271D01*
X5595Y7264D01*
X5588Y7254D01*
X5586Y7243D01*
Y7127D01*
X5588Y7116D01*
X5595Y7106D01*
X5598Y7104D01*
Y7020D01*
X5598Y7020D01*
X5601Y7004D01*
X5610Y6991D01*
X5880Y6721D01*
X5880Y6721D01*
X5893Y6712D01*
X5909Y6709D01*
X5909Y6709D01*
X6200D01*
X6200Y6709D01*
X6216Y6712D01*
X6229Y6721D01*
X6346Y6838D01*
X6357Y6843D01*
Y6843D01*
X6357Y6843D01*
X6422D01*
Y6667D01*
X6360D01*
Y6527D01*
X6570D01*
Y6667D01*
X6503D01*
Y6843D01*
X6567D01*
Y6983D01*
X6357D01*
Y6952D01*
X6347Y6950D01*
X6334Y6941D01*
X6334Y6941D01*
X6183Y6791D01*
X5926D01*
X5893Y6823D01*
X5897Y6836D01*
X5898Y6837D01*
X5910Y6834D01*
X5910Y6834D01*
X5977D01*
X5978Y6834D01*
X5993Y6837D01*
X6006Y6846D01*
X6101Y6941D01*
X6101Y6941D01*
X6110Y6954D01*
X6113Y6970D01*
Y7115D01*
X6177D01*
Y7144D01*
X6357D01*
Y7112D01*
X6567D01*
Y7252D01*
X6357D01*
Y7226D01*
X6177D01*
Y7255D01*
X5967D01*
Y7115D01*
X6032D01*
Y6987D01*
X5961Y6916D01*
X5927D01*
X5807Y7036D01*
Y7104D01*
X5810Y7106D01*
X5817Y7116D01*
X5819Y7127D01*
Y7243D01*
X5817Y7254D01*
X5810Y7264D01*
X5800Y7271D01*
X5789Y7273D01*
D02*
G37*
G36*
X5408D02*
X5362D01*
X5351Y7271D01*
X5341Y7264D01*
X5334Y7254D01*
X5332Y7243D01*
Y7127D01*
X5334Y7116D01*
X5341Y7106D01*
X5347Y7102D01*
Y7017D01*
X5344Y7016D01*
X5331Y6996D01*
X5326Y6972D01*
X5327Y6967D01*
X5308Y6947D01*
X5296Y6952D01*
Y7102D01*
X5302Y7106D01*
X5309Y7116D01*
X5311Y7127D01*
Y7243D01*
X5309Y7254D01*
X5302Y7264D01*
X5292Y7271D01*
X5281Y7273D01*
X5235D01*
X5224Y7271D01*
X5214Y7264D01*
X5207Y7254D01*
X5205Y7243D01*
Y7127D01*
X5207Y7116D01*
X5214Y7106D01*
X5214Y7106D01*
Y6932D01*
X5204Y6921D01*
X5192Y6928D01*
X5194Y6938D01*
X5189Y6961D01*
X5176Y6981D01*
X5174Y6982D01*
Y7105D01*
X5175Y7106D01*
X5182Y7116D01*
X5184Y7127D01*
Y7243D01*
X5182Y7254D01*
X5175Y7264D01*
X5165Y7271D01*
X5154Y7273D01*
X5108D01*
X5097Y7271D01*
X5087Y7264D01*
X5080Y7254D01*
X5078Y7243D01*
Y7226D01*
X5057D01*
Y7243D01*
X5055Y7254D01*
X5048Y7264D01*
X5038Y7271D01*
X5027Y7273D01*
X4981D01*
X4970Y7271D01*
X4960Y7264D01*
X4953Y7254D01*
X4951Y7243D01*
Y7127D01*
X4953Y7116D01*
X4960Y7106D01*
X4970Y7099D01*
X4981Y7097D01*
X5027D01*
X5038Y7099D01*
X5048Y7106D01*
X5055Y7116D01*
X5057Y7127D01*
Y7144D01*
X5078D01*
Y7127D01*
X5080Y7116D01*
X5087Y7106D01*
X5092Y7102D01*
Y6982D01*
X5089Y6981D01*
X5076Y6961D01*
X5072Y6938D01*
X5076Y6914D01*
X5083Y6903D01*
X5077Y6891D01*
X4710D01*
X4710Y6891D01*
X4694Y6888D01*
X4681Y6879D01*
X4681Y6879D01*
X4651Y6849D01*
X4646Y6841D01*
X4613D01*
Y6631D01*
X4753D01*
Y6694D01*
X4778D01*
Y6630D01*
X4918D01*
Y6809D01*
X5048D01*
Y6630D01*
X5136D01*
X5141Y6618D01*
X5103Y6581D01*
X4715D01*
X4699Y6578D01*
X4686Y6569D01*
X4686Y6569D01*
X4424Y6306D01*
X4314Y6196D01*
X4305Y6183D01*
X4302Y6167D01*
X4302Y6167D01*
Y4445D01*
X4302Y4445D01*
X4305Y4429D01*
X4314Y4416D01*
X4451Y4279D01*
X4451Y4279D01*
X4464Y4270D01*
X4480Y4267D01*
X4480Y4267D01*
X4930D01*
Y4165D01*
X5140D01*
Y4274D01*
X5355D01*
Y4235D01*
X5575D01*
Y4274D01*
X5620D01*
Y4235D01*
X5810D01*
Y4274D01*
X5924D01*
X5928Y4265D01*
X5944Y4244D01*
X5965Y4228D01*
X5989Y4218D01*
X6015Y4214D01*
X6041Y4218D01*
X6065Y4228D01*
X6086Y4244D01*
X6102Y4265D01*
X6112Y4289D01*
X6116Y4315D01*
X6112Y4341D01*
X6102Y4365D01*
X6086Y4386D01*
X6065Y4402D01*
X6041Y4412D01*
X6015Y4416D01*
X5989Y4412D01*
X5965Y4402D01*
X5944Y4386D01*
X5928Y4365D01*
X5924Y4356D01*
X5810D01*
Y4395D01*
X5620D01*
Y4356D01*
X5575D01*
Y4395D01*
X5355D01*
Y4356D01*
X5140D01*
Y4465D01*
X4930D01*
Y4348D01*
X4760D01*
X4750Y4355D01*
Y4495D01*
X4540D01*
Y4355D01*
X4530Y4348D01*
X4497D01*
X4383Y4462D01*
Y6151D01*
X4469Y6237D01*
X4661D01*
Y6080D01*
X4851D01*
Y6119D01*
X4903D01*
Y6080D01*
X5123D01*
Y6240D01*
X5078D01*
X5073Y6252D01*
X5184Y6363D01*
X5197Y6357D01*
X5208Y6341D01*
X5204Y6334D01*
X5201Y6323D01*
Y6207D01*
X5204Y6196D01*
X5210Y6186D01*
X5220Y6179D01*
X5232Y6177D01*
X5277D01*
X5289Y6179D01*
X5299Y6186D01*
X5305Y6196D01*
X5308Y6207D01*
Y6323D01*
X5305Y6334D01*
X5299Y6344D01*
X5309Y6359D01*
X5314Y6383D01*
X5313Y6384D01*
X5325Y6390D01*
X5339Y6376D01*
Y6345D01*
X5337Y6344D01*
X5331Y6334D01*
X5328Y6323D01*
Y6207D01*
X5331Y6196D01*
X5337Y6186D01*
X5347Y6179D01*
X5359Y6177D01*
X5404D01*
X5416Y6179D01*
X5426Y6186D01*
X5432Y6196D01*
X5435Y6207D01*
Y6323D01*
X5432Y6334D01*
X5426Y6344D01*
X5421Y6347D01*
Y6392D01*
X5418Y6408D01*
X5409Y6421D01*
X5409Y6421D01*
X5344Y6486D01*
X5331Y6495D01*
X5315Y6498D01*
X5315Y6498D01*
X5221D01*
X5221Y6498D01*
X5206Y6495D01*
X5193Y6486D01*
X4984Y6277D01*
X4975Y6264D01*
X4972Y6249D01*
X4963Y6240D01*
X4903D01*
Y6201D01*
X4851D01*
Y6240D01*
X4793D01*
X4785Y6253D01*
X4785Y6253D01*
X4731Y6306D01*
X4718Y6315D01*
X4703Y6318D01*
X4702Y6318D01*
X4568D01*
X4563Y6330D01*
X4732Y6499D01*
X5120D01*
X5120Y6499D01*
X5136Y6502D01*
X5149Y6511D01*
X5344Y6706D01*
X5344Y6706D01*
X5353Y6719D01*
X5356Y6735D01*
Y6880D01*
X5387Y6911D01*
X5388Y6911D01*
X5411Y6916D01*
X5431Y6929D01*
X5444Y6949D01*
X5449Y6972D01*
X5444Y6996D01*
X5431Y7016D01*
X5428Y7017D01*
Y7105D01*
X5429Y7106D01*
X5436Y7116D01*
X5438Y7127D01*
Y7243D01*
X5436Y7254D01*
X5429Y7264D01*
X5419Y7271D01*
X5408Y7273D01*
D02*
G37*
G36*
X5535D02*
X5489D01*
X5478Y7271D01*
X5468Y7264D01*
X5461Y7254D01*
X5459Y7243D01*
Y7127D01*
X5461Y7116D01*
X5468Y7106D01*
X5471Y7104D01*
Y6980D01*
X5471Y6980D01*
X5474Y6965D01*
X5483Y6952D01*
X5727Y6708D01*
X5722Y6695D01*
X5707D01*
Y6485D01*
X5847D01*
Y6549D01*
X5882D01*
Y6515D01*
X6062D01*
Y6665D01*
X5882D01*
Y6631D01*
X5847D01*
Y6695D01*
X5818D01*
Y6715D01*
X5818Y6715D01*
X5815Y6731D01*
X5806Y6744D01*
X5806Y6744D01*
X5553Y6997D01*
Y7104D01*
X5556Y7106D01*
X5563Y7116D01*
X5565Y7127D01*
Y7243D01*
X5563Y7254D01*
X5556Y7264D01*
X5546Y7271D01*
X5535Y7273D01*
D02*
G37*
G36*
X5578Y6695D02*
X5438D01*
Y6485D01*
X5468D01*
Y6352D01*
X5468Y6352D01*
X5468Y6352D01*
Y6346D01*
X5464Y6344D01*
X5458Y6334D01*
X5455Y6323D01*
Y6207D01*
X5458Y6196D01*
X5464Y6186D01*
X5474Y6179D01*
X5486Y6177D01*
X5531D01*
X5543Y6179D01*
X5553Y6186D01*
X5559Y6196D01*
X5562Y6207D01*
Y6323D01*
X5559Y6334D01*
X5555Y6341D01*
X5567Y6353D01*
X5580Y6347D01*
X5587Y6337D01*
X5585Y6334D01*
X5582Y6323D01*
Y6207D01*
X5585Y6196D01*
X5591Y6186D01*
X5601Y6179D01*
X5613Y6177D01*
X5658D01*
X5670Y6179D01*
X5680Y6186D01*
X5686Y6196D01*
X5689Y6207D01*
Y6323D01*
X5686Y6334D01*
X5685Y6337D01*
X5690Y6347D01*
X5703Y6353D01*
X5877Y6179D01*
Y6085D01*
X5817D01*
Y5885D01*
X6017D01*
Y6085D01*
X5958D01*
Y6196D01*
X5958Y6196D01*
X5955Y6212D01*
X5946Y6225D01*
X5695Y6476D01*
X5682Y6485D01*
X5666Y6488D01*
X5666Y6488D01*
X5604D01*
X5590Y6486D01*
X5585Y6488D01*
X5578Y6493D01*
Y6695D01*
D02*
G37*
G36*
X5277Y5828D02*
X5232D01*
X5220Y5826D01*
X5210Y5819D01*
X5204Y5809D01*
X5201Y5798D01*
Y5682D01*
X5204Y5671D01*
X5208Y5664D01*
X5198Y5648D01*
X5193Y5625D01*
X5198Y5602D01*
X5211Y5582D01*
X5231Y5568D01*
X5254Y5564D01*
X5278Y5568D01*
X5298Y5582D01*
X5311Y5602D01*
X5316Y5625D01*
X5311Y5648D01*
X5301Y5664D01*
X5305Y5671D01*
X5308Y5682D01*
Y5798D01*
X5305Y5809D01*
X5299Y5819D01*
X5289Y5826D01*
X5277Y5828D01*
D02*
G37*
G36*
X5531D02*
X5486D01*
X5474Y5826D01*
X5464Y5819D01*
X5458Y5809D01*
X5455Y5798D01*
Y5682D01*
X5458Y5671D01*
X5464Y5661D01*
X5467Y5659D01*
X5456Y5643D01*
X5451Y5620D01*
X5456Y5597D01*
X5469Y5577D01*
X5489Y5563D01*
X5512Y5559D01*
X5536Y5563D01*
X5556Y5577D01*
X5569Y5597D01*
X5574Y5620D01*
X5569Y5643D01*
X5556Y5663D01*
X5555Y5665D01*
X5559Y5671D01*
X5562Y5682D01*
Y5798D01*
X5559Y5809D01*
X5553Y5819D01*
X5543Y5826D01*
X5531Y5828D01*
D02*
G37*
G36*
X5404D02*
X5359D01*
X5347Y5826D01*
X5337Y5819D01*
X5331Y5809D01*
X5328Y5798D01*
Y5682D01*
X5331Y5671D01*
X5337Y5661D01*
X5341Y5659D01*
Y5490D01*
X5288D01*
Y5406D01*
X5010D01*
Y5472D01*
X4850D01*
Y5258D01*
X5010D01*
Y5324D01*
X5288D01*
Y5290D01*
X5487D01*
Y5349D01*
X5653D01*
Y5265D01*
X5792D01*
Y5470D01*
X5653D01*
Y5431D01*
X5487D01*
Y5490D01*
X5422D01*
Y5659D01*
X5426Y5661D01*
X5432Y5671D01*
X5435Y5682D01*
Y5798D01*
X5432Y5809D01*
X5426Y5819D01*
X5416Y5826D01*
X5404Y5828D01*
D02*
G37*
G36*
X6058Y5470D02*
X5918D01*
Y5265D01*
X6058D01*
Y5327D01*
X6138D01*
Y5202D01*
X6185D01*
X6227Y5161D01*
Y5097D01*
X6197D01*
Y4892D01*
X6338D01*
Y5097D01*
X6308D01*
Y5177D01*
X6308Y5178D01*
X6305Y5193D01*
X6296Y5206D01*
X6296Y5206D01*
X6278Y5225D01*
Y5412D01*
X6138D01*
Y5408D01*
X6058D01*
Y5470D01*
D02*
G37*
G36*
X5407Y5106D02*
X5382Y5103D01*
X5359Y5093D01*
X5339Y5078D01*
X5324Y5058D01*
X5314Y5035D01*
X5311Y5010D01*
X5314Y4985D01*
X5324Y4962D01*
X5339Y4942D01*
X5359Y4927D01*
X5382Y4917D01*
X5407Y4914D01*
X5432Y4917D01*
X5455Y4927D01*
X5475Y4942D01*
X5490Y4962D01*
X5493Y4969D01*
X5635D01*
Y4897D01*
X5835D01*
Y4956D01*
X5932D01*
Y4892D01*
X6072D01*
Y5097D01*
X5932D01*
Y5038D01*
X5835D01*
Y5097D01*
X5635D01*
Y5051D01*
X5493D01*
X5490Y5058D01*
X5475Y5078D01*
X5455Y5093D01*
X5432Y5103D01*
X5407Y5106D01*
D02*
G37*
G36*
X4725Y5472D02*
X4565D01*
Y5258D01*
X4604D01*
Y5096D01*
X4597Y5093D01*
X4577Y5078D01*
X4562Y5058D01*
X4552Y5035D01*
X4549Y5010D01*
X4552Y4985D01*
X4562Y4962D01*
X4577Y4942D01*
X4597Y4927D01*
X4604Y4924D01*
Y4765D01*
X4540D01*
Y4625D01*
X4750D01*
Y4765D01*
X4686D01*
Y4924D01*
X4693Y4927D01*
X4713Y4942D01*
X4728Y4962D01*
X4738Y4985D01*
X4741Y5010D01*
X4738Y5035D01*
X4728Y5058D01*
X4713Y5078D01*
X4693Y5093D01*
X4686Y5096D01*
Y5258D01*
X4725D01*
Y5472D01*
D02*
G37*
G36*
X6550Y4441D02*
X6513Y4437D01*
X6477Y4426D01*
X6444Y4409D01*
X6415Y4385D01*
X6391Y4356D01*
X6374Y4323D01*
X6363Y4287D01*
X6359Y4250D01*
X6363Y4213D01*
X6374Y4177D01*
X6391Y4144D01*
X6415Y4115D01*
X6444Y4091D01*
X6477Y4074D01*
X6513Y4063D01*
X6550Y4059D01*
X6587Y4063D01*
X6623Y4074D01*
X6656Y4091D01*
X6685Y4115D01*
X6709Y4144D01*
X6726Y4177D01*
X6737Y4213D01*
X6741Y4250D01*
X6737Y4287D01*
X6726Y4323D01*
X6709Y4356D01*
X6685Y4385D01*
X6656Y4409D01*
X6623Y4426D01*
X6587Y4437D01*
X6550Y4441D01*
D02*
G37*
G36*
X4160D02*
X4123Y4437D01*
X4087Y4426D01*
X4054Y4409D01*
X4025Y4385D01*
X4001Y4356D01*
X3984Y4323D01*
X3973Y4287D01*
X3969Y4250D01*
X3973Y4213D01*
X3984Y4177D01*
X4001Y4144D01*
X4025Y4115D01*
X4054Y4091D01*
X4087Y4074D01*
X4123Y4063D01*
X4160Y4059D01*
X4197Y4063D01*
X4233Y4074D01*
X4266Y4091D01*
X4295Y4115D01*
X4319Y4144D01*
X4336Y4177D01*
X4347Y4213D01*
X4351Y4250D01*
X4347Y4287D01*
X4336Y4323D01*
X4319Y4356D01*
X4295Y4385D01*
X4266Y4409D01*
X4233Y4426D01*
X4197Y4437D01*
X4160Y4441D01*
D02*
G37*
%LPD*%
G36*
X4747Y12050D02*
X4646Y11949D01*
X4637Y11936D01*
X4637Y11935D01*
X4605D01*
Y11871D01*
X4467D01*
Y11938D01*
X4328D01*
Y11728D01*
X4467D01*
Y11789D01*
X4605D01*
Y11725D01*
X4745D01*
Y11932D01*
X4819Y12007D01*
X4840D01*
X4845Y11995D01*
X4771Y11921D01*
X4762Y11908D01*
X4759Y11893D01*
X4759Y11893D01*
Y11187D01*
X4744Y11172D01*
X4698D01*
X4666Y11205D01*
X4666Y11207D01*
X4662Y11231D01*
X4648Y11251D01*
X4628Y11264D01*
X4605Y11269D01*
X4604Y11268D01*
X4466Y11406D01*
X4453Y11415D01*
X4437Y11418D01*
X4437Y11418D01*
X4400D01*
Y11592D01*
X4200D01*
Y11436D01*
X4187Y11430D01*
X4086Y11532D01*
Y11981D01*
X4167Y12062D01*
X4742D01*
X4747Y12050D01*
D02*
G37*
D10*
X4275Y10738D02*
D03*
Y10473D02*
D03*
X6370Y10543D02*
D03*
Y10807D02*
D03*
X6155Y10230D02*
D03*
Y9965D02*
D03*
D11*
X4383Y10987D02*
D03*
Y11258D02*
D03*
X4538Y9495D02*
D03*
Y9765D02*
D03*
X6062Y10545D02*
D03*
Y10815D02*
D03*
X6465Y6597D02*
D03*
Y6328D02*
D03*
X4979Y9980D02*
D03*
Y9710D02*
D03*
X5738Y9967D02*
D03*
Y9697D02*
D03*
X6462Y6913D02*
D03*
Y7182D02*
D03*
X6072Y7455D02*
D03*
Y7185D02*
D03*
X6460Y8215D02*
D03*
Y7945D02*
D03*
X4733Y8205D02*
D03*
Y7935D02*
D03*
X4645Y4695D02*
D03*
Y4425D02*
D03*
D12*
X6318Y9042D02*
D03*
Y8782D02*
D03*
X4567Y10460D02*
D03*
Y10750D02*
D03*
X4217Y7980D02*
D03*
Y7710D02*
D03*
X6462Y7720D02*
D03*
Y7450D02*
D03*
X5490Y8755D02*
D03*
Y8485D02*
D03*
X5013Y5890D02*
D03*
Y6160D02*
D03*
X5465Y4315D02*
D03*
Y4585D02*
D03*
D13*
X6318Y9690D02*
D03*
Y9420D02*
D03*
D14*
X4945Y11830D02*
D03*
X4675D02*
D03*
X4127Y11832D02*
D03*
X4397D02*
D03*
X5730Y7973D02*
D03*
X6000D02*
D03*
X4320Y8550D02*
D03*
X4050D02*
D03*
X5508Y6590D02*
D03*
X5777D02*
D03*
X4683Y6736D02*
D03*
X4413D02*
D03*
X4555Y8550D02*
D03*
X4825D02*
D03*
X4848Y6735D02*
D03*
X5118D02*
D03*
X6478Y5307D02*
D03*
X6208D02*
D03*
D15*
X5710Y11555D02*
D03*
X5583D02*
D03*
X5456D02*
D03*
X5329D02*
D03*
X5202D02*
D03*
X5075D02*
D03*
X4948D02*
D03*
X5710Y11030D02*
D03*
X5583D02*
D03*
X5456D02*
D03*
X5329D02*
D03*
X5202D02*
D03*
X5075D02*
D03*
X4948D02*
D03*
X5635Y6265D02*
D03*
X5508D02*
D03*
X5381D02*
D03*
X5254D02*
D03*
X5635Y5740D02*
D03*
X5508D02*
D03*
X5381D02*
D03*
X5254D02*
D03*
X5741Y9510D02*
D03*
X5614D02*
D03*
X5487D02*
D03*
X5360D02*
D03*
X5233D02*
D03*
X5106D02*
D03*
X4979D02*
D03*
X5741Y8985D02*
D03*
X5614D02*
D03*
X5487D02*
D03*
X5360D02*
D03*
X5233D02*
D03*
X5106D02*
D03*
X4979D02*
D03*
X5766Y7710D02*
D03*
X5639D02*
D03*
X5512D02*
D03*
X5385D02*
D03*
X5258D02*
D03*
X5131D02*
D03*
X5004D02*
D03*
X5766Y7185D02*
D03*
X5639D02*
D03*
X5512D02*
D03*
X5385D02*
D03*
X5258D02*
D03*
X5131D02*
D03*
X5004D02*
D03*
D16*
X5748Y10745D02*
D03*
X5537D02*
D03*
X4807Y10750D02*
D03*
X5018D02*
D03*
D17*
X5972Y6440D02*
D03*
Y6590D02*
D03*
X5258Y7950D02*
D03*
Y8100D02*
D03*
X5508Y7955D02*
D03*
Y8105D02*
D03*
D18*
X4502Y10212D02*
D03*
X4768D02*
D03*
X5988Y5367D02*
D03*
X5722D02*
D03*
X6267Y4995D02*
D03*
X6002D02*
D03*
D19*
X5180Y10410D02*
D03*
Y10199D02*
D03*
X5455Y10418D02*
D03*
Y10207D02*
D03*
D20*
X4756Y6010D02*
D03*
Y6160D02*
D03*
X5715Y4315D02*
D03*
Y4465D02*
D03*
D21*
X5035Y4665D02*
D03*
Y4315D02*
D03*
D22*
X4930Y5365D02*
D03*
X4645D02*
D03*
D23*
X6370Y10810D02*
X6505D01*
X4150Y12103D02*
X6055D01*
X4045Y11997D02*
X4150Y12103D01*
X4045Y11515D02*
Y11997D01*
Y11515D02*
X4183Y11377D01*
X5487Y8758D02*
Y8985D01*
X5487Y8757D02*
X5487Y8758D01*
X5106Y8536D02*
Y8985D01*
X4979Y7807D02*
X5004Y7782D01*
X4685Y7807D02*
X4979D01*
X4588Y7710D02*
X4685Y7807D01*
X5004Y7710D02*
Y7782D01*
X4217Y7710D02*
X4588D01*
X5360Y9510D02*
Y9625D01*
X6465Y5320D02*
Y6328D01*
X5342Y8100D02*
X5385Y8057D01*
Y7820D02*
Y8057D01*
X4797Y5872D02*
X4995D01*
X5013Y5890D01*
X4797Y5872D02*
Y5878D01*
X4756Y5920D02*
X4797Y5878D01*
X5710Y11030D02*
Y11055D01*
X5710Y11007D02*
Y11030D01*
X5487Y9630D02*
Y9759D01*
X5456Y11555D02*
Y11842D01*
X6259Y8485D02*
X6600Y8826D01*
X5490Y8485D02*
X6259D01*
X6600Y8845D02*
X6607Y8853D01*
X6600Y8826D02*
Y8845D01*
X4600Y8100D02*
X5258D01*
X4560Y8060D02*
X4600Y8100D01*
X5990Y6330D02*
X6463D01*
X5972Y6348D02*
X5990Y6330D01*
X5972Y6348D02*
Y6440D01*
X6463Y6330D02*
X6465Y6328D01*
X4687Y9410D02*
X4815D01*
X4050Y8772D02*
X4687Y9410D01*
X4050Y8550D02*
Y8772D01*
X4815Y9410D02*
X4822Y9418D01*
X5360Y8870D02*
Y8985D01*
X5380Y7180D02*
X5388Y7172D01*
X5327Y10904D02*
Y11053D01*
X5120Y6540D02*
X5315Y6735D01*
X4715Y6540D02*
X5120D01*
X5118Y6735D02*
X5315D01*
Y6897D01*
X5388Y6970D01*
X4680Y6735D02*
X4848D01*
X4680D02*
Y6820D01*
X4710Y6850D02*
X5190D01*
X4680Y6820D02*
X4710Y6850D01*
X4679Y6736D02*
X4680Y6735D01*
X6465Y5320D02*
X6478Y5307D01*
X4285Y6747D02*
X4401D01*
X4413Y6736D01*
X4050Y6983D02*
X4285Y6747D01*
X4050Y6983D02*
Y8550D01*
X4949Y11532D02*
Y11655D01*
X5247Y8300D02*
X5255Y8293D01*
X4895Y8300D02*
X5247D01*
X6435Y8190D02*
X6460Y8215D01*
X4748Y8190D02*
X6435D01*
X4733Y8205D02*
X4748Y8190D01*
X5342Y8100D02*
X5503D01*
X5258D02*
X5342D01*
X5503D02*
X5508Y8105D01*
X5388Y6972D02*
Y7172D01*
Y6970D02*
Y6972D01*
X5133Y6938D02*
Y7183D01*
X5131Y7185D02*
X5133Y7183D01*
X5190Y6850D02*
X5255Y6915D01*
Y7182D01*
X5633Y6268D02*
X5635Y6271D01*
X5380Y7180D02*
X5385Y7185D01*
X6334Y8405D02*
X6345D01*
X6324Y8395D02*
X6334Y8405D01*
X5035Y8395D02*
X6324D01*
X5023Y8407D02*
X5035Y8395D01*
X4993Y8407D02*
X5023D01*
X4985Y8415D02*
X4993Y8407D01*
X6710Y11028D02*
Y11447D01*
X6055Y12103D02*
X6710Y11447D01*
X5487Y9510D02*
Y9630D01*
X6030Y9108D02*
Y9215D01*
X5456Y11090D02*
Y11555D01*
X6595Y9970D02*
Y11432D01*
X6080Y11947D02*
X6595Y11432D01*
X5562Y11947D02*
X6080D01*
X6488Y9862D02*
X6595Y9970D01*
X4183Y11377D02*
X4437D01*
X4605Y11210D01*
Y11207D02*
Y11210D01*
X5203Y11532D02*
Y11920D01*
X4803Y12047D02*
X5075D01*
X4675Y11920D02*
X4803Y12047D01*
X4675Y11830D02*
Y11920D01*
X6090Y8118D02*
X6380Y7828D01*
X5925Y8118D02*
X6090D01*
X5870Y8062D02*
X5925Y8118D01*
X5870Y7882D02*
Y8062D01*
X5766Y7779D02*
X5870Y7882D01*
X6380Y7828D02*
X6453D01*
X6000Y7973D02*
X6037D01*
X6072Y7938D01*
Y7455D02*
Y7938D01*
X6453Y7828D02*
Y7938D01*
Y7730D02*
Y7828D01*
X5766Y7710D02*
Y7779D01*
X4154Y11660D02*
X4171Y11643D01*
X4154Y11660D02*
Y11806D01*
X4127Y11832D02*
X4154Y11806D01*
X4171Y11643D02*
X4300D01*
X4761Y11131D02*
X4800Y11170D01*
X4503Y10872D02*
X4761Y11131D01*
X4681D02*
X4761D01*
X4605Y11207D02*
X4681Y11131D01*
X6370Y10810D02*
Y11028D01*
X4397Y11832D02*
X4400Y11830D01*
X4675D01*
X4945Y11685D02*
Y11830D01*
X4890Y11982D02*
X4997D01*
X4800Y11893D02*
X4890Y11982D01*
X5083Y11705D02*
Y11897D01*
X4997Y11982D02*
X5083Y11897D01*
X5075Y12047D02*
X5203Y11920D01*
X5456Y11842D02*
X5562Y11947D01*
X6085Y11755D02*
X6383Y11457D01*
X5660Y11755D02*
X6085D01*
X5583Y11678D02*
X5660Y11755D01*
X5583Y11555D02*
Y11678D01*
X6370Y10807D02*
Y10810D01*
X4800Y11170D02*
Y11893D01*
X5580Y10923D02*
Y11052D01*
X5076Y10946D02*
Y11055D01*
X4085Y10830D02*
X4245Y10990D01*
X4085Y10122D02*
Y10830D01*
Y10122D02*
X4442Y9765D01*
X4155Y10700D02*
X4192Y10738D01*
X4155Y10260D02*
Y10700D01*
Y10260D02*
X4203Y10212D01*
X4192Y10738D02*
X4275D01*
X5710Y11677D02*
X5710Y11678D01*
X5710Y11555D02*
Y11677D01*
X5710Y11007D02*
Y11030D01*
X5710Y10895D02*
X5790Y10815D01*
X6062D01*
X5710Y10895D02*
Y11007D01*
X6505Y10810D02*
X6522Y10792D01*
Y10340D02*
Y10792D01*
X6412Y10230D02*
X6522Y10340D01*
X6155Y10230D02*
X6412D01*
X6358Y10545D02*
X6363Y10550D01*
X6062Y10545D02*
X6358D01*
X5748Y10642D02*
X5838Y10552D01*
X6055D01*
X5748Y10642D02*
Y10745D01*
X5537Y10710D02*
Y10745D01*
X5333Y10505D02*
X5537Y10710D01*
X5290Y10505D02*
X5333D01*
X5265Y10530D02*
X5290Y10505D01*
X5047Y10530D02*
X5265D01*
X5018Y10560D02*
X5047Y10530D01*
X5018Y10560D02*
Y10750D01*
X5290Y9835D02*
Y10505D01*
X5138Y10612D02*
X5270D01*
X5578Y10920D01*
X4203Y10212D02*
X4502D01*
X4712Y10500D02*
Y10718D01*
X4673Y10460D02*
X4712Y10500D01*
X4567Y10460D02*
X4673D01*
X4745Y10750D02*
X4807D01*
X4712Y10718D02*
X4745Y10750D01*
X4555Y10473D02*
X4567Y10460D01*
X4275Y10473D02*
X4555D01*
X4303Y10872D02*
X4503D01*
X4275Y10845D02*
X4303Y10872D01*
X4245Y10990D02*
X4248Y10987D01*
X4275Y10738D02*
Y10845D01*
X4949Y10958D02*
Y11055D01*
X4905Y10915D02*
X4949Y10958D01*
X4650Y10915D02*
X4905D01*
X4567Y10832D02*
X4650Y10915D01*
X4567Y10750D02*
Y10832D01*
X4442Y9765D02*
X4538D01*
X5325Y10903D02*
X5327Y10904D01*
Y11053D02*
X5329Y11055D01*
X5578Y10920D02*
X5580Y10923D01*
Y11052D02*
X5583Y11055D01*
X4235Y11257D02*
X4383D01*
X4383Y11258D01*
X5735Y10738D02*
X5742Y10745D01*
X5456Y11055D02*
Y11090D01*
X5203Y11055D02*
Y11090D01*
X5265Y11153D02*
X5394D01*
X5203Y11090D02*
X5265Y11153D01*
X5072Y10943D02*
X5076Y10946D01*
X5394Y11153D02*
X5456Y11090D01*
X4903Y9838D02*
X5040D01*
X4775Y9710D02*
X4903Y9838D01*
X4775Y9640D02*
Y9710D01*
X5117Y9638D02*
Y9760D01*
X5040Y9838D02*
X5117Y9760D01*
X6178Y9688D02*
X6315D01*
X6318Y9690D01*
X5614Y9510D02*
Y9759D01*
X5658Y9803D01*
X5885D01*
X5903Y9785D01*
Y9662D02*
Y9785D01*
Y9662D02*
X6145Y9420D01*
X6318D01*
X5590Y9862D02*
X6488D01*
X5487Y9759D02*
X5590Y9862D01*
X6318Y9420D02*
X6318Y9420D01*
X6318Y9042D02*
Y9420D01*
X6317Y8650D02*
Y8782D01*
X6318Y8782D01*
X5112Y9632D02*
X5117Y9638D01*
X5112Y9516D02*
Y9632D01*
X5106Y9510D02*
X5112Y9516D01*
X4630Y9495D02*
X4775Y9640D01*
X4538Y9495D02*
X4630D01*
X4979Y10145D02*
Y10332D01*
Y9980D02*
Y10145D01*
X4912Y10212D02*
X4979Y10145D01*
X4768Y10212D02*
X4912D01*
X4248Y10987D02*
X4383D01*
X5075Y11697D02*
X5083Y11705D01*
X6363Y10550D02*
X6370Y10543D01*
X6153Y9967D02*
X6155Y9965D01*
X5738Y9967D02*
X6153D01*
X6055Y10552D02*
X6062Y10545D01*
X5742Y10745D02*
X5748D01*
X5290Y9835D02*
X5360Y9765D01*
X5180Y9945D02*
X5290Y9835D01*
X5075Y11584D02*
Y11697D01*
X5329Y11580D02*
Y11689D01*
X5487Y9475D02*
Y9510D01*
X5233Y9475D02*
Y9510D01*
Y9475D02*
X5295Y9412D01*
X5424D01*
X5487Y9475D01*
X5820Y8897D02*
X6030Y9108D01*
X5762Y8897D02*
X5820D01*
X5741Y8919D02*
X5762Y8897D01*
X5741Y8919D02*
Y8985D01*
X5329Y11580D02*
X5329Y11580D01*
X5614Y8985D02*
X5741D01*
X5360Y9625D02*
Y9765D01*
X6152Y9962D02*
X6155Y9965D01*
X4979Y9980D02*
X4979Y9980D01*
X5360Y9765D02*
X5455Y9860D01*
Y10207D01*
X5180Y9945D02*
Y10199D01*
X5738Y9967D02*
Y10332D01*
X5555Y10515D02*
X5738Y10332D01*
X5517Y10515D02*
X5555D01*
X5455Y10452D02*
X5517Y10515D01*
X5455Y10418D02*
Y10452D01*
X5108Y10460D02*
X5165D01*
X4979Y10332D02*
X5108Y10460D01*
X5165D02*
X5180Y10445D01*
Y10410D02*
Y10445D01*
X5741Y9510D02*
Y9694D01*
X5738Y9697D02*
X5741Y9694D01*
X4979Y9510D02*
Y9710D01*
X4217Y7385D02*
X4225Y7378D01*
X4217Y7385D02*
Y7710D01*
X5106Y8536D02*
X5328Y8757D01*
X5487D01*
X4985Y8415D02*
X5106Y8536D01*
X4320Y8550D02*
X4320Y8550D01*
X4555D01*
X4843Y8415D02*
X4985D01*
X4825Y8433D02*
X4843Y8415D01*
X4825Y8433D02*
Y8550D01*
X4978Y8875D02*
X4979Y8877D01*
Y8985D01*
X5238Y8865D02*
Y8981D01*
X5233Y8985D02*
X5238Y8981D01*
X5110Y7822D02*
X5131Y7801D01*
Y7710D02*
Y7801D01*
X5385Y7710D02*
Y7820D01*
X5360Y9625D02*
X5360Y9625D01*
Y8870D02*
X5362Y8868D01*
X5258Y7710D02*
Y7950D01*
X5258Y7950D01*
X4308Y8218D02*
X4720D01*
X4733Y8205D01*
X4217Y8128D02*
X4308Y8218D01*
X4217Y7980D02*
Y8128D01*
X4733Y7935D02*
X5243D01*
X5712Y7955D02*
X5730Y7973D01*
X5508Y7955D02*
X5712D01*
X5512Y7710D02*
Y7951D01*
X5508Y7955D02*
X5512Y7951D01*
X6453Y7938D02*
X6460Y7945D01*
X6453Y7730D02*
X6462Y7720D01*
X6458Y7455D02*
X6462Y7450D01*
X6072Y7455D02*
X6458D01*
X5004Y7710D02*
X5131D01*
X5639D02*
X5766D01*
X5978Y6875D02*
X6072Y6970D01*
X5910Y6875D02*
X5978D01*
X5766Y7019D02*
X5910Y6875D01*
X6072Y6970D02*
Y7185D01*
X6363Y6913D02*
X6462D01*
X6200Y6750D02*
X6363Y6913D01*
X5909Y6750D02*
X6200D01*
X5639Y7020D02*
X5909Y6750D01*
X6462Y6600D02*
X6465Y6597D01*
X6462Y6600D02*
Y6913D01*
X6072Y7185D02*
X6460D01*
X6462Y7182D01*
X6072Y7185D02*
X6072Y7185D01*
X5766Y7019D02*
Y7185D01*
X5639Y7020D02*
Y7185D01*
X5512Y6980D02*
X5778Y6715D01*
X5512Y6980D02*
Y7185D01*
X5777Y6590D02*
X5778Y6590D01*
Y6715D01*
X5777Y6590D02*
X5972D01*
X5508Y6352D02*
Y6589D01*
Y6265D02*
Y6352D01*
X5508Y6590D02*
X5508Y6589D01*
Y6352D02*
X5604Y6447D01*
X5666D01*
X5917Y5985D02*
Y6196D01*
X5666Y6447D02*
X5917Y6196D01*
X5255Y7182D02*
X5258Y7185D01*
X5635Y6271D02*
Y6372D01*
X5633Y6268D02*
X5635Y6265D01*
X5004Y7185D02*
X5131D01*
X4453Y6278D02*
X4715Y6540D01*
X5635Y5613D02*
Y5740D01*
X5508D02*
X5512Y5736D01*
Y5620D02*
Y5736D01*
X5381Y5396D02*
X5388Y5390D01*
X5381Y5396D02*
Y5740D01*
X5380Y6267D02*
Y6392D01*
X5315Y6457D02*
X5380Y6392D01*
X5221Y6457D02*
X5315D01*
X5013Y6249D02*
X5221Y6457D01*
X5013Y6160D02*
Y6249D01*
X5380Y6267D02*
X5381Y6265D01*
X5254Y5739D02*
X5255Y5740D01*
X5253Y6268D02*
X5255Y6265D01*
X5253Y6268D02*
Y6383D01*
X5254Y5625D02*
Y5739D01*
Y5740D02*
X5255Y5740D01*
X5254Y6265D02*
X5255Y6265D01*
X4756Y5920D02*
Y6010D01*
X5013Y6160D02*
X5013Y6160D01*
X4756Y6160D02*
X5013D01*
X4672Y4308D02*
Y4353D01*
X4645Y4380D02*
X4672Y4353D01*
X4645Y4380D02*
Y4425D01*
X4672Y4308D02*
X5028D01*
X4480D02*
X4672D01*
X4342Y4445D02*
X4480Y4308D01*
X4342Y4445D02*
Y6167D01*
X4453Y6278D02*
X4703D01*
X4342Y6167D02*
X4453Y6278D01*
X4703D02*
X4756Y6224D01*
Y6160D02*
Y6224D01*
X5028Y4308D02*
X5035Y4315D01*
X5092Y4860D02*
X5438D01*
X5045Y4812D02*
X5092Y4860D01*
X5045Y4675D02*
Y4812D01*
X5438Y4860D02*
X5470Y4828D01*
X6267Y4995D02*
Y5178D01*
X6208Y5238D02*
X6267Y5178D01*
X6208Y5238D02*
Y5365D01*
X6205Y5367D02*
X6208Y5365D01*
X5988Y5367D02*
X6205D01*
X6000Y4997D02*
X6002Y4995D01*
X5735Y4997D02*
X6000D01*
X5722Y5010D02*
X5735Y4997D01*
X5407Y5010D02*
X5722D01*
X5700Y5390D02*
X5722Y5367D01*
X5388Y5390D02*
X5700D01*
X5362Y5365D02*
X5388Y5390D01*
X4930Y5365D02*
X5362D01*
X4645D02*
X4645Y5365D01*
Y5010D02*
Y5365D01*
Y4695D02*
Y5010D01*
Y4695D02*
X4645Y4695D01*
X5035Y4665D02*
X5045Y4675D01*
X5715Y4550D02*
X5734Y4569D01*
X6015D01*
X5715Y4465D02*
Y4550D01*
Y4465D02*
X5715Y4465D01*
X5680Y4585D02*
X5715Y4550D01*
X5465Y4585D02*
X5680D01*
X5425Y4625D02*
X5465Y4585D01*
X5075Y4625D02*
X5425D01*
X5035Y4665D02*
X5075Y4625D01*
X5035Y4315D02*
X5465D01*
X5715D01*
X6015D01*
D24*
X4300Y11492D02*
D03*
X5917Y5985D02*
D03*
X4595Y7365D02*
D03*
X6022Y9215D02*
D03*
X4225Y7378D02*
D03*
X5735Y4997D02*
D03*
X5388Y5390D02*
D03*
D25*
X5407Y5010D02*
D03*
X4645D02*
D03*
D26*
X6015Y4569D02*
D03*
D27*
Y4315D02*
D03*
D28*
X6550Y12400D02*
D03*
X4150D02*
D03*
X4160Y4250D02*
D03*
X6550D02*
D03*
D29*
X4797Y5872D02*
D03*
X6607Y8853D02*
D03*
X4560Y8060D02*
D03*
X4822Y9418D02*
D03*
X4285Y6747D02*
D03*
X6460Y5838D02*
D03*
X5247Y8300D02*
D03*
X4895D02*
D03*
X5388Y6972D02*
D03*
X5133Y6938D02*
D03*
X5385Y7820D02*
D03*
X6345Y8405D02*
D03*
X6710Y11028D02*
D03*
X4300Y11643D02*
D03*
X4605Y11207D02*
D03*
X6370Y11028D02*
D03*
X6385Y11453D02*
D03*
X4945Y11685D02*
D03*
X5710Y11678D02*
D03*
X5138Y10612D02*
D03*
X4245Y10990D02*
D03*
X4235Y11257D02*
D03*
X5578Y10920D02*
D03*
X5325Y10903D02*
D03*
X5072Y10943D02*
D03*
X5488Y9630D02*
D03*
X6178Y9688D02*
D03*
X6317Y8650D02*
D03*
X5117Y9638D02*
D03*
X5075Y11697D02*
D03*
X5329Y11689D02*
D03*
X4985Y8415D02*
D03*
X4979Y8877D02*
D03*
X5238Y8865D02*
D03*
X5110Y7822D02*
D03*
X5360Y8870D02*
D03*
X5360Y9625D02*
D03*
X6453Y7828D02*
D03*
X5635Y6372D02*
D03*
X5635Y5613D02*
D03*
X5512Y5620D02*
D03*
X5253Y6383D02*
D03*
X5254Y5625D02*
D03*
X5470Y4828D02*
D03*
%TF.MD5,4fdf21c54d3275fcffb2f1f1f0eec96f*%
M02*
