%TF.GenerationSoftware,Altium Limited,Altium Designer,19.0.15 (446)*%
G04 Layer_Color=65535*
%FSLAX42Y42*%
%MOMM*%
%TF.FileFunction,Legend,Bot*%
%TF.Part,Single*%
G01*
G75*
%TA.AperFunction,NonConductor*%
%ADD37C,0.60*%
%ADD38C,0.25*%
%ADD39C,0.30*%
%ADD40C,0.20*%
D37*
X5152Y6996D02*
G03*
X5152Y6996I-30J0D01*
G01*
D38*
X4922Y6892D02*
G03*
X4922Y6892I-12J0D01*
G01*
D39*
X7065Y7940D02*
Y8840D01*
X6705D02*
X7065D01*
X6705Y7940D02*
X7065D01*
X6705Y8740D02*
Y8840D01*
Y7940D02*
Y8040D01*
X5880Y7863D02*
Y7962D01*
X6025Y7863D02*
Y7962D01*
X4160Y11632D02*
X4440D01*
X4160Y11352D02*
Y11632D01*
Y11352D02*
X4440D01*
Y11632D01*
X5095Y11122D02*
X5275D01*
Y11190D02*
Y11530D01*
X5095Y11190D02*
Y11530D01*
X5110Y9003D02*
X5290D01*
Y9070D02*
Y9410D01*
X5110Y9070D02*
Y9410D01*
X4918Y8850D02*
X5047D01*
X5022Y7946D02*
X5502D01*
X5022Y6896D02*
X5502D01*
Y7946D01*
X5022Y6896D02*
Y7946D01*
X6025Y7175D02*
X6205D01*
Y7243D02*
Y7582D01*
X6025Y7243D02*
Y7582D01*
X4693Y11438D02*
Y11518D01*
X4543Y11438D02*
Y11518D01*
X5795Y11893D02*
X5895D01*
X5795Y11753D02*
X5895D01*
X6670Y10945D02*
Y11045D01*
X6530Y10945D02*
Y11045D01*
X4455Y7225D02*
Y7505D01*
X4455D02*
X4735D01*
Y7225D02*
Y7505D01*
X4455Y7225D02*
X4735D01*
X6665Y11538D02*
Y11638D01*
X6520Y11538D02*
Y11638D01*
X5933Y11242D02*
Y11342D01*
X6067Y11242D02*
Y11342D01*
X6185Y11633D02*
Y11802D01*
X6315Y11633D02*
Y11802D01*
X6185Y11533D02*
X6315D01*
X4388Y7825D02*
X4447D01*
X4388Y7655D02*
X4447D01*
X5182Y5970D02*
Y6070D01*
X5328Y5970D02*
Y6070D01*
D40*
X6671Y8976D02*
X6683Y8987D01*
X6706D01*
X6718Y8976D01*
Y8964D01*
X6706Y8952D01*
X6683D01*
X6671Y8941D01*
Y8929D01*
X6683Y8918D01*
X6706D01*
X6718Y8929D01*
X6648Y8987D02*
Y8918D01*
X6624Y8941D01*
X6601Y8918D01*
Y8987D01*
X6135Y8007D02*
X6065D01*
Y7973D01*
X6077Y7961D01*
X6100D01*
X6112Y7973D01*
Y8007D01*
Y7984D02*
X6135Y7961D01*
Y7926D02*
Y7903D01*
X6123Y7891D01*
X6100D01*
X6088Y7903D01*
Y7926D01*
X6100Y7938D01*
X6123D01*
X6135Y7926D01*
X4308Y11787D02*
X4332D01*
X4320D01*
Y11729D01*
X4332Y11718D01*
X4343D01*
X4355Y11729D01*
X4238Y11787D02*
X4262Y11776D01*
X4285Y11752D01*
Y11729D01*
X4273Y11718D01*
X4250D01*
X4238Y11729D01*
Y11741D01*
X4250Y11752D01*
X4285D01*
X5587Y11441D02*
X5575Y11453D01*
Y11476D01*
X5587Y11488D01*
X5633D01*
X5645Y11476D01*
Y11453D01*
X5633Y11441D01*
X5575Y11371D02*
X5645D01*
Y11406D01*
X5633Y11418D01*
X5610D01*
X5598Y11406D01*
Y11371D01*
Y11348D02*
X5633D01*
X5645Y11336D01*
Y11301D01*
X5598D01*
X5587Y11278D02*
X5575Y11266D01*
Y11243D01*
X5587Y11231D01*
X5598D01*
X5610Y11243D01*
Y11254D01*
Y11243D01*
X5622Y11231D01*
X5633D01*
X5645Y11243D01*
Y11266D01*
X5633Y11278D01*
X4982Y11431D02*
X4970Y11443D01*
Y11466D01*
X4982Y11478D01*
X5028D01*
X5040Y11466D01*
Y11443D01*
X5028Y11431D01*
X4970Y11361D02*
X5040D01*
Y11396D01*
X5028Y11408D01*
X5005D01*
X4993Y11396D01*
Y11361D01*
Y11338D02*
X5028D01*
X5040Y11326D01*
Y11291D01*
X4993D01*
X4982Y11268D02*
X4970Y11256D01*
Y11233D01*
X4982Y11221D01*
X4993D01*
X5005Y11233D01*
Y11244D01*
Y11233D01*
X5017Y11221D01*
X5028D01*
X5040Y11233D01*
Y11256D01*
X5028Y11268D01*
X5040Y11198D02*
X5028D01*
Y11186D01*
X5040D01*
Y11198D01*
X5607Y9311D02*
X5595Y9323D01*
Y9346D01*
X5607Y9357D01*
X5653D01*
X5665Y9346D01*
Y9323D01*
X5653Y9311D01*
X5595Y9241D02*
X5665D01*
Y9276D01*
X5653Y9288D01*
X5630D01*
X5618Y9276D01*
Y9241D01*
Y9218D02*
X5653D01*
X5665Y9206D01*
Y9171D01*
X5618D01*
X5665Y9101D02*
Y9148D01*
X5618Y9101D01*
X5607D01*
X5595Y9113D01*
Y9136D01*
X5607Y9148D01*
X5007Y9338D02*
X4995Y9350D01*
Y9373D01*
X5007Y9385D01*
X5053D01*
X5065Y9373D01*
Y9350D01*
X5053Y9338D01*
X4995Y9268D02*
X5065D01*
Y9303D01*
X5053Y9315D01*
X5030D01*
X5018Y9303D01*
Y9268D01*
Y9245D02*
X5053D01*
X5065Y9233D01*
Y9198D01*
X5018D01*
X5065Y9128D02*
Y9175D01*
X5018Y9128D01*
X5007D01*
X4995Y9140D01*
Y9163D01*
X5007Y9175D01*
X5065Y9105D02*
X5053D01*
Y9093D01*
X5065D01*
Y9105D01*
X4925Y8568D02*
X4855D01*
Y8602D01*
X4867Y8614D01*
X4913D01*
X4925Y8602D01*
Y8568D01*
Y8684D02*
X4855D01*
Y8649D01*
X4867Y8637D01*
X4890D01*
X4902Y8649D01*
Y8684D01*
X4832Y8707D02*
X4902D01*
Y8742D01*
X4890Y8754D01*
X4867D01*
X4855Y8742D01*
Y8707D01*
X5222Y6786D02*
Y6844D01*
X5234Y6856D01*
X5257D01*
X5269Y6844D01*
Y6786D01*
X5327Y6856D02*
Y6786D01*
X5292Y6821D01*
X5339D01*
X5919Y7501D02*
X5908Y7513D01*
Y7536D01*
X5919Y7547D01*
X5966D01*
X5978Y7536D01*
Y7513D01*
X5966Y7501D01*
X5908Y7431D02*
X5978D01*
Y7466D01*
X5966Y7478D01*
X5943D01*
X5931Y7466D01*
Y7431D01*
Y7408D02*
X5966D01*
X5978Y7396D01*
Y7361D01*
X5931D01*
X5978Y7338D02*
Y7314D01*
Y7326D01*
X5908D01*
X5919Y7338D01*
X5978Y7279D02*
X5966D01*
Y7268D01*
X5978D01*
Y7279D01*
X6571Y7488D02*
X6560Y7500D01*
Y7523D01*
X6571Y7535D01*
X6618D01*
X6630Y7523D01*
Y7500D01*
X6618Y7488D01*
X6560Y7418D02*
X6630D01*
Y7453D01*
X6618Y7465D01*
X6595D01*
X6583Y7453D01*
Y7418D01*
Y7395D02*
X6618D01*
X6630Y7383D01*
Y7348D01*
X6583D01*
X6630Y7325D02*
Y7302D01*
Y7313D01*
X6560D01*
X6571Y7325D01*
X4757Y11451D02*
X4745Y11463D01*
Y11486D01*
X4757Y11497D01*
X4803D01*
X4815Y11486D01*
Y11463D01*
X4803Y11451D01*
X4582Y7108D02*
X4558D01*
X4570D01*
Y7166D01*
X4558Y7178D01*
X4547D01*
X4535Y7166D01*
X4605Y7108D02*
X4652D01*
Y7119D01*
X4605Y7166D01*
Y7178D01*
X6135Y10997D02*
Y11067D01*
X6100D01*
X6088Y11056D01*
Y11032D01*
X6100Y11021D01*
X6135D01*
X6112D02*
X6088Y10997D01*
X6018Y11044D02*
X6053D01*
X6065Y11032D01*
Y11009D01*
X6053Y10997D01*
X6018D01*
X5995D02*
X5972D01*
X5983D01*
Y11067D01*
X5995Y11056D01*
X5937Y10997D02*
X5913D01*
X5925D01*
Y11067D01*
X5937Y11056D01*
X5878Y10997D02*
X5855D01*
X5867D01*
Y11067D01*
X5878Y11056D01*
X5965Y11968D02*
Y12037D01*
X5930D01*
X5918Y12026D01*
Y12002D01*
X5930Y11991D01*
X5965D01*
X5942D02*
X5918Y11968D01*
X5848Y12014D02*
X5883D01*
X5895Y12002D01*
Y11979D01*
X5883Y11968D01*
X5848D01*
X5825D02*
X5802D01*
X5813D01*
Y12037D01*
X5825Y12026D01*
X5767Y11968D02*
X5743D01*
X5755D01*
Y12037D01*
X5767Y12026D01*
X6675Y11847D02*
Y11917D01*
X6640D01*
X6628Y11906D01*
Y11882D01*
X6640Y11871D01*
X6675D01*
X6652D02*
X6628Y11847D01*
X6558Y11894D02*
X6593D01*
X6605Y11882D01*
Y11859D01*
X6593Y11847D01*
X6558D01*
X6488Y11917D02*
X6512Y11906D01*
X6535Y11882D01*
Y11859D01*
X6523Y11847D01*
X6500D01*
X6488Y11859D01*
Y11871D01*
X6500Y11882D01*
X6535D01*
X6485Y11107D02*
X6415D01*
Y11073D01*
X6427Y11061D01*
X6450D01*
X6462Y11073D01*
Y11107D01*
Y11084D02*
X6485Y11061D01*
X6438Y10991D02*
Y11026D01*
X6450Y11038D01*
X6473D01*
X6485Y11026D01*
Y10991D01*
X6415Y10921D02*
Y10968D01*
X6450D01*
X6438Y10944D01*
Y10933D01*
X6450Y10921D01*
X6473D01*
X6485Y10933D01*
Y10956D01*
X6473Y10968D01*
X5140Y6108D02*
X5070D01*
Y6073D01*
X5082Y6061D01*
X5105D01*
X5117Y6073D01*
Y6108D01*
Y6084D02*
X5140Y6061D01*
X5093Y6026D02*
Y6003D01*
X5105Y5991D01*
X5140D01*
Y6026D01*
X5128Y6038D01*
X5117Y6026D01*
Y5991D01*
X5140Y5968D02*
Y5944D01*
Y5956D01*
X5070D01*
X5082Y5968D01*
X6345Y11977D02*
Y11907D01*
X6310D01*
X6298Y11919D01*
Y11966D01*
X6310Y11977D01*
X6345D01*
X6228Y11954D02*
X6263D01*
X6275Y11942D01*
Y11919D01*
X6263Y11907D01*
X6228D01*
X6158Y11977D02*
X6205D01*
Y11942D01*
X6182Y11954D01*
X6170D01*
X6158Y11942D01*
Y11919D01*
X6170Y11907D01*
X6193D01*
X6205Y11919D01*
X4428Y7976D02*
X4440Y7987D01*
X4463D01*
X4475Y7976D01*
Y7929D01*
X4463Y7918D01*
X4440D01*
X4428Y7929D01*
X4393Y7918D02*
X4370D01*
X4358Y7929D01*
Y7952D01*
X4370Y7964D01*
X4393D01*
X4405Y7952D01*
Y7929D01*
X4393Y7918D01*
%TF.MD5,e7c05c75fc769aff3901c91a6c331adf*%
M02*
