%TF.GenerationSoftware,Altium Limited,Altium Designer,19.0.15 (446)*%
G04 Layer_Color=8421504*
%FSLAX42Y42*%
%MOMM*%
%TF.FileFunction,Paste,Top*%
%TF.Part,Single*%
G01*
G75*
%TA.AperFunction,SMDPad,CuDef*%
%ADD10R,1.55X0.90*%
%ADD11R,1.60X0.90*%
%ADD12R,1.70X1.10*%
%ADD13R,1.70X0.95*%
%ADD14R,0.90X1.60*%
G04:AMPARAMS|DCode=15|XSize=0.55mm|YSize=1.25mm|CornerRadius=0.05mm|HoleSize=0mm|Usage=FLASHONLY|Rotation=180.000|XOffset=0mm|YOffset=0mm|HoleType=Round|Shape=RoundedRectangle|*
%AMROUNDEDRECTD15*
21,1,0.55,1.15,0,0,180.0*
21,1,0.45,1.25,0,0,180.0*
1,1,0.10,-0.23,0.58*
1,1,0.10,0.23,0.58*
1,1,0.10,0.23,-0.58*
1,1,0.10,-0.23,-0.58*
%
%ADD15ROUNDEDRECTD15*%
%ADD16R,0.59X0.45*%
%ADD17R,1.30X1.00*%
%ADD18R,0.90X1.55*%
%ADD19R,0.45X0.59*%
%ADD20R,1.40X1.10*%
%ADD21R,1.60X2.50*%
%ADD22R,1.10X1.65*%
D10*
X4275Y10738D02*
D03*
Y10473D02*
D03*
X6370Y10543D02*
D03*
Y10807D02*
D03*
X6155Y10230D02*
D03*
Y9965D02*
D03*
D11*
X4383Y10987D02*
D03*
Y11258D02*
D03*
X4538Y9495D02*
D03*
Y9765D02*
D03*
X6062Y10545D02*
D03*
Y10815D02*
D03*
X6465Y6597D02*
D03*
Y6328D02*
D03*
X4979Y9980D02*
D03*
Y9710D02*
D03*
X5738Y9967D02*
D03*
Y9697D02*
D03*
X6462Y6913D02*
D03*
Y7182D02*
D03*
X6072Y7455D02*
D03*
Y7185D02*
D03*
X6460Y8215D02*
D03*
Y7945D02*
D03*
X4733Y8205D02*
D03*
Y7935D02*
D03*
X4645Y4695D02*
D03*
Y4425D02*
D03*
D12*
X6318Y9042D02*
D03*
Y8782D02*
D03*
X4567Y10460D02*
D03*
Y10750D02*
D03*
X4217Y7980D02*
D03*
Y7710D02*
D03*
X6462Y7720D02*
D03*
Y7450D02*
D03*
X5490Y8755D02*
D03*
Y8485D02*
D03*
X5013Y5890D02*
D03*
Y6160D02*
D03*
X5465Y4315D02*
D03*
Y4585D02*
D03*
D13*
X6318Y9690D02*
D03*
Y9420D02*
D03*
D14*
X4945Y11830D02*
D03*
X4675D02*
D03*
X4127Y11832D02*
D03*
X4397D02*
D03*
X5730Y7973D02*
D03*
X6000D02*
D03*
X4320Y8550D02*
D03*
X4050D02*
D03*
X5508Y6590D02*
D03*
X5777D02*
D03*
X4683Y6736D02*
D03*
X4413D02*
D03*
X4555Y8550D02*
D03*
X4825D02*
D03*
X4848Y6735D02*
D03*
X5118D02*
D03*
X6478Y5307D02*
D03*
X6208D02*
D03*
D15*
X5710Y11555D02*
D03*
X5583D02*
D03*
X5456D02*
D03*
X5329D02*
D03*
X5202D02*
D03*
X5075D02*
D03*
X4948D02*
D03*
X5710Y11030D02*
D03*
X5583D02*
D03*
X5456D02*
D03*
X5329D02*
D03*
X5202D02*
D03*
X5075D02*
D03*
X4948D02*
D03*
X5635Y6265D02*
D03*
X5508D02*
D03*
X5381D02*
D03*
X5254D02*
D03*
X5635Y5740D02*
D03*
X5508D02*
D03*
X5381D02*
D03*
X5254D02*
D03*
X5741Y9510D02*
D03*
X5614D02*
D03*
X5487D02*
D03*
X5360D02*
D03*
X5233D02*
D03*
X5106D02*
D03*
X4979D02*
D03*
X5741Y8985D02*
D03*
X5614D02*
D03*
X5487D02*
D03*
X5360D02*
D03*
X5233D02*
D03*
X5106D02*
D03*
X4979D02*
D03*
X5766Y7710D02*
D03*
X5639D02*
D03*
X5512D02*
D03*
X5385D02*
D03*
X5258D02*
D03*
X5131D02*
D03*
X5004D02*
D03*
X5766Y7185D02*
D03*
X5639D02*
D03*
X5512D02*
D03*
X5385D02*
D03*
X5258D02*
D03*
X5131D02*
D03*
X5004D02*
D03*
D16*
X5748Y10745D02*
D03*
X5537D02*
D03*
X4807Y10750D02*
D03*
X5018D02*
D03*
D17*
X5972Y6440D02*
D03*
Y6590D02*
D03*
X5258Y7950D02*
D03*
Y8100D02*
D03*
X5508Y7955D02*
D03*
Y8105D02*
D03*
D18*
X4502Y10212D02*
D03*
X4768D02*
D03*
X5988Y5367D02*
D03*
X5722D02*
D03*
X6267Y4995D02*
D03*
X6002D02*
D03*
D19*
X5180Y10410D02*
D03*
Y10199D02*
D03*
X5455Y10418D02*
D03*
Y10207D02*
D03*
D20*
X4756Y6010D02*
D03*
Y6160D02*
D03*
X5715Y4315D02*
D03*
Y4465D02*
D03*
D21*
X5035Y4665D02*
D03*
Y4315D02*
D03*
D22*
X4930Y5365D02*
D03*
X4645D02*
D03*
%TF.MD5,783573a775a0fc6eac3dd56693703400*%
M02*
